<mxfile host="app.diagrams.net" agent="Mozilla/5.0 (Windows NT 10.0; Win64; x64) AppleWebKit/537.36 (KHTML, like Gecko) Chrome/133.0.0.0 Safari/537.36" version="26.0.16">
  <diagram name="Page-1" id="CrSjVFRXofaEEPbgk670">
    <mxGraphModel dx="1975" dy="4353" grid="1" gridSize="10" guides="1" tooltips="1" connect="1" arrows="1" fold="1" page="1" pageScale="1" pageWidth="850" pageHeight="1100" math="0" shadow="0">
      <root>
        <mxCell id="0" />
        <mxCell id="1" parent="0" />
        <mxCell id="dReqOSm1kdml6KpYtbeG-1" style="edgeStyle=orthogonalEdgeStyle;rounded=0;orthogonalLoop=1;jettySize=auto;html=1;exitX=1;exitY=0.5;exitDx=0;exitDy=0;entryX=0;entryY=0.5;entryDx=0;entryDy=0;" parent="1" source="dReqOSm1kdml6KpYtbeG-2" target="dReqOSm1kdml6KpYtbeG-6" edge="1">
          <mxGeometry relative="1" as="geometry" />
        </mxCell>
        <mxCell id="dReqOSm1kdml6KpYtbeG-2" value="" style="rounded=0;whiteSpace=wrap;html=1;movable=1;resizable=1;rotatable=1;deletable=1;editable=1;locked=0;connectable=1;" parent="1" vertex="1">
          <mxGeometry x="50" y="70" width="390" height="350" as="geometry" />
        </mxCell>
        <mxCell id="dReqOSm1kdml6KpYtbeG-3" value="" style="rounded=0;whiteSpace=wrap;html=1;" parent="1" vertex="1">
          <mxGeometry x="130" y="170" width="230" height="150" as="geometry" />
        </mxCell>
        <mxCell id="dReqOSm1kdml6KpYtbeG-4" value="Email" style="rounded=0;whiteSpace=wrap;html=1;" parent="1" vertex="1">
          <mxGeometry x="185" y="190" width="120" height="40" as="geometry" />
        </mxCell>
        <mxCell id="dReqOSm1kdml6KpYtbeG-5" value="Password" style="rounded=0;whiteSpace=wrap;html=1;" parent="1" vertex="1">
          <mxGeometry x="185" y="250" width="120" height="40" as="geometry" />
        </mxCell>
        <mxCell id="dReqOSm1kdml6KpYtbeG-6" value="" style="rounded=0;whiteSpace=wrap;html=1;movable=1;resizable=1;rotatable=1;deletable=1;editable=1;locked=0;connectable=1;" parent="1" vertex="1">
          <mxGeometry x="730" y="-100" width="1210" height="690" as="geometry" />
        </mxCell>
        <mxCell id="dReqOSm1kdml6KpYtbeG-7" style="edgeStyle=orthogonalEdgeStyle;rounded=0;orthogonalLoop=1;jettySize=auto;html=1;" parent="1" source="dReqOSm1kdml6KpYtbeG-8" target="dReqOSm1kdml6KpYtbeG-9" edge="1">
          <mxGeometry relative="1" as="geometry" />
        </mxCell>
        <mxCell id="dReqOSm1kdml6KpYtbeG-8" value="" style="ellipse;whiteSpace=wrap;html=1;aspect=fixed;" parent="1" vertex="1">
          <mxGeometry x="770" y="-80" width="60" height="60" as="geometry" />
        </mxCell>
        <mxCell id="dReqOSm1kdml6KpYtbeG-9" value="" style="rounded=0;whiteSpace=wrap;html=1;movable=1;resizable=1;rotatable=1;deletable=1;editable=1;locked=0;connectable=1;" parent="1" vertex="1">
          <mxGeometry x="730" y="-1040" width="1210" height="690" as="geometry" />
        </mxCell>
        <mxCell id="dReqOSm1kdml6KpYtbeG-10" value="" style="group" parent="1" connectable="0" vertex="1">
          <mxGeometry x="730" y="-1040" width="350" height="690" as="geometry" />
        </mxCell>
        <mxCell id="dReqOSm1kdml6KpYtbeG-11" value="" style="rounded=0;whiteSpace=wrap;html=1;" parent="dReqOSm1kdml6KpYtbeG-10" vertex="1">
          <mxGeometry width="340" height="690" as="geometry" />
        </mxCell>
        <mxCell id="dReqOSm1kdml6KpYtbeG-12" value="" style="ellipse;whiteSpace=wrap;html=1;aspect=fixed;" parent="dReqOSm1kdml6KpYtbeG-10" vertex="1">
          <mxGeometry x="130" y="40" width="60" height="60" as="geometry" />
        </mxCell>
        <mxCell id="dReqOSm1kdml6KpYtbeG-13" value="" style="rounded=0;whiteSpace=wrap;html=1;" parent="dReqOSm1kdml6KpYtbeG-10" vertex="1">
          <mxGeometry y="220" width="340" height="260" as="geometry" />
        </mxCell>
        <mxCell id="dReqOSm1kdml6KpYtbeG-14" value="account.name&lt;div&gt;account.role&lt;/div&gt;" style="rounded=0;whiteSpace=wrap;html=1;" parent="dReqOSm1kdml6KpYtbeG-10" vertex="1">
          <mxGeometry x="40" y="270" width="260" height="60" as="geometry" />
        </mxCell>
        <mxCell id="dReqOSm1kdml6KpYtbeG-15" value="account.name&lt;div&gt;account.role&lt;/div&gt;" style="rounded=0;whiteSpace=wrap;html=1;" parent="dReqOSm1kdml6KpYtbeG-10" vertex="1">
          <mxGeometry x="40" y="340" width="260" height="60" as="geometry" />
        </mxCell>
        <mxCell id="dReqOSm1kdml6KpYtbeG-16" value="Logout" style="rounded=0;whiteSpace=wrap;html=1;" parent="dReqOSm1kdml6KpYtbeG-10" vertex="1">
          <mxGeometry x="40" y="630" width="260" height="60" as="geometry" />
        </mxCell>
        <mxCell id="dReqOSm1kdml6KpYtbeG-17" value="available_name&lt;div&gt;&lt;br&gt;&lt;/div&gt;&lt;div&gt;email&lt;/div&gt;&lt;div&gt;&lt;br&gt;&lt;/div&gt;&lt;div&gt;role&lt;/div&gt;" style="text;html=1;align=center;verticalAlign=middle;whiteSpace=wrap;rounded=0;" parent="dReqOSm1kdml6KpYtbeG-10" vertex="1">
          <mxGeometry x="97.5" y="120" width="125" height="70" as="geometry" />
        </mxCell>
        <mxCell id="dReqOSm1kdml6KpYtbeG-18" value="Switch Account" style="text;html=1;align=center;verticalAlign=middle;whiteSpace=wrap;rounded=0;" parent="dReqOSm1kdml6KpYtbeG-10" vertex="1">
          <mxGeometry x="105" y="230" width="130" height="30" as="geometry" />
        </mxCell>
        <mxCell id="dReqOSm1kdml6KpYtbeG-19" value="&lt;font style=&quot;font-size: 36px;&quot;&gt;...&lt;/font&gt;" style="text;html=1;align=center;verticalAlign=middle;whiteSpace=wrap;rounded=0;" parent="dReqOSm1kdml6KpYtbeG-10" vertex="1">
          <mxGeometry x="105" y="420" width="130" height="30" as="geometry" />
        </mxCell>
        <mxCell id="dReqOSm1kdml6KpYtbeG-20" value="avatar_url" style="text;html=1;align=center;verticalAlign=middle;resizable=0;points=[];autosize=1;strokeColor=none;fillColor=none;" parent="dReqOSm1kdml6KpYtbeG-10" vertex="1">
          <mxGeometry x="120" y="55" width="80" height="30" as="geometry" />
        </mxCell>
        <mxCell id="dReqOSm1kdml6KpYtbeG-21" value="Inboxes" style="rounded=0;whiteSpace=wrap;html=1;strokeColor=#000000;fillColor=#CECECE;" parent="1" vertex="1">
          <mxGeometry x="1660" y="-50" width="260" height="60" as="geometry" />
        </mxCell>
        <mxCell id="dReqOSm1kdml6KpYtbeG-22" value="" style="endArrow=none;html=1;rounded=0;entryX=0.75;entryY=0;entryDx=0;entryDy=0;exitX=0.75;exitY=1;exitDx=0;exitDy=0;" parent="1" source="dReqOSm1kdml6KpYtbeG-6" target="dReqOSm1kdml6KpYtbeG-6" edge="1">
          <mxGeometry width="50" height="50" relative="1" as="geometry">
            <mxPoint x="1610" y="-120" as="sourcePoint" />
            <mxPoint x="1660" y="-170" as="targetPoint" />
          </mxGeometry>
        </mxCell>
        <mxCell id="dReqOSm1kdml6KpYtbeG-23" style="edgeStyle=orthogonalEdgeStyle;rounded=0;orthogonalLoop=1;jettySize=auto;html=1;" parent="1" source="dReqOSm1kdml6KpYtbeG-24" target="dReqOSm1kdml6KpYtbeG-6" edge="1">
          <mxGeometry relative="1" as="geometry" />
        </mxCell>
        <mxCell id="dReqOSm1kdml6KpYtbeG-24" value="Agent Bots" style="rounded=0;whiteSpace=wrap;html=1;" parent="1" vertex="1">
          <mxGeometry x="1660" y="40" width="260" height="60" as="geometry" />
        </mxCell>
        <mxCell id="dReqOSm1kdml6KpYtbeG-25" style="edgeStyle=orthogonalEdgeStyle;rounded=0;orthogonalLoop=1;jettySize=auto;html=1;entryX=0;entryY=0.25;entryDx=0;entryDy=0;" parent="1" source="dReqOSm1kdml6KpYtbeG-26" target="dReqOSm1kdml6KpYtbeG-33" edge="1">
          <mxGeometry relative="1" as="geometry" />
        </mxCell>
        <mxCell id="dReqOSm1kdml6KpYtbeG-26" value="Knowledge Bases" style="rounded=0;whiteSpace=wrap;html=1;" parent="1" vertex="1">
          <mxGeometry x="1660" y="130" width="260" height="60" as="geometry" />
        </mxCell>
        <mxCell id="dReqOSm1kdml6KpYtbeG-27" value="" style="rounded=0;whiteSpace=wrap;html=1;movable=1;resizable=1;rotatable=1;deletable=1;editable=1;locked=0;connectable=1;" parent="1" vertex="1">
          <mxGeometry x="2090" y="-790" width="1210" height="690" as="geometry" />
        </mxCell>
        <mxCell id="dReqOSm1kdml6KpYtbeG-28" value="" style="ellipse;whiteSpace=wrap;html=1;aspect=fixed;" parent="1" vertex="1">
          <mxGeometry x="2130" y="-770" width="60" height="60" as="geometry" />
        </mxCell>
        <mxCell id="dReqOSm1kdml6KpYtbeG-29" value="Inboxes" style="rounded=0;whiteSpace=wrap;html=1;" parent="1" vertex="1">
          <mxGeometry x="3020" y="-740" width="260" height="60" as="geometry" />
        </mxCell>
        <mxCell id="dReqOSm1kdml6KpYtbeG-30" value="" style="endArrow=none;html=1;rounded=0;entryX=0.75;entryY=0;entryDx=0;entryDy=0;exitX=0.75;exitY=1;exitDx=0;exitDy=0;" parent="1" source="dReqOSm1kdml6KpYtbeG-27" target="dReqOSm1kdml6KpYtbeG-27" edge="1">
          <mxGeometry width="50" height="50" relative="1" as="geometry">
            <mxPoint x="2970" y="-810" as="sourcePoint" />
            <mxPoint x="3020" y="-860" as="targetPoint" />
          </mxGeometry>
        </mxCell>
        <mxCell id="dReqOSm1kdml6KpYtbeG-31" value="Agent Bots" style="rounded=0;whiteSpace=wrap;html=1;fillColor=#CECECE;" parent="1" vertex="1">
          <mxGeometry x="3020" y="-650" width="260" height="60" as="geometry" />
        </mxCell>
        <mxCell id="dReqOSm1kdml6KpYtbeG-32" value="Knowledge Bases" style="rounded=0;whiteSpace=wrap;html=1;" parent="1" vertex="1">
          <mxGeometry x="3020" y="-560" width="260" height="60" as="geometry" />
        </mxCell>
        <mxCell id="dReqOSm1kdml6KpYtbeG-33" value="" style="rounded=0;whiteSpace=wrap;html=1;movable=1;resizable=1;rotatable=1;deletable=1;editable=1;locked=0;connectable=1;" parent="1" vertex="1">
          <mxGeometry x="2090" y="-20" width="1210" height="690" as="geometry" />
        </mxCell>
        <mxCell id="dReqOSm1kdml6KpYtbeG-34" value="" style="ellipse;whiteSpace=wrap;html=1;aspect=fixed;" parent="1" vertex="1">
          <mxGeometry x="2130" width="60" height="60" as="geometry" />
        </mxCell>
        <mxCell id="dReqOSm1kdml6KpYtbeG-35" value="Inboxes" style="rounded=0;whiteSpace=wrap;html=1;" parent="1" vertex="1">
          <mxGeometry x="3020" y="30" width="260" height="60" as="geometry" />
        </mxCell>
        <mxCell id="dReqOSm1kdml6KpYtbeG-36" value="" style="endArrow=none;html=1;rounded=0;entryX=0.75;entryY=0;entryDx=0;entryDy=0;exitX=0.75;exitY=1;exitDx=0;exitDy=0;" parent="1" source="dReqOSm1kdml6KpYtbeG-33" target="dReqOSm1kdml6KpYtbeG-33" edge="1">
          <mxGeometry width="50" height="50" relative="1" as="geometry">
            <mxPoint x="2970" y="-40" as="sourcePoint" />
            <mxPoint x="3020" y="-90" as="targetPoint" />
          </mxGeometry>
        </mxCell>
        <mxCell id="dReqOSm1kdml6KpYtbeG-37" value="Agent Bots" style="rounded=0;whiteSpace=wrap;html=1;" parent="1" vertex="1">
          <mxGeometry x="3020" y="120" width="260" height="60" as="geometry" />
        </mxCell>
        <mxCell id="dReqOSm1kdml6KpYtbeG-38" value="Knowledge Bases" style="rounded=0;whiteSpace=wrap;html=1;fillColor=#CECECE;" parent="1" vertex="1">
          <mxGeometry x="3020" y="210" width="260" height="60" as="geometry" />
        </mxCell>
        <mxCell id="dReqOSm1kdml6KpYtbeG-39" style="edgeStyle=orthogonalEdgeStyle;rounded=0;orthogonalLoop=1;jettySize=auto;html=1;entryX=0;entryY=0.877;entryDx=0;entryDy=0;entryPerimeter=0;" parent="1" source="dReqOSm1kdml6KpYtbeG-24" target="dReqOSm1kdml6KpYtbeG-27" edge="1">
          <mxGeometry relative="1" as="geometry" />
        </mxCell>
        <mxCell id="dReqOSm1kdml6KpYtbeG-40" value="type (SuperAdmin)" style="rounded=0;whiteSpace=wrap;html=1;fillColor=#FFCCCC;" parent="1" vertex="1">
          <mxGeometry x="1660" y="500" width="260" height="60" as="geometry" />
        </mxCell>
        <mxCell id="dReqOSm1kdml6KpYtbeG-41" value="" style="rounded=0;whiteSpace=wrap;html=1;" parent="1" vertex="1">
          <mxGeometry x="890" y="-30" width="720" height="80" as="geometry" />
        </mxCell>
        <mxCell id="dReqOSm1kdml6KpYtbeG-42" value="" style="rounded=0;whiteSpace=wrap;html=1;" parent="1" vertex="1">
          <mxGeometry x="890" y="70" width="720" height="80" as="geometry" />
        </mxCell>
        <mxCell id="dReqOSm1kdml6KpYtbeG-43" value="inbox.\&lt;div&gt;avatar_url&lt;/div&gt;" style="ellipse;whiteSpace=wrap;html=1;aspect=fixed;" parent="1" vertex="1">
          <mxGeometry x="905" y="-25" width="70" height="70" as="geometry" />
        </mxCell>
        <mxCell id="dReqOSm1kdml6KpYtbeG-44" value="inbox.name" style="rounded=0;whiteSpace=wrap;html=1;" parent="1" vertex="1">
          <mxGeometry x="990" y="-20" width="120" height="60" as="geometry" />
        </mxCell>
        <mxCell id="dReqOSm1kdml6KpYtbeG-45" value="settings icon" style="rounded=0;whiteSpace=wrap;html=1;" parent="1" vertex="1">
          <mxGeometry x="1540" y="-10" width="50" height="40" as="geometry" />
        </mxCell>
        <mxCell id="dReqOSm1kdml6KpYtbeG-46" value="inbox.\&lt;div&gt;avatar_url&lt;/div&gt;" style="ellipse;whiteSpace=wrap;html=1;aspect=fixed;" parent="1" vertex="1">
          <mxGeometry x="907.5" y="75" width="70" height="70" as="geometry" />
        </mxCell>
        <mxCell id="dReqOSm1kdml6KpYtbeG-47" value="inbox.name" style="rounded=0;whiteSpace=wrap;html=1;" parent="1" vertex="1">
          <mxGeometry x="992.5" y="80" width="120" height="60" as="geometry" />
        </mxCell>
        <mxCell id="dReqOSm1kdml6KpYtbeG-48" style="edgeStyle=orthogonalEdgeStyle;rounded=0;orthogonalLoop=1;jettySize=auto;html=1;entryX=0.5;entryY=0;entryDx=0;entryDy=0;" parent="1" source="dReqOSm1kdml6KpYtbeG-49" target="dReqOSm1kdml6KpYtbeG-51" edge="1">
          <mxGeometry relative="1" as="geometry" />
        </mxCell>
        <mxCell id="dReqOSm1kdml6KpYtbeG-49" value="settings icon" style="rounded=0;whiteSpace=wrap;html=1;" parent="1" vertex="1">
          <mxGeometry x="1542.5" y="90" width="50" height="40" as="geometry" />
        </mxCell>
        <mxCell id="dReqOSm1kdml6KpYtbeG-50" value="&lt;font style=&quot;font-size: 36px;&quot;&gt;...&lt;/font&gt;" style="text;html=1;align=center;verticalAlign=middle;whiteSpace=wrap;rounded=0;" parent="1" vertex="1">
          <mxGeometry x="1185" y="180" width="130" height="30" as="geometry" />
        </mxCell>
        <mxCell id="dReqOSm1kdml6KpYtbeG-51" value="" style="rounded=0;whiteSpace=wrap;html=1;movable=1;resizable=1;rotatable=1;deletable=1;editable=1;locked=0;connectable=1;" parent="1" vertex="1">
          <mxGeometry x="740" y="640" width="1210" height="690" as="geometry" />
        </mxCell>
        <mxCell id="dReqOSm1kdml6KpYtbeG-52" value="" style="ellipse;whiteSpace=wrap;html=1;aspect=fixed;" parent="1" vertex="1">
          <mxGeometry x="780" y="660" width="60" height="60" as="geometry" />
        </mxCell>
        <mxCell id="dReqOSm1kdml6KpYtbeG-53" value="Inboxes" style="rounded=0;whiteSpace=wrap;html=1;strokeColor=#000000;fillColor=#CECECE;" parent="1" vertex="1">
          <mxGeometry x="1670" y="690" width="260" height="60" as="geometry" />
        </mxCell>
        <mxCell id="dReqOSm1kdml6KpYtbeG-54" value="" style="endArrow=none;html=1;rounded=0;entryX=0.75;entryY=0;entryDx=0;entryDy=0;exitX=0.75;exitY=1;exitDx=0;exitDy=0;" parent="1" source="dReqOSm1kdml6KpYtbeG-51" target="dReqOSm1kdml6KpYtbeG-51" edge="1">
          <mxGeometry width="50" height="50" relative="1" as="geometry">
            <mxPoint x="1620" y="620" as="sourcePoint" />
            <mxPoint x="1670" y="570" as="targetPoint" />
          </mxGeometry>
        </mxCell>
        <mxCell id="dReqOSm1kdml6KpYtbeG-55" style="edgeStyle=orthogonalEdgeStyle;rounded=0;orthogonalLoop=1;jettySize=auto;html=1;exitX=1;exitY=0.5;exitDx=0;exitDy=0;entryX=1.003;entryY=0.563;entryDx=0;entryDy=0;entryPerimeter=0;" parent="1" source="dReqOSm1kdml6KpYtbeG-56" target="dReqOSm1kdml6KpYtbeG-56" edge="1">
          <mxGeometry relative="1" as="geometry">
            <mxPoint x="2220" y="790" as="targetPoint" />
          </mxGeometry>
        </mxCell>
        <mxCell id="dReqOSm1kdml6KpYtbeG-56" value="Agent Bots" style="rounded=0;whiteSpace=wrap;html=1;" parent="1" vertex="1">
          <mxGeometry x="1670" y="780" width="260" height="60" as="geometry" />
        </mxCell>
        <mxCell id="dReqOSm1kdml6KpYtbeG-57" value="Knowledge Bases" style="rounded=0;whiteSpace=wrap;html=1;" parent="1" vertex="1">
          <mxGeometry x="1670" y="870" width="260" height="60" as="geometry" />
        </mxCell>
        <mxCell id="dReqOSm1kdml6KpYtbeG-58" value="type (SuperAdmin)" style="rounded=0;whiteSpace=wrap;html=1;fillColor=#FFCCCC;" parent="1" vertex="1">
          <mxGeometry x="1670" y="1240" width="260" height="60" as="geometry" />
        </mxCell>
        <mxCell id="dReqOSm1kdml6KpYtbeG-59" value="" style="rounded=0;whiteSpace=wrap;html=1;" parent="1" vertex="1">
          <mxGeometry x="900" y="710" width="720" height="80" as="geometry" />
        </mxCell>
        <mxCell id="dReqOSm1kdml6KpYtbeG-60" value="" style="rounded=0;whiteSpace=wrap;html=1;" parent="1" vertex="1">
          <mxGeometry x="900" y="810" width="720" height="80" as="geometry" />
        </mxCell>
        <mxCell id="dReqOSm1kdml6KpYtbeG-61" value="inbox.\&lt;div&gt;avatar_url&lt;/div&gt;" style="ellipse;whiteSpace=wrap;html=1;aspect=fixed;" parent="1" vertex="1">
          <mxGeometry x="915" y="715" width="70" height="70" as="geometry" />
        </mxCell>
        <mxCell id="dReqOSm1kdml6KpYtbeG-62" value="inbox.name" style="rounded=0;whiteSpace=wrap;html=1;" parent="1" vertex="1">
          <mxGeometry x="1000" y="720" width="120" height="60" as="geometry" />
        </mxCell>
        <mxCell id="dReqOSm1kdml6KpYtbeG-63" value="settings icon" style="rounded=0;whiteSpace=wrap;html=1;" parent="1" vertex="1">
          <mxGeometry x="1550" y="730" width="50" height="40" as="geometry" />
        </mxCell>
        <mxCell id="dReqOSm1kdml6KpYtbeG-64" value="inbox.\&lt;div&gt;avatar_url&lt;/div&gt;" style="ellipse;whiteSpace=wrap;html=1;aspect=fixed;" parent="1" vertex="1">
          <mxGeometry x="917.5" y="815" width="70" height="70" as="geometry" />
        </mxCell>
        <mxCell id="dReqOSm1kdml6KpYtbeG-65" value="inbox.name" style="rounded=0;whiteSpace=wrap;html=1;" parent="1" vertex="1">
          <mxGeometry x="1002.5" y="820" width="120" height="60" as="geometry" />
        </mxCell>
        <mxCell id="dReqOSm1kdml6KpYtbeG-66" value="settings icon" style="rounded=0;whiteSpace=wrap;html=1;" parent="1" vertex="1">
          <mxGeometry x="1552.5" y="830" width="50" height="40" as="geometry" />
        </mxCell>
        <mxCell id="dReqOSm1kdml6KpYtbeG-67" value="&lt;font style=&quot;font-size: 36px;&quot;&gt;...&lt;/font&gt;" style="text;html=1;align=center;verticalAlign=middle;whiteSpace=wrap;rounded=0;" parent="1" vertex="1">
          <mxGeometry x="1195" y="920" width="130" height="30" as="geometry" />
        </mxCell>
        <mxCell id="dReqOSm1kdml6KpYtbeG-68" value="" style="rounded=1;whiteSpace=wrap;html=1;" parent="1" vertex="1">
          <mxGeometry x="975" y="807.5" width="547.5" height="355" as="geometry" />
        </mxCell>
        <mxCell id="dReqOSm1kdml6KpYtbeG-69" value="inbox.name" style="rounded=0;whiteSpace=wrap;html=1;" parent="1" vertex="1">
          <mxGeometry x="1010" y="830" width="120" height="60" as="geometry" />
        </mxCell>
        <mxCell id="dReqOSm1kdml6KpYtbeG-70" value="&lt;font style=&quot;font-size: 24px;&quot;&gt;Select an agent bot&lt;/font&gt;&lt;div&gt;&lt;br&gt;&lt;/div&gt;&lt;div&gt;&lt;span style=&quot;color: rgb(185, 187, 198); font-family: Inter, -apple-system, system-ui, BlinkMacSystemFont, &amp;quot;Segoe UI&amp;quot;, Roboto, &amp;quot;Helvetica Neue&amp;quot;, Tahoma, Arial, sans-serif; font-size: 14px; text-align: start; background-color: rgb(39, 42, 45);&quot;&gt;Assign an Agent Bot to your inbox. They can handle initial conversations and transfer them to a live agent when necessary.&lt;/span&gt;&lt;/div&gt;" style="rounded=0;whiteSpace=wrap;html=1;" parent="1" vertex="1">
          <mxGeometry x="1010" y="910" width="490" height="95" as="geometry" />
        </mxCell>
        <mxCell id="dReqOSm1kdml6KpYtbeG-71" value="" style="shape=image;verticalLabelPosition=bottom;labelBackgroundColor=default;verticalAlign=top;aspect=fixed;imageAspect=0;image=data:image/png,iVBORw0KGgoAAAANSUhEUgAAAWoAAACMCAYAAABVsuPIAAAAAXNSR0IArs4c6QAAAARnQU1BAACxjwv8YQUAAAAJcEhZcwAAEnQAABJ0Ad5mH3gAABljSURBVHhe7d0LfExn3gfwX9pcxURiJJELkpCQhBApCUKkRLFaXkrZt9bWdu32ZqtV3dfbftRuX2/7blf3Ur1ol4/VrqqiWh+0qFWXutSlcYkGSRCJIKiQyKX1/p9zzugkcpmMJE7a3/fzGTPnOc+cM3Oc+Z3nPOfJjEvnmG7XQUREpnWHcU9ERCbFoCYiMjkGNRGRyTGoiYhMjkFNRGRyDGoiIpNjUBMRmRyDmojI5BjUREQmx6AmIjK5BvkT8oCAtvBr3QYWiwVubu5GKRER2SsvL0NRUREuXjiPs2fPGKV1u6Wg9vZuifDwTigpKUZO1nFcKDyL0tJSYy4REdnz8PBAa2sAwiI6wsurBbKzj+Hq1SvG3Jo5HdQqpKNjuuHwga+RIysjIiLHhUkjN6Zbd2QcPlBnWDvdR61a0gxpIiLnqOxUGaqytC5OBbXqk9a6OxjSREROUxmqslRlam2cCmp14VD1SRMR0a1RWaoytTZOBbUa3aEuHBIR0a1RWaoytTZOBbUagsfRHUREt05laV3Dmp2+mEhERE2DQU1EZHIMaiIik2NQExGZHIOaiMjkGNRERCbHoCYiMjkGNRGRyTGoiYhMjkFNRGRyDGoiIpNrmqAeMRuLPlyFFXOnGAWN7+G5sr4P38WsEUYBEVEz1TRB7RuC8E4RCI8IMQoaX0iErE/WGexrFBARNQAXF8di09F6jmDXBxFRPVgsLTHxF7+s86bqNZRGD+q3thzAvumJ0L5tNWw09u2X6S3vYKI2V9dlwstYsWmPPk/dvtqODe+9jAfaGxXshIx7GUs+tasrty/WvI6HY40KL6zSykaFqQkLek/X66x4QZtLRHRLLl++jP379hpT1VPzVb2G0uhBnXcsC9kni/SJ4vPIVtPHTuO8XoJkCdZFzw5HuCR5YY6al4XTRRZYY4fj94sk0O3DetTrWDRzOLoESt1jO7Fx9QbsyimCJbg/HnvNCP88fRmFxdozUHRSn87K06eJiG7VgQPpuHDhgjFVmSpX8xtSowf17IdGYvQHh6FF9dkvMPp+mX5oFtaq6fbT8djwCLiXZWHt8yMxeJTMk/kjUsdi3j55hl8iJj09WtXUTPxZD1jl/sgSqXv/w5j+3DT8ZtQ4zN0tdV07ovevZOb8adoytmg/QFOEjA/0ZU6fr6aJiBpGTa3qulrbzritfdQhk/uji7u0jre+gplrc41S5QjeeWsLTssja9xwPKAXwt+nup+rycXiX/dFfP9UPPEPo4iIqJGdPp2LY8eOGlM6Na3KG9ptDepRHUPl3zJc9hiBOS++XPk2woIy1X3h548uWm1g6e4jUlv1aa/Chvdex6wnJiDZ1jdNRNTEVOu5oqJce6zuG6M1rdzWoG5jUb8T5o7wfsMxbETVW3+Et9Dr2Zx+ZRpe+OBrFBa7wxrbH6N+NRN/f+8A9m1ahb9P62/UIiJqGiUlJdhnhLO6V9ON4bYGdZH2+7hFSF/0LGY+V9PtFSzVaiu5WDvnQQzu2w0TfjcH76zYgvQ81ZcdgeRJL+OtB41qRERN5EhGBs4WFGj3jeW2BnXGGTX2wwJrQCHWrl5Tw20LjujVKzmyeQnm/eFRTBreF098ri8nOmWSPpOIqAlt2rTReNQ4bmtQr12yS7tgGJL8xA/joA0h417Hhl178MV7MzFIK5mAv6vx07uW4ffVjK/WfKd6sImImlZZWeNmj0vnmG7XjccO69M3BauWLzGmHDEdS76ahC6uRcjetgVZxeew8ZlXtCF6E+dtwlP92sg7PY8ju3ch+6IU+nVBcmIELK5lyF7xKEb/Yae2lIlvbsdTSRagKAtbNx/Rhvy5h8Shf3wo3HEeW19IxRMfaVUx7K+bMCelDcoKvsaW3ZdRdPJRzOYQPSIyoZFjJuDL7ZuNqZvd2cY/sN5/s9euXRi+yThoTDliOwq8+yGxa3sEh0UioqME6Jr3sPFbIH3NRlwK7YvukSEIkXmRUXJr7wePivNIX/4ipr/4b30MtkhfnQnvhO6IDu+AcFVPbhFBPrhTgnvtX57E9A9tf0YDHDtchsg+iYgMDUFEVAeEoBgLP/namEtEZB5dYroh99QJY+pmTdSitglF77Q4WC6lY+PuqmMN9XlWD3lYWoj09Tu1bpFqtU/EoDirtKKFCmlpXdcotj+GhQPZNfR1ExHdbnW1qJs4qImIqKq6gvq2XkwkIqK6MaiJiEyOQU1EZHIMaiIik2NQExGZHIOaiMjkGNRERCbHoCYiMjmngrq8vAweHupPCImI6FaoLFWZWhungrqoqAitrQHGFBEROUtlqcrU2jgV1BcvnEdYREdjioiInKWyVGVqbZwK6rNnz8DLqwXCwjsZJUREVF8qQ1WWqkytjdMXE7OzjyGmW3eGNRGRE1R2qgxVWVoXp749z8bbuyXCZWUlJcXIyTqOC4VnUVqq/RAiERFVoS4cqj5p1d2hWtIqpK9evWLMrdktBbVNQEBb+LVuA4vFAjc37VuiiYioCjW6Q104VH3SdXV32GuQoCYiosbjdB81ERE1DQY1EZHJMaiJiEyOQU1EZHIMaiIik2NQExGZHIOaiMjkGNRERCbHoCYiMjkGNRGRyTGoiYhMjkFNRGRyDGoiIpNjUBMRmRyDmojI5BjUREQmx6AmIjI5BjURkckxqImITO6WfzPRI3YkPGPvhWvbrnBxb2GUkiOulxWj4sxBXDv0CUoPrTJKnRMGF7ST+9YuLnDVi4gcViG3C9ev45Tc54A/o2o2Tge1i6sHLPe+AveOKUYJ3Yqy45tR9Ml0XK8oNUoco06JkiSkgySgiRpCvgT2Dgnr741puv2c7vpgSDcstS3VNq0vhjQ1NLU/qf2KzMOpoFbdHQzphqe2qdq2jlLdHQxpagxqv1L7F5mDU0Gt+qSpcdRn26o+aaLGwv3LPJwKanXhkBpHfbatunBI1Fi4f5mHU0HN0R2Npz7blqM7qDFx/zIPpy8mEhFR02BQExGZHIOaiMjkGNRERCbHoCYiMjkGNRGRyTGoiYhMjkFNRGRyDGqiH7k//u1V4xE1VwxqIiKTY1ATEZkcg5oc4ucTiDh/L2OKiJqSU7/w0mZ6uvGonqKBZQmAtRR4bRmwwii296exQIIHsPpdYK5R1hAWPAiE1bJeMzn/SpzxqHZjXJw7zo747RwkhBsThoorhSjKP4rDn63HhpMlRqnBdzie+kMa/FCCkwtn4u19RjndutQpmDU0DEV7FmLuB0eNwoal+qifnzrNmKqf5df5Oy9m0LQtalmbxQ1wd5ebUVSVNk/VMaYbirbMWtZbk9GDgc8l5JfJ/Y+Fq5fXTTdP/1D4x6UiZfoczHg4CVFGXc2lbJwrlPvSXJzL1ouodupgOOvlOXgk1SioiVsLbft7eTXsd9U5vH5qFtj1UQd3+fyokLf8CL/z8dzqaVpLS7s9+yI2rE5HkZx1WOIewNhJ0dKCtsnA4tlS55nX8dElo4hqZTsAusm+czvc7vVTw7qzjX/gC8Zjh7Xo+4jxqJ4CgAdDJPi+A3YdAA4axfaGyVl/8J1A5n5gqyroCLyZAowPBlYUAbMGAr+OlZZuBGCV5ey9qD2tkrR4YEaSPKcLMETWmXkCSJEy3yrrDQoCHk8GfttVlqfqyjog68gs1uf/fjgwyFcPaRXWd3cCEjylhX1Gnw8feS2JsgxZ9thqnu+s4u1vGI9qF+PkF7t36TMUwZLCxZmfYudxo7CiBCeO78e2/R6ITwmHJTgUrQ5sxcHLamYoRj00GUMGhsBzRwZkc+rcAjF45DiMGDoQiUlJ6Nm5NXzP5SCrqPLpsl9wT9w7+l4MTu0v9eIQ63MZBccvqE1VmVre0NG452d3o6+2PAvuzMzCafUT2TbxYzB1/D2IKN2B03ckYex/3o+BydXVNV5zvBdK9hcgbMREjBmuXmc0IsrzcTr/Kq4ZNW2COydj1H+MxsABSUjsEYmg4hwUnCu9qV7t7ycOE56cgIggX3jIPuPRKhrdE6IRlLsfR7RtWUXHJNwd5YuK/D04eK5TLe/HxguJyWMwfHQakmUbJXYNgOVMlt02v3n9d7T0lf/LT6tffx0y+IvkpmD+oJbwe1wCMkDa/skS0L0tErhecmsJ9AiTMndg1WntqZqnRgKPhEt9VUduAa0lbGUZ30l9i916+0iQv9oH6KqWJ8toIQEcJOGVrNZ1QdYtO/XY3kCUh75c9S3qanm4IgeMk3LfDlgwRJbtLwcMqWP//HYS1JtlGc66LUFtU/wNvNulICzAF57XD2HbIfXpDkHf+wchpO11XFy7A0dUPd9kPPLcFHTrHAjvlt7wsFjQql0kwvr2ROjJL5B+TlWS7ZfyKH45JRUhwf7w9vOVmz/8onqhV29flG0/hFO2fPGX5f2XLC8mCBatnq8cLCIRNagXwnO/xL6zRsW4ezAisQPwvS+Sxw1FoL9d3QEd4PHvPTimVTVec+vv0SJuDBLvCjbWHwj/Hsno2uIItmV8qy1SjhDoN24Gxt7fC/6BUqeFN7yDQhF8VyriQ84hd28+bCcSdb+fONz9817wM1qyKiS9/bxQeuDf2Gdsk0psQX3VBz1GDkBwpfcTj7an5WBpe55bNCb+1zT0kfffSlu33ALDEZY8EN2+2yv/l+raws3rV0olqKtdfx0Y1ObQfLo+pPUaLOE3e7mE4UJgrjTryqQ4Slqyj8s8JUiCdYQEMySQN+/Q643dDOS0knl6lRvGS5hLduPgIanzT2ktLwLeLpACOUgMlAOC8rv3gNfy9cdX5F4t70Ht6CGt7V6ybgn4fHkdk+W56vmzJfTK5PlpCfI69GrN0oacs9q9CouaxA0ZiGDZgNfSF+KNp2dg9jMzsHj1CVTc4YOIAal6t4lvGobeFwlPXMbJ91/CXNXF8vRLSM8ul6NbEgZPsl009cGoB+/Tl3dwKZY9rbpjZmDZOrU8K8In/RpDjeCx8Y+PxFljmXNfWoqTKkk9ohEz3NgZbHyi0c59K1Y/q5Y5E6s35UI1Ui2978GNyw4x46UVGwjXSxnY9tIMPC/v5flnFyJblukZNx5Dk42VO/R+1uNvUr7H6MvXu5dmYcFhfbomnpFhqNj0Ot4wlrlNncp4BCJmzBjI7qTp9/PxiAp0Q0XuJuP9TMMbC/dKi98N/iMewUTtAvHN61fqWj+ZW/MJavksLF8tu6Fx+rbic+BLad2qYO0pYa1MkpazuliowvO/M/Sy/CwJ0KN6qNv73RIJ6E9k3i6pY5QtOqU1mNGyrl/D6gj0lfDHVTlgyOvI1Eux/gvjNUnLOy1aL2uWcgv1032XmjvmLV56eJUXl8A2RiTzs79gtgTs7Dc3QfVIxQ1JhL9Uq0hfjre3F2hlKC/AsoUf4/D2j7FtY44e6KFpiAqXilfSsXX+DqTL/7X6D09fMw97jsqEh7QuUysndcXhNTeWeTFvBz7ckauV+4VWHTFTgMz5H2On9iJLsHPlGpxS+5BXAKTRrBma2k3CtwR5axZiXZ62cqmajgWfZEiou0nLOlkrcvj9OCNvK1auPIo89ViWuW7+KmiDb/zl4KO9zmTExamDUC4O33g/8rR9i7Fuu7rSa0X7Ac15p6PaNJ+gLpYWr/HQ5oDRyRmsWtEiyFu/zzuv39vkfyVlxmN7FgnUCQOAN0cB744DPu+pt7Lr1BbQVikf2sfUc+1uUUa2Wa36fbMUZJXgqt223Ye1MLckPYqn5jyHqQ8/gLHJ0VB5axMRrG+Ei9lVhnNe2ool72/ChuzLeth1bgeLuj+bAzkBslOObcfVaY6sJ6iTdm9TUWo7POguVshplOKu+qfsXUNJtRdA3eCmNb4jESytVMXS5zFMffLJH279jB2rTSj6yZ3D78cJ1/KPovKAmr04p10LscIvRu4iQ9BavcxLufrZg509B09o/xeerY0jD/3o/GRHfTx1r5wOyrnvaGkdd5UPbBspy5EPQNWWd7VsXcMSyup03f5mlRZ+mTTKyozcaI76hertwmsFOdp9tQ4vxcJ5a5CdXYgKDyv845IQN24KJv/pOUzuZXQ/aNvpMq7oWVsz2WZKRbGtz/gHtgB2bbThC/KfqH0KvODVNgB+QfY3eR8lJagoKda6Sxx+P43BzRhYKmcweseUHVs/v2yj9sZD+nFp2qA+BGiNXdnnOqsRElVJWbCxP95EPsy2vjob25A5NaRMuWKkrEfVZUgYG9GhiwWGqGSW+ovWyUnlP+X09wNg8jEHg/qqUU9y5e53q79N/lKr2fy49URMZ7W1JBAyav8DjLxv1mPBqy9i9tPT8MYfF0rLTk7BVZ/yyJFaC/TKVdXq9YFvx0pbX7jduNiluagHoau0CKv8HQ76qSu0okICqnGcRonqrpIAPvXOTMx+tprb/yzHTqnh8PtxgqtH1TMBH3hpF7JLUKKa6Xnf6l1Mfm3V7lyJX6hxBlRWAnWdm358mrxFfdToY05JAtLs93d5PEvKtIt+EoDrtUI70lr9RTfjsdJOwtboXsjRuyfxpXFK2DUC6KM/1IyPNLoqbHz1Lo4yWc/btg5qMUIOFKq8TsdlnaoV00pes7wOe2pI35tp+nDC5sbPpycmzhiP9rIRKrI3YXONf4HohZQxUzD1+UcxVh9UgLxz6fho4V791N9HWthyt+cbo984QYLbLsj8ej2EqX9+FbOm3wd1Vo/9h3FWdQ0HJyC1q13Fehw0nHcZmTmqj9cHQX3tx46r1zkGU387ERN66V0KDr8fJ7h2TsVYtdEMfl1HIkLtQ+W5yN8v95e+1v/oyKsTYmw7vsaKoT07aI8uHtuj3dOPT9MOzxOb5dAwStK4pTQgBnYBhkkTaqTcT+kBRKtGhZzprt4GLDMC3X5IXxvZcdNkupvsl493l1BX3QySDK9u1y8IZl6T1qwsTw2jGyjhHCWt5mHxwBhJ6TJZ752yDG14ntwP6yT1vKW+fDjCZJkj4oBxbaWOOr2VFvoC42LkQXnuZJnvLq2b7jI/UXJj8wl5mfK8ZAmpjvJakmV+D/ksj75L1iufoQBp0e+SFnV1ww8d0VTD87w7pGDA4EEYmKZu96DfPfGwtpSNWrgXn/91JfbeGMPrj/i7E+Dn8S3yteF5FQiNvw/d5bQoMKEjQj390TkyGv3uH4C28vyKbzbig90ncfFEFlp16YPgoFCE3dUB7b0DEdv3ZxgypBPcXcpx5tO3sPakHPG+PylxGY3YqEBYu/ZEF2tLhEcmYfAEeZ0WOWhkrcXKj3L0IXJ24463fG13McIox6Wj2LQjSwqqvmYbW3kpLn2lD5nL/+Z7dBkYA792CYjvEoBQadlHJ6RiUJrUC5KdKGc9dmaX4pqj70e4t++F2PYt4GGVekFhiLiUUes4alR4IbBfAjq19EHHHmp0SVd4yn/vtd3L8Q/tfX6LU4UBiE8IRauoXogP8EZoSA+k/HwsIgLl/+zSDmx+ay9O6UuttP47WvhzHHUz1+QtatX98Zst0jpRp5uydnVmGya3lvK4TMre3wq8ZNvb7Mm8+ael0SWBmBamh/QVCenXPpdlGVXUFcNndsnnqkx2VGkVpsg5Yh8J1i+lZVjpYqJMzJUgviKfqTAVsNFSVz6PakiTdhZsT5a3Qn1OJHzlM4I+EtbK6g2yDGlZX5EPU5R6TbKuBFmX7T28r1czNzndtv0Fm6sc3CoKC3Dys/lYMGcxNtfR07DtX3/DzsPyyfeJRNTQNMQNTUX7QAmWo+uxbv5W46JaIT56bR7S5TTK1Rqt1YtJ6ADP7y4jb9WfZTsZIyxE5mfzsG7dUVxzsyK4rywvtSf8fcpx7fDHWDlvU5ULbQ2sfCve+L+lyM4rh2e4tOLV+5HWteWOyzi3bh4Wb7QlnOPvJ33lcmTK8rR6fZMREVd738i1gyuw87gX2qeqdUfC845yXNyzFMv+ZbQYxMWDi2VazlpKvaRVnyrbPAnBVjdU5O3Ahv9dCmnf3GC/fqWu9ZO5Ne2XMlUlwZYiLVPVpXxBWjZ7qjvixwLrekuQfystV/VtShKoaa0kIGX6yyqjO+xFtQM6yIJPSJjahs9Vp48ErOruqKue9lqldZ2Z88NwPpsEOXC0VgeOOl6Toxr7S5kalJsPYgJ94IpyFBUUQA0prpaXFXFWORp8fxmn8mobHeElBz7V51rH8hqLo6+zPvVaFiP9nGN97OpbCtvJvlb7e3dDeHCgHEgk4AtzkVnbomX9f3z5OW3MtTP4pUzmcHuD2hFVg/onoFkFNZkevz2v+eMnnYjI5Mwf1NeAHDmvVGOciYh+iszf9fETxK4PMgt2fZgDP+lERCbHoCYiMjkGNRGRyTGoiYhMjkFNRGRyDGoiIpNjUBMRmZxTQX297BZ/ZptqVJ9te9MPVBM1IO5f5uFUUFeccfYLPKku9dm2F67zKyip8XD/Mg+ngvraoU+MR9TQ6rNtq/s2WKKGwv3LPJwK6tJDq1B2vPLPkNKtU9tUbVtH5eA68tnqoUag9iu1f5E5OH0xseiT6QzrBqS2pdqm9bWDYU0NTO1Par8i83DqS5nsecSOhGfsvXBt2xUu7i2MUnKEunCo+qRVd0d9WtLVCYOL+hlJtHZxUb+rTVQv6sKh6pNW3R1sSZvPLQc1ERE1Lqe7PoiIqGkwqImITI5BTURkcgxqIiKTY1ATEZkcg5qIyOQY1EREJsegJiIyNeD/ATBRSBYetbPRAAAAAElFTkSuQmCC;" parent="1" vertex="1">
          <mxGeometry x="1069" y="1010" width="362" height="140" as="geometry" />
        </mxCell>
        <mxCell id="dReqOSm1kdml6KpYtbeG-72" value="" style="rounded=0;whiteSpace=wrap;html=1;" parent="1" vertex="1">
          <mxGeometry x="2230" y="-690" width="720" height="80" as="geometry" />
        </mxCell>
        <mxCell id="dReqOSm1kdml6KpYtbeG-73" value="" style="rounded=0;whiteSpace=wrap;html=1;" parent="1" vertex="1">
          <mxGeometry x="2230" y="-590" width="720" height="80" as="geometry" />
        </mxCell>
        <mxCell id="dReqOSm1kdml6KpYtbeG-74" value="" style="ellipse;whiteSpace=wrap;html=1;aspect=fixed;" parent="1" vertex="1">
          <mxGeometry x="2245" y="-685" width="70" height="70" as="geometry" />
        </mxCell>
        <mxCell id="dReqOSm1kdml6KpYtbeG-75" value="bot.name" style="rounded=0;whiteSpace=wrap;html=1;" parent="1" vertex="1">
          <mxGeometry x="2330" y="-680" width="120" height="60" as="geometry" />
        </mxCell>
        <mxCell id="dReqOSm1kdml6KpYtbeG-76" style="edgeStyle=orthogonalEdgeStyle;rounded=0;orthogonalLoop=1;jettySize=auto;html=1;entryX=0.5;entryY=1;entryDx=0;entryDy=0;" parent="1" source="dReqOSm1kdml6KpYtbeG-77" target="dReqOSm1kdml6KpYtbeG-86" edge="1">
          <mxGeometry relative="1" as="geometry" />
        </mxCell>
        <mxCell id="dReqOSm1kdml6KpYtbeG-77" value="settings icon" style="rounded=0;whiteSpace=wrap;html=1;" parent="1" vertex="1">
          <mxGeometry x="2880" y="-670" width="50" height="40" as="geometry" />
        </mxCell>
        <mxCell id="dReqOSm1kdml6KpYtbeG-78" value="" style="ellipse;whiteSpace=wrap;html=1;aspect=fixed;" parent="1" vertex="1">
          <mxGeometry x="2247.5" y="-585" width="70" height="70" as="geometry" />
        </mxCell>
        <mxCell id="dReqOSm1kdml6KpYtbeG-79" value="bot.name" style="rounded=0;whiteSpace=wrap;html=1;" parent="1" vertex="1">
          <mxGeometry x="2332.5" y="-580" width="120" height="60" as="geometry" />
        </mxCell>
        <mxCell id="dReqOSm1kdml6KpYtbeG-80" value="settings icon" style="rounded=0;whiteSpace=wrap;html=1;" parent="1" vertex="1">
          <mxGeometry x="2882.5" y="-570" width="50" height="40" as="geometry" />
        </mxCell>
        <mxCell id="dReqOSm1kdml6KpYtbeG-81" value="&lt;font style=&quot;font-size: 36px;&quot;&gt;...&lt;/font&gt;" style="text;html=1;align=center;verticalAlign=middle;whiteSpace=wrap;rounded=0;" parent="1" vertex="1">
          <mxGeometry x="2525" y="-480" width="130" height="30" as="geometry" />
        </mxCell>
        <mxCell id="dReqOSm1kdml6KpYtbeG-82" value="delete" style="rounded=0;whiteSpace=wrap;html=1;" parent="1" vertex="1">
          <mxGeometry x="2820" y="-670" width="50" height="40" as="geometry" />
        </mxCell>
        <mxCell id="dReqOSm1kdml6KpYtbeG-83" value="delete" style="rounded=0;whiteSpace=wrap;html=1;" parent="1" vertex="1">
          <mxGeometry x="2820" y="-570" width="50" height="40" as="geometry" />
        </mxCell>
        <mxCell id="dReqOSm1kdml6KpYtbeG-84" value="http://79.132.193.60:9001/assets/administrate/bot/avatar.png" style="text;" parent="1" vertex="1">
          <mxGeometry x="2245" y="-745" width="325" height="60" as="geometry" />
        </mxCell>
        <mxCell id="dReqOSm1kdml6KpYtbeG-85" value="" style="endArrow=classic;html=1;rounded=0;" parent="1" edge="1">
          <mxGeometry width="50" height="50" relative="1" as="geometry">
            <mxPoint x="2282.5" y="-670" as="sourcePoint" />
            <mxPoint x="2332.5" y="-720" as="targetPoint" />
          </mxGeometry>
        </mxCell>
        <mxCell id="dReqOSm1kdml6KpYtbeG-86" value="" style="rounded=0;whiteSpace=wrap;html=1;movable=1;resizable=1;rotatable=1;deletable=1;editable=1;locked=0;connectable=1;" parent="1" vertex="1">
          <mxGeometry x="2090" y="-1530" width="1210" height="690" as="geometry" />
        </mxCell>
        <mxCell id="dReqOSm1kdml6KpYtbeG-87" value="" style="ellipse;whiteSpace=wrap;html=1;aspect=fixed;" parent="1" vertex="1">
          <mxGeometry x="2130" y="-1510" width="60" height="60" as="geometry" />
        </mxCell>
        <mxCell id="dReqOSm1kdml6KpYtbeG-88" value="Inboxes" style="rounded=0;whiteSpace=wrap;html=1;" parent="1" vertex="1">
          <mxGeometry x="3020" y="-1480" width="260" height="60" as="geometry" />
        </mxCell>
        <mxCell id="dReqOSm1kdml6KpYtbeG-89" value="" style="endArrow=none;html=1;rounded=0;entryX=0.75;entryY=0;entryDx=0;entryDy=0;exitX=0.75;exitY=1;exitDx=0;exitDy=0;" parent="1" source="dReqOSm1kdml6KpYtbeG-86" target="dReqOSm1kdml6KpYtbeG-86" edge="1">
          <mxGeometry width="50" height="50" relative="1" as="geometry">
            <mxPoint x="2970" y="-1550" as="sourcePoint" />
            <mxPoint x="3020" y="-1600" as="targetPoint" />
          </mxGeometry>
        </mxCell>
        <mxCell id="dReqOSm1kdml6KpYtbeG-90" value="Agent Bots" style="rounded=0;whiteSpace=wrap;html=1;fillColor=#CECECE;" parent="1" vertex="1">
          <mxGeometry x="3020" y="-1390" width="260" height="60" as="geometry" />
        </mxCell>
        <mxCell id="dReqOSm1kdml6KpYtbeG-91" value="Knowledge Bases" style="rounded=0;whiteSpace=wrap;html=1;" parent="1" vertex="1">
          <mxGeometry x="3020" y="-1300" width="260" height="60" as="geometry" />
        </mxCell>
        <mxCell id="dReqOSm1kdml6KpYtbeG-92" value="" style="rounded=0;whiteSpace=wrap;html=1;" parent="1" vertex="1">
          <mxGeometry x="2230" y="-1440" width="720" height="560" as="geometry" />
        </mxCell>
        <mxCell id="dReqOSm1kdml6KpYtbeG-93" value="bot.name" style="rounded=0;whiteSpace=wrap;html=1;" parent="1" vertex="1">
          <mxGeometry x="2830" y="-1510" width="120" height="60" as="geometry" />
        </mxCell>
        <mxCell id="dReqOSm1kdml6KpYtbeG-94" value="Assistant Settings" style="rounded=0;whiteSpace=wrap;html=1;fillColor=#ffe6cc;strokeColor=#d79b00;" parent="1" vertex="1">
          <mxGeometry x="2830" y="-1440" width="120" height="60" as="geometry" />
        </mxCell>
        <mxCell id="dReqOSm1kdml6KpYtbeG-95" value="" style="endArrow=none;html=1;rounded=0;entryX=0;entryY=1;entryDx=0;entryDy=0;exitX=-0.002;exitY=0.108;exitDx=0;exitDy=0;exitPerimeter=0;" parent="1" source="dReqOSm1kdml6KpYtbeG-92" target="dReqOSm1kdml6KpYtbeG-94" edge="1">
          <mxGeometry width="50" height="50" relative="1" as="geometry">
            <mxPoint x="2690" y="-1290" as="sourcePoint" />
            <mxPoint x="2740" y="-1340" as="targetPoint" />
          </mxGeometry>
        </mxCell>
        <mxCell id="dReqOSm1kdml6KpYtbeG-96" value="save" style="rounded=0;whiteSpace=wrap;html=1;" parent="1" vertex="1">
          <mxGeometry x="2840" y="-920" width="80" height="30" as="geometry" />
        </mxCell>
        <mxCell id="dReqOSm1kdml6KpYtbeG-97" value="Model Settings" style="rounded=0;whiteSpace=wrap;html=1;" parent="1" vertex="1">
          <mxGeometry x="2710" y="-1440" width="120" height="60" as="geometry" />
        </mxCell>
        <mxCell id="dReqOSm1kdml6KpYtbeG-98" value="" style="rounded=0;whiteSpace=wrap;html=1;movable=1;resizable=1;rotatable=1;deletable=1;editable=1;locked=0;connectable=1;" parent="1" vertex="1">
          <mxGeometry x="2090" y="-2270" width="1210" height="690" as="geometry" />
        </mxCell>
        <mxCell id="dReqOSm1kdml6KpYtbeG-99" value="" style="ellipse;whiteSpace=wrap;html=1;aspect=fixed;" parent="1" vertex="1">
          <mxGeometry x="2130" y="-2250" width="60" height="60" as="geometry" />
        </mxCell>
        <mxCell id="dReqOSm1kdml6KpYtbeG-100" value="Inboxes" style="rounded=0;whiteSpace=wrap;html=1;" parent="1" vertex="1">
          <mxGeometry x="3020" y="-2220" width="260" height="60" as="geometry" />
        </mxCell>
        <mxCell id="dReqOSm1kdml6KpYtbeG-101" value="" style="endArrow=none;html=1;rounded=0;entryX=0.75;entryY=0;entryDx=0;entryDy=0;exitX=0.75;exitY=1;exitDx=0;exitDy=0;" parent="1" source="dReqOSm1kdml6KpYtbeG-98" target="dReqOSm1kdml6KpYtbeG-98" edge="1">
          <mxGeometry width="50" height="50" relative="1" as="geometry">
            <mxPoint x="2970" y="-2290" as="sourcePoint" />
            <mxPoint x="3020" y="-2340" as="targetPoint" />
          </mxGeometry>
        </mxCell>
        <mxCell id="dReqOSm1kdml6KpYtbeG-102" value="Agent Bots" style="rounded=0;whiteSpace=wrap;html=1;fillColor=#CECECE;" parent="1" vertex="1">
          <mxGeometry x="3020" y="-2130" width="260" height="60" as="geometry" />
        </mxCell>
        <mxCell id="dReqOSm1kdml6KpYtbeG-103" value="Knowledge Bases" style="rounded=0;whiteSpace=wrap;html=1;" parent="1" vertex="1">
          <mxGeometry x="3020" y="-2040" width="260" height="60" as="geometry" />
        </mxCell>
        <mxCell id="dReqOSm1kdml6KpYtbeG-104" value="" style="rounded=0;whiteSpace=wrap;html=1;" parent="1" vertex="1">
          <mxGeometry x="2230" y="-2180" width="720" height="560" as="geometry" />
        </mxCell>
        <mxCell id="dReqOSm1kdml6KpYtbeG-105" value="bot.name" style="rounded=0;whiteSpace=wrap;html=1;" parent="1" vertex="1">
          <mxGeometry x="2830" y="-2250" width="120" height="60" as="geometry" />
        </mxCell>
        <mxCell id="dReqOSm1kdml6KpYtbeG-106" value="Assistant Settings" style="rounded=0;whiteSpace=wrap;html=1;" parent="1" vertex="1">
          <mxGeometry x="2830" y="-2180" width="120" height="60" as="geometry" />
        </mxCell>
        <mxCell id="dReqOSm1kdml6KpYtbeG-107" value="" style="endArrow=none;html=1;rounded=0;entryX=0;entryY=1;entryDx=0;entryDy=0;exitX=-0.002;exitY=0.108;exitDx=0;exitDy=0;exitPerimeter=0;" parent="1" source="dReqOSm1kdml6KpYtbeG-104" target="dReqOSm1kdml6KpYtbeG-106" edge="1">
          <mxGeometry width="50" height="50" relative="1" as="geometry">
            <mxPoint x="2690" y="-2030" as="sourcePoint" />
            <mxPoint x="2740" y="-2080" as="targetPoint" />
          </mxGeometry>
        </mxCell>
        <mxCell id="dReqOSm1kdml6KpYtbeG-108" value="&lt;div&gt;&lt;br&gt;&lt;/div&gt;Model Settings" style="rounded=0;whiteSpace=wrap;html=1;fillColor=#ffe6cc;strokeColor=#d79b00;" parent="1" vertex="1">
          <mxGeometry x="2710" y="-2180" width="120" height="60" as="geometry" />
        </mxCell>
        <mxCell id="dReqOSm1kdml6KpYtbeG-109" value="ADD BOT" style="rounded=0;whiteSpace=wrap;html=1;" parent="1" vertex="1">
          <mxGeometry x="2870" y="-450" width="80" height="30" as="geometry" />
        </mxCell>
        <mxCell id="dReqOSm1kdml6KpYtbeG-110" value="CANCEL" style="rounded=0;whiteSpace=wrap;html=1;" parent="1" vertex="1">
          <mxGeometry x="2750" y="-920" width="80" height="30" as="geometry" />
        </mxCell>
        <mxCell id="dReqOSm1kdml6KpYtbeG-111" value="" style="rounded=0;whiteSpace=wrap;html=1;" parent="1" vertex="1">
          <mxGeometry x="2230" y="50" width="720" height="80" as="geometry" />
        </mxCell>
        <mxCell id="dReqOSm1kdml6KpYtbeG-112" value="" style="rounded=0;whiteSpace=wrap;html=1;" parent="1" vertex="1">
          <mxGeometry x="2230" y="150" width="720" height="80" as="geometry" />
        </mxCell>
        <mxCell id="dReqOSm1kdml6KpYtbeG-113" value="kb.name" style="rounded=0;whiteSpace=wrap;html=1;" parent="1" vertex="1">
          <mxGeometry x="2256.25" y="60" width="120" height="30" as="geometry" />
        </mxCell>
        <mxCell id="dReqOSm1kdml6KpYtbeG-114" value="settings icon" style="rounded=0;whiteSpace=wrap;html=1;" parent="1" vertex="1">
          <mxGeometry x="2880" y="70" width="50" height="40" as="geometry" />
        </mxCell>
        <mxCell id="dReqOSm1kdml6KpYtbeG-115" value="kb.name" style="rounded=0;whiteSpace=wrap;html=1;" parent="1" vertex="1">
          <mxGeometry x="2256.25" y="160" width="120" height="30" as="geometry" />
        </mxCell>
        <mxCell id="dReqOSm1kdml6KpYtbeG-116" value="settings icon" style="rounded=0;whiteSpace=wrap;html=1;" parent="1" vertex="1">
          <mxGeometry x="2882.5" y="170" width="50" height="40" as="geometry" />
        </mxCell>
        <mxCell id="dReqOSm1kdml6KpYtbeG-117" value="delete" style="rounded=0;whiteSpace=wrap;html=1;" parent="1" vertex="1">
          <mxGeometry x="2820" y="70" width="50" height="40" as="geometry" />
        </mxCell>
        <mxCell id="dReqOSm1kdml6KpYtbeG-118" value="delete" style="rounded=0;whiteSpace=wrap;html=1;" parent="1" vertex="1">
          <mxGeometry x="2820" y="170" width="50" height="40" as="geometry" />
        </mxCell>
        <mxCell id="dReqOSm1kdml6KpYtbeG-119" value="ADD KB" style="rounded=0;whiteSpace=wrap;html=1;" parent="1" vertex="1">
          <mxGeometry x="2870" y="290" width="80" height="30" as="geometry" />
        </mxCell>
        <mxCell id="dReqOSm1kdml6KpYtbeG-120" value="kb.description" style="rounded=0;whiteSpace=wrap;html=1;" parent="1" vertex="1">
          <mxGeometry x="2256.25" y="95" width="413.75" height="30" as="geometry" />
        </mxCell>
        <mxCell id="dReqOSm1kdml6KpYtbeG-121" value="kb.description" style="rounded=0;whiteSpace=wrap;html=1;" parent="1" vertex="1">
          <mxGeometry x="2256.25" y="195" width="413.75" height="30" as="geometry" />
        </mxCell>
        <mxCell id="dReqOSm1kdml6KpYtbeG-122" value="Text Box for System Prompt" style="rounded=0;whiteSpace=wrap;html=1;" parent="1" vertex="1">
          <mxGeometry x="2258.13" y="-1985" width="660" height="75" as="geometry" />
        </mxCell>
        <mxCell id="dReqOSm1kdml6KpYtbeG-123" value="&lt;div&gt;&lt;br&gt;&lt;/div&gt;&lt;div&gt;Text Box for User Prompt&lt;/div&gt;" style="rounded=0;whiteSpace=wrap;html=1;" parent="1" vertex="1">
          <mxGeometry x="2254.38" y="-1890" width="660" height="150" as="geometry" />
        </mxCell>
        <mxCell id="dReqOSm1kdml6KpYtbeG-124" value="Model Selection DropDown(get from llm endpoint)" style="rounded=0;whiteSpace=wrap;html=1;" parent="1" vertex="1">
          <mxGeometry x="2258.13" y="-2050" width="660" height="50" as="geometry" />
        </mxCell>
        <mxCell id="dReqOSm1kdml6KpYtbeG-125" value="Slider (from 0 to 100%) 0 is Accuratue and 100% is Creative" style="rounded=0;whiteSpace=wrap;html=1;" parent="1" vertex="1">
          <mxGeometry x="2258.13" y="-2100" width="660" height="30" as="geometry" />
        </mxCell>
        <mxCell id="dReqOSm1kdml6KpYtbeG-126" value="save" style="rounded=0;whiteSpace=wrap;html=1;" parent="1" vertex="1">
          <mxGeometry x="2850" y="-1660" width="80" height="30" as="geometry" />
        </mxCell>
        <mxCell id="dReqOSm1kdml6KpYtbeG-127" value="CANCEL" style="rounded=0;whiteSpace=wrap;html=1;" parent="1" vertex="1">
          <mxGeometry x="2760" y="-1660" width="80" height="30" as="geometry" />
        </mxCell>
        <mxCell id="dReqOSm1kdml6KpYtbeG-128" value="" style="shape=image;verticalLabelPosition=bottom;labelBackgroundColor=default;verticalAlign=top;aspect=fixed;imageAspect=0;image=data:image/png,iVBORw0KGgoAAAANSUhEUgAAAj4AAABtCAYAAACht2vcAAAAAXNSR0IArs4c6QAAAARnQU1BAACxjwv8YQUAAAAJcEhZcwAADsMAAA7DAcdvqGQAAABhaVRYdFNuaXBNZXRhZGF0YQAAAAAAeyJjbGlwUG9pbnRzIjpbeyJ4IjowLCJ5IjowfSx7IngiOjU3NCwieSI6MH0seyJ4Ijo1NzQsInkiOjEwOX0seyJ4IjowLCJ5IjoxMDl9XX28d+mKAAAnsUlEQVR4Xu3dD1Ab170v8C9YIFmA+GewMVaAgEMImLg4zosZJ00mvRMnfi92/abjOtPn2i/XSea+tp6X6yS3z7GbceKbceJkksY3TULv2HE6aWjmpSbzUrszSeX6D7i2If4DAYxkAQLLSAYhAUJCQvvO2V2B+CcEyMRGv8/MDjp7ds+ecxbt/nb3SIoSGBBCCCGERIBo+S8hhBBCyJxHgQ8hhBBCIgYFPoQQQgiJGBT4EEIIISRiUOBDCCGEkIhBgQ8hhBBCIgYFPoQQQgiJGBT4EEIIISRiUOBDCCGEkIhB39xM5jybzYaenh643W7QvzshhNz6oqKioFQqkZCQgOTkZHlueFDgQ+Ysj8cDs9mMmJgYJCUlQaVSiW8mQgghtzYemrhcLnR3d4vH8oyMDPFYHg4U+JA5q7W19aZcLRBCCJk9/rv2d9xxhzxnZmiMD5mT+BuFXx1Q0EMIIbc3fhznx3N+XA8HCnzInMSvDvjjLUIIIbc/fjznx/VwoMCHzEl8IDMf00MIIeT2x4/n/LgeDhT4kDmJD12jgcyEEDI38ON5uIYkU+BDCCGEkIhBgQ8hhBBCIgYFPoQQQgiJGBT4TMgNR5cDDkd4BlMNMetQ/qUeDjlJIpkPXo935DQoZ81hPi9rp9cnp24GL3otZtjC/NYlhMwNFPhMpPEwtpQUo/iFI7DKs8Kh7vO9eOmVctTK6aCsddBVmVgIFj7W73SobKYzwq3BDuPpUzgVOJ08jsoLLXB45UXmILuRtdNol1M3gacTpqZGtHW65BmEEDIssgKfJ9fLLyZX9w0LeP7lF9h8rhxHGuWZYVD4q6/QWLUTpXI6qIZybH1fB4ucDIemP23FgePhLJHMVOa9D+Phh+XpwfuQFW3CJYMVN/OeyJwWsxAFqx7CssX0dQaEkLHmvcLIr+cuHvBs+inwx8+kv/70hGpw+IXDWLz5P1Aq7Ed59z9h430pcp6sS4+Kw/uwb89BHKvrQtxdRcjRKKQ8twmVfziAvfv24f/+wwx3WhGKMpRiluPkQbyjc2N5iRbinAnKcZwsw/7PK1HTZIbTXIdmLMeKLLaGuPw7eOet/WPKRlclyt45BndeOvSf/jv27PkUVY5ELF+eg7hoByr/k7XlZA0arzthrm+GonAFtPOlVf3E7X7tRkG6Hp++uge7/1QFp4ZtOztOXoIJpQ5aFSrfeQkvfXgMzsyHsCLDAd2Bf8XOvb/D/2tUYGlJEdLlVTjHt+V47+23sJdtz+xORVF+BpQzCMs7OzuRmpoqp0LndZjRYmyGwdwNtxCLhDglooN8Kt7n6kTbVSOaTVb0QQ1NlA1GiwcazfwQripc6GruABZlI9W/H6JjoYlx46rBhaTsVIizfS50thlhNLbB6vBgXlwC1IqASnmc6Lh2FUZ9O270Buaz+YZW9ClTEB8rLSrNuw5PQiLmz2PttZlg7PRBHdUN45VGtN0YhDKZ5Xk70dLYBD1vV3QcElkBw+3xwdXZxurTjDZrDzzz4pCgViDULw9wdTWjA4uQ7W+0WP9m1u9GdHS74YtNQIK886X6eaGCHc2sfhakIMHdjpYuYVQfu2A1tsChSGLr9qPjqimg3ay+tmtoYfvpaoc9pP1KCLn1TPe4PtoMTi23kS+PDN/t4X95Ophzf0OFYz3WrNLgkYcfh/6rY6iTs0TeGuzftAEfW0qw+VfbsF5bi71PbkeF+EzMiorn12J3TTrWP70Dm+93o/zpDdj/rbgm7AYdyo7r2WGcCVKOUluI0rvTAY0WJStLUahlUYKjErs3/Qjv1WnHLRsOPXQfHsbuf9mNypQ12PxsKVxfbMWm1yvhZmGW9p5SLOVFLilB6cpC8CJHE+v3yW48+3IlNI9txi9XulC+ZRP2VsmPx0Ksw95XDsOxcjN2rE1E+f/aju3Pb8cR5Xps+9Vm5NXtxaaXK4bGOZn+sBWrn6mA+362/E9L4P7TFjz6fEVYHzGGwnXtMs7UWuBLWoycxRr4zJdwtr4DA3L+GP3tqKtuRNe8FCzRLoK614B6FlSYOp2Y8ZOqGPmtOWiDofo8jL0qpGuXIH1+L0vXoMXfeYIDxgs1aHdrsDjbn1+PDrHSbjhMJjhGNIDP64JTrqDX2QVTuwFN7V4kLc7BAoUZdfX1qK+3IDp9CXIy1egxXECTxd8iH2z68zhv7IWK5S9JV6H36nnUDFVoirw2NF04i5Ye3r4cLE7ywXy5Bka5OKl+Tfjuai/Ui3KQHqeAShUNu/4arIHtYgGr4ZoXCjXvt5HtHuiox3m9A7G8PfJ+rWmmUXaERCz+I6UR4b+tG54mUb1vtbB6X7WU6D0qvPiD1cKbZ6WkyPixsCnrV8IRu5wWXEJrQ5Ngd/HXp4VdWY8K710UM0QWfa1g6ZVetx7cJGT97GOhlSeClsOc2DW8LOeyC001rCw5yf1tZ5aw+i25rmJ5o+rKylj2g9dYrSSnf5MlbDo4VOIYYv1++KZQ7ZFnMKd/s0xYtkcuIaQ6PCG8VyclOZ6ftfNvcoqpe094ImuXVCcP66/R/WuX+7xGTk9DY2Oj/CpEvi7hyqkq4Wq3nOY8FqGBzxvaP4EGBUvDSaHqShd75ecRLPUnBd2FNqFfnhMc26ZOJzRYPIJnQJ76bgj6muFy+9suCLrL1wS3tIKop6Va0NVeZ1tjnG3CBd13wvWh/TUo9Pf2CR6xUlL5rKgAfN4Foc0ppcTyzzcLPVKS9cMNaZ1OOc30tJwTdP5CxO3VCtdGVKhZqGbzrg/I6Ul0XdENlzfoEfrsPSPad6NRJ1TJnS7W78xVwe4TkzK3cO2yTqg1D69lN1QJJxss8r4Y2W6+vX80D7WQrd4n9LiG9xoh5PYw5eP6BCLjjk/gXZ7Auz/j6TuG8s+AdY+USOm4NVj3pB0VuhopzS0pQkl+BV579iWUfV6JOjOgzc+DRryDshQr1lrw0b89h72HjqHG4IAmtxBpAU+KhgQtZxxKDfKW5UFpqIHu63KUvb4bh88BJkfgIE4t0tPkl5w2D0VdUxzMrE1HmvzUjtNmF8Hh/7RRSHVIhEYtv2SUvCxFQKPUGraE7EoNqrsKobLrWHnydNYO5RIT6upM8kKzoM8BuycB0d5O8XaqONm9iFa50Ns73iBZJ5y9XqSmJgfcNlWwdGDnh8ZcFzC4+Ww97HFLUZzLy/Whp8cmPq7p8deJTfzuHbp7If5qjSoBmrgOGGobYbpuQy/b1ao4NRRTeWcrFKzmsih5xYDHQIp5MfIrwNfbC1uCWKHhfmLbVIJtu09eaCqiFVAnqBHtdLCyzDAZmnDNDrgCP96mikXsiMdSsUhLS4P1WgfbC4zA1rUCmYvSxr2FHadJw0BbA+oM7bA6nPAq1IifyXNUQshtLTLe/aMfbQV51OU+pcPRLhMO/CQb2dnS9NQhB0yfleOY/8CuKMGOL0/i3cfSoP/rXjy3Nh8rNx1AjXj3PA3r3j2FL55bAfe5w3jxp8VY+cR2VDSLa44UtJxxNFdg+5Mr8eiOj6A7Z4KyeA1KC+W82RLuOtjtMMGCpnOVqBya9FCu2obSrKHw6ObzeuFiIYWzuxvdQ5MT0UlaJM0PiAKHeODl8dCocSLR86b+lhoa3PzDEmTFeTEvLhHiExsMYGCAVc3lCKgTmzwqaBfFS2PEojTIWfEACtJi4bQaUHv+xE39VNiAR6wQHIH16fZCpc1A/HB8NMTXb0Nnt2vigdr9HaivrsTZBhO62HLRmgVIipfzglAsSEdGvxWd/D3Z3YF2RQbSJvh3iV1YiAeWa6EZ7Ma1hgs4VXUe9R30iS9CIlVkXfZMNraHnfj4XYzEZw/iUs2lgOkgtmmOQncq8M5JOkq37MC+33+Fk1Vf4eeu/XjvS/kOxaAS2ie3Yc9/fIqvqy7h1UIddn1SKeWNEaScUUzHy1Fx96v45s8fYM+vd2Dz2lLkBdxZmQ1hr4NWixW8D/55J3b+OmB6YSe2PaiRF5oFKhUSWSiRpM1Fbm7AdGcutMnjBT4JiE/ivwLfK6clju5O+dU0sCAm84409DS3wCoGLiqo1Wzb8Rlj6pSbuxDD3R6L5Mwc5C+7Dw+sug+ZPiNaLPzEHoPYBPYn8OdtWOAyYsjPFKnUaigQjwyxDoH1ycXCce5qDtjacLm5M2CbPvG7iuKVUpTk6rqOjriluL+kEEtzc5CZlgz1PDEruHlpSE93wtrVC9uNDqjT01itJuJD9PyF0N5ViHvvL8XqpQno1LfDJucSQiIL3e8N1HUMRz7XYt2aR6BJ0QRMj+DxJxNR/rWOhUYsPPp6N4of2wtdl7Qa+iyw2NhyGnbJaSjDU/lbcdggB0mDLO+6A+mJYy9Hg5bjZ3cMXb0nalggYDTBJBftNhzG4b9Ir6fC7pj+wM5w1WHIkvXY+JNKlL1dMVSm49sDeCpvA8rC+DUCk1ItxKJFNpiMHXDJtye8jhZc/HsNTPKdPh9LX77cIj/2UyAtUwuv6QoMll64PC70Xm+EsTPwLeVCR8NlNIpBSGhi07OgnW9mXSzto+RFWsSaW9Di/yfwsTIbz6CywSoOoPZ1NuHUOQM6PVI2Bt0Y8CigUPBgTQ11vAIdbe3o5XX2DaCzxTSzE34iCyBi2tHC6ucVAyofXJZGnKlslIO1kVSJSdB0t8PUJWX6es243smCzAQpbBPr2e8a6nOfsx3XQhzVnpyeiYGuFlzrSkbGwomibydMF07gcrtTvuvkw4DbBW+sgoWFhJBIRIFPAOs3R3GseCMe/4E8I0DJmo0o/PwIjvBPXP1oBw5t0OPFEvlxWMmL0D/2Ll5+ggUFuduw7+00HPlJvpSXvwFH0vbg3S1jnwcFLYdbtQ170j/G2jz+uM0EzZM7sSeVpfOl5Ve/7EDho9KioSrdsgfpn6xl6z+Fw+M9fptEOOowkgZrdv0Rm90fDZVZ/PRRpL39Lrbly4vMChbI5C1Hps+E8yeO4/jx4zh12YrYgnugle9k+FxOFjR2wy7HMdFJuVhekArXtQbUXqqFsW8BCnKTpUyRFy4+Fqa7Tz7phiAqHtqcTPhajGjvZ+n4LBQVqNFde0qs0/ETZ2BwZaAoL00clxOdmoPiRU40npbqfPx0I5wLCpArDtKKRlp2PhZ6W3D+JMs7U4vuVC0W8u1MF6tfVmEB1F21OPV3vs0TOGNwIaMwd8S4sCFxWtxTkAB7vVT/ExdNiL6jCDnJ0qFHkZ6LpSyQ8vf5mStexIf6adXENGR4rbDGpSB16OP6o6mhzS9AbEcNTvD+YfWt6YjF0rszg9whIoTMZVF8hLP8mkyV1y39pEWcZpwByfwnL1iekuWNN7A5UNByxnI7HHB7ldCkhLDwTXJT6tDnAO8GZYpGGr8yA1euXMFdd90lp6Zo0Av+iwrRMYpJrwx8fLmAhXzWRpy4Fo8H7s1EeL8+j/+8Bd+YAorxHgUJLJ9Xeh7Ln6XLGf7TEz4hGgr/R++DkuofrWB9Os7350ytrOmZjW0QQm6eGR3XA9ARYCYU/MQ/UbAi500W9HBByxlLqWHLfo9BD3dT6sADvzAEPTPGg4cQgp6BjjqcqW5ER790P8fX3wmDyczakBzmoIfjJ+wJgh4uSs6fxXc0D2JCDyKk+k30pYFTK2t6ZmMbhJBbHx0FCJmm2PR8FCzyov3bE9JjnG8NcCUuQ9GSWR5xTgghJGT0qIvMSeG6JUoIIeTWQI+6CCGEEEKmiAIfMidFRUXxn2ORU4QQQm5n/HjOj+vhQIEPmZOUSiVcLvp2XkIImQv48Zwf18OBAh8yJyUkJIg/p0AIIeT2x4/n/LgeDhT4kDkpOTkZHo8HNhv9MAEhhNzO+HGcH8/5cT0c6FNdZM7ibxSz2YyYmBgkJSVBpVKF7RkxIYSQm4eHJvzxFr/Tw4/lGRkZ4rE8HCjwIXMev1ro6emB2+2mAc+EEHIb4BepfEwPf7wVrjs9fhT4EEIIISRi0BgfQgghhEQMCnwIIYQQEjEo8CGEEEJIxKDAhxBCCCERgwIfQgghhEQMCnwIIYQQEjEo8CGEEEJIxKDAhxBCCCERgwIfQgghhEQMCnwIIYQQEjEo8CGEEEJIxKDAhxBCCCERgwIfQgghhEQMCnwIIYQQEjEo8CGEEEJIxKDAhxBCCCERgwIfQgghhEQMCnwIIYQQEjEo8CGEEEJIxKDAhxBCCCERgwIfQgghhEQMCnwIIYQQEjEo8CGEEEJIxIgSGPk1IXOSzWZDT08P3G436N+dEEJufVFRUVAqlUhISEBycrI8Nzwo8CFzlsfjgdlsRkxMDJKSkqBSqcQ3EyGEkFsbD01cLhe6u7vFY3lGRoZ4LA8HCnzInNXa2npTrhYIIYTMHv9d+zvuuEOeMzM0xofMSfyNwq8OKOghhJDbGz+O8+M5P66HAwU+ZE7iVwf88RYhhJDbHz+e8+N6OFDgQ+YkPpCZj+khhBBy++PHc35cDwcKfMicxIeu0UBmQgiZG/jxPFxDkinwIYQQQkjEoMCHEEIIIRGDAh9CCCGERIxpBT7uLgccgZMjPAOOwsFxqQLlVVY5NQ1eK3SfV0DvkNPfl64alL+9F3tfPwBdmzxvVjhQ92U5Ks1yksh88Hq88Prk5CzyfU/b9fP2dMDcPSCnpsOLXosZtjAeJsQ+CZzGdNDs7i+fd7w6TEUI9RWkZb7HfwVC5oRpBD4mlG8vRnFJwFScj5U/fgmHL33f0YIDut/vwksfHmW1DJG1DroqE4aOyd+VY+8Lu1BeJ6e/F3qUPb0BZd8lIi+vEOmL5NmzoUuHj155CWXfhNKDbpiqdKibQZw5Rp8JlV/XIZxFhocdxtOnYLTLyekY6EVnt2uKJy4XzN/NcLsz4kWnqQmNrVZWkxCNbqenE6amRrR1hlzCJKQ+OcX2x9B06gQqa5pgHXojh2F/TYHdyOowo42FUF+XGXWnjWxJQshMTPtRV+krJ9Hc3CxNjefw4ToXDj+5AXurvs+7Pxqse/scGn+/GVp5zqQayrH1fR0schLFv8BXrD07V8np74UFpm9LsfnlX2DjTx5BoUKePRtS1uHdqkYc/FkoPWiB7v2tKG+Qk+Fg1eHAP5ejSU7OKX1mXG7pxEzuncw+BRYWlOKhZZkI+csBRrczZiEKVj2EZYvD+/UCyUsfwMMPPyxND5UiP8GGujoTnHI+IYSMZ94rjPw6RA5c/PNB6O/8n/jvyxOlWYo4ZCx/HCtij+BfP3Hiv/50BVKkHOmRze/ewVuvf4oqsxup+UXImC/n8TsGJz/FgTf2Yd+fz8LsTkVRfgaUQ+EYy//6IN566y2U/eUiuga1WJqfAiXP6qpE2TvH4FgchbO//T946csoPPTY3bAe2YeyxsV4qCAFjpNl2P+1GwXpenz66h7s/lMVnOq7UXRnIjucs5bw/M8rUdNkhtNch2Ysx4qEahw88DXchSug9ddzRBsciMu+F9oEKWvcbWhYOdlx0gLjmrhdYnmf6nCxupH1B7vCO2fD4gfvHu7PIVLflR14B3sPHkNjZxzyluUgcShICt63jsYKHN63D7vHrKtHxZtlaEx/CHcv4OmJymHLvf4BjtXUwdTZB/0Ffz2D10v/xV78rj4Vy1067H/t3/HBXxrg1S5H0ULWelanvf95DDW1JnT161FjlfbjdHR2diI1NVVOhc7rMKPF2AyDuRtu7zzEJczHPPFT8S50NXcAC5cgxm6EXm+CtU+AWpOA2KH/Vx9ctmswtbTA0HYDfR6+vhoKtr7XZoLRbIPDOYBBdy/6ozRInD/OdYfghaOjBc1GA8y2QSgS4uC90QZPYjZS/f+PHgfMreyC46oZ3W4fYuMToJwn5zHevg60XzWiaVQd/CZso8cGU/MNeFVRsDdfQSO7GkhJi8eA5SpMfSqkxMcMLeOLU7L3jAEGPavDoALxQdvpQsdVE/qUKYiPleowsg1ezFNrMN//vzvBNjQatbwvvOjpaGPv5SVYpJFXipoHtRqwX7UhetFCaBTy/lrk77eJ982QYHXigvS7q6sZHUjHkhg7jHrWX9Y+CPM1SBg+mLEquNDZZoTR2Aarw8Py4xAf488fXV8mcHu8/WovbrR7kJidCv8iI/alEIsE1mfRYpuc6DC0oi9GDff1RjQZ+qBcnDy0HiG3o+ke10cb58g7fYVPrEfpt5Wo9I9JaT6MrT96FhXuEmz+1WaU9JVjy2PbUSE/x7B+sR1rX6tG+hPbsOOnJXD/aQs2/LZGymQn0MrXN2Dtm7XQsvxtT2hR+8EGbHilkoVejEMP3YeHsfuX+1GXvRE7nswDD8Msl8pQdkm6f2M36FBWcQAvvnAEeHgzdjymReWbD2Lt29I2lNpClN6dDmi0KFlZikItO/mK5eqGx/g0l2PrY1tQ3ie3wX0M29duxeFmKVvcxie78ezLldA8thm/XOlC+ZZNQe58BW+XWKeVS9khVANtcSl7LbVrNNOh57B2+xG472fteno9tHV7sfb5iqFHREH79tv92LDpY1jGXdeC6g/LUC3fApu4nETkrSyBVgOk3z1cz8nqJe6fD1/E9k8cWPHjbVi3qBp7t2yX+jMlD6XFWtbydCxl+6P07vFafvO4rl/G2ctm+JIWI2exBj5rPUu3wxXw1RG2q/Vo92iwSJsOlcOA83UsX85ztdfh/Hcd0vo8v4fl13eIdz6iVfFIimf/XwoVNElJiFeN99bzwqavwaU2F9SLcrCYvb8t9U3o8srZXH87Lp+thcWnweLsxdAMmnHpXD06/LdXHEbUXGjHwDh14IK20etEl6kdTd8Z0atehJyFceIFgtthgsk/jk9cpgOtjY3sPyWF1WEBVN0GnKk2wsHKGL+dbjhMJjj8leg34/K5SzAPym3w3UD9+cto75fz/fWoa0J3zAIsviMJPlbvCwZbCI8J2RLjfNVHsH0jmqxOk/U7121EfbsXmkVLkK60w1BdN7z+oA2GmvMw9KiQrmX583th+rYGTbbAnRvAa0PThUtod6lZLLSY9bQF9U1d8MjZnOvaZZyptQzvS/MlnB1qk9TnxoZGXGdrL7ljOFgiJOLxHymdmlbh459lCZsOtsrpQKeFXVmrhTdr5NRvlgmr91VLCZFdOLqDzXtLmnf6N1nCo+/Wiq9Fliah9ppLem38WNiUtUn42CglRcajwpsfHBVa+SJiPtvWWSnLj5eZ9ZvT4uvWg5uErKxnhc8sYlJS957wYzbvSKecPrFLyPrZx6xVslHbFduw82+s5sOq960Wlv3bUYFXQ9zGD98Uqj1SHsfXWbZHqsMY47XL8pnwbNaPhY8a5LTYj6OWGcV1rVaoNcp9xYnlDrcrWN+Kdf7fR4bb1NsqNOntYnukbWcJu06IieD7SP5f8C/LhVKvrGc+E4Z3iVTGlk/kPSAuv4vVYmYaGxvlVyHydQlXTlUJVzoDdqTPLrTp2wT7AE+wfJ1OqDW7xSyRs024oLsgtDml5KCrR+hxDkoJTsyvFa6L6zNdVwTdhTahX06OwfZDdUB5op5mNk8nXOmSkl1XTgpVhsD/Ro9gqWfzrkrz+tsuCLrvrrO5Mm+/0NfnEcRaTdZGsb5VwtVuKcuv64pO0PkrIC4zqh98PUJzNZt3XS53TDulvhvRhsYbw3Vk7IYq4WSDRarnePVgZZ48pWclcf1C2wWdcKEtsCcHWVdVC7rqVqFPTI/c5mT7Ztw6teuFNrs0Z7J+F/vo8jVhuFdG1lHcL7xPfGJS5DbXTljfvlbWllH/Kz0tbJ7uitQH8r4c0Ucei9DA54lVksobsZ8Iuc1N+bg+gbDe8ZFooOLPbFCHmhoHCuPt0H2tk6dq2JVamC7VioOPlxavgeXQi3ju9cM49q0eDk0eCjPEleGuq0PlqjV4JFtMSrLXYMeza8BvzEi0SE+TX05kVSlKA5e5h6Wzj4FdjIVAasMjP3qEtWpYyYNrgL9Wo1pOg11BpgXcEtdmF8ExKCdGGbddaaxOD9eg8lzIQ7KhzChEXooFdSd1OHZoP/b+9ghq4YBdvlMVrG+195Yg74vX8NwLZSg/yQcSa5GXq5EeIY4SrJzxTFYvUYYWw7uEb5v1ywQXvrOmj9XRk4qU5IAdGaVBZm4mNDFymolV+p/VMPPVUMsvuWhlPNQxA+i1dcLaboShuQM94J/2kReYhM/phCNpwfCjDi4+GclD6V44HF4kKDziLV9pssMbrYKrp0e886RK0EDdYUBdgwlmWy+7+ldBrVZIt3ZDauN8xAY0cXzJSEoMWCgqHsnJKlgdofyOjtSG1AWp4t0kP00K+4+4weonp8fUQ6VGgmfk/Z4eUy3OV58Xp7OVJ3C+PQZLC7Qj9olf8H0zQZ0W5yJTfJQ2eb+LlCoMV5n3u/wSPvT02JDMyleJj6EksUlJSHV0wzZmzLcPfWxficvLc7j4pOThtLgvExDt9deHTXYvolUu9PYOFzji/5UQIgpv4PNdDQsGtNCKn0Kyw94GWBoq2Ql9eNLHlWLbg9JjkbQNH+DUH5/Bir5KHN6xCcWr1mL7F9LJ32Kz8HGVMzemDCVUgVFMUFIbEDB+QpSYCG3X9AZxj9+udDGAC/3k70bN+09h9cNPYf+Xlah2a1G6egWK5FwuWN/iBzvw1al3sSZDj2OvP4dHC1fiqd/WSI8QRwlazhiT1+uWxc6A/HQhjY+YDh8crRdx5h8XYOzohsOnQlJKIuShYCEZ8AywIEJODIllJy/5JTzwskq6e7vR3T08OeclQ5uilv6tNDm474ECLFA6ccNQi7MnK3GxxcFO8cyM2zix6HmhvlmlNoxpp0IB1ajAZjKqlEzkZOewKRf3lKzGQ6uWIXPc5zmT7ZsJ6jQkhH4PagADgY/E/GLYvh330dzEyw81T9yXbjgD6tPd7UR0khZJIwYmEUJGC2Pg44Du03KY1j6OUnE8KguAitkp/cFnsPPXO4enF9j0dKl8B8UNZfY6bHvtA3z6zTlceqUIutcOo5KvXVgIbZ0epsBgwOuA1TzFgGN0GV161F4qRHpI46OKULQK0BtGnugdDbWo+4GWhStTN267UIfacxpoM0ItsRpH3rDj54dO4uCbrD+f3YhHSkZ/CmvivhWllWLz8/tw8C8nce7Ln8P19ns4Mu73BU1Szgih1OsWFRePZDjh9I/JEHkx4Ar1e1Ps6LjqQWbxA1h2dy5ytRlI1UztU0wqNTuJ9jrRH3giHOwBO9/K5kPFztbKFC1yc9k2/NOdbFqSPHwCjk1GZk4+lt33AEpXZGLQ2IIOfmKfcRv9euDk5Q3xoq+nF/HKgFtjE0pAfBLgHFkAvH296GX9NfG9xLFi4pLFgY6pqcmIVymCBHST7ZsJ6jTgkr9XJ8R+n5AKCQkq9IzseIC12RajGucOm3SXbvTyvl62vPwaKhW7eFQiSRtQH7lO2sA7eoSQMaYf+DiHv8DQ9J0OZc9vwva/5mHHC+vkxxharP/JRlT+fj8q2uRgpasGB7ZmY8OHepbQo2xTPrYe0rNTK+eGxWyCIy1RGsy77HFszDqMA+/XwMGDBK8bdX/Yjke3vIeaEUHDZI6i7CN/GSw4++17OPbgRqy7R8oV2Vk7xi1Tg0ee2IjaQweG2uC26rD/w0qs+R/rkSfOmaLx2nXoPRxWbsbGR0M97KugyTbB1Czfo+HtOhQYjATrWzd0LxfjR6/qhtrstlhgTdEgccwzgkn2kcxu898rmqxeobLDOt7tp5spJhXpi3pgaumASzzZ+TDQacSF6kZYx7v6HmMeFPNdcPXLnSp40dnWPnyi8mNX6t6hwMaFjobLaLTIJ9zENGTGtqO11SEtw8u42gLrUDyhwsKMDNhMRhbIyKGKx4GWS8dRY+If4vah88opnNV3Dm3DNzCAgRgFFPyu5YzbOMza1gKHPNLW22VEizUZGWnx0gxuRDsDKZCanoEetr6/Db6BThhbbUjLXDjuY6qZm2zfTFCni+fRKHbMZP0+OU1aBtTtrWjxv+kGe9He3I7oxRlIG31HmUlOz0Rs4PKeThharMNBlmohFi2ywWT070v+dmvBxb/XwNQnpQkh45t24FP5xtqhLzB88Od7UanZjEN/PYjNAWNXNGt34o+bXPjoyXxkZ2cju2QLjqa9i3ef5iFDHra9/i7SKjYgn+dl52NDRRr2vLkZhXxlRSF+8f5BFFY9i+I8lp+Xjy0V6Xj1wx0omcoFTeHPsR778ahYRjFevFiKD94I+J6fVduwJ/1jrGX5Tx0a+whHbMOW4TbkP7YbprWH8MaGwIFDUxCWdpXgmVdZQPZKsdSv92/CkZRSlMq5wftWiUdePISNhhel7bP84l/rsebtl7FuzCfHJ9lHPLh9Zhv0Yj12Q+edrF4hyF6PXzytx65itv7LOnnmbFAgLW85tIIJ508cx/HjJ3C2yYWFRflYGNIwCQ20d7GTZ9Mpti5bv/ICLLHJSJZzRUlaLGWBzfm/H8fFdh7seOHq6URnd590xyVKg5yiAsRaL+EUW+b438/iWlwOcgLiCUVaLpYv9sFUfULazulLsMYW4J4lPGSIRuqdxchwNkrrs/xTjU6kFeRioRg8zbSNfgnITAeM5+RtNPQgubBg+DHTmHaOJLZhyXAbTpxrgiu9GPlTq8QUTL5vJqtT8H4PQXwWiorj0V0r1+HkJXTELkVx9gTP3TU5KC6IhfWyvPy5a1DfmRPweE7al5k+/75k++GyFbEF90Ab7Js0CCGI4iOc5dc3j9ct/axFnAaacW5quB0OuL1KaFLGv+Mh5rMTtma8lYMwHXoKD36zBic/YYFOnwOOwamXMURug1KjgTJMd5Kn264hk/QrF7RveZ+w1ZUp4w9sDjTZPhohhHrdbFeuXMFdd90lp6Zo0AuvLxqKoe9YmQL+swL8+cg8BRQzeJDMf5LBF6yMybYjtoGFQjHywObRptvG/nZc/McNLPgv9yJTJdVhwm1MRm5DtCLYY6owCmXfTFanGe9ftj4fyxTq+v76BOvjyfY1IXPEjI7rAWbnfaLgJ8yJT4I8mAh2QhXzZ3oG5SfhmZQhtyFcQQ8343ZN0q9c0L7lfRJC0MNNto9GCKFetzR+UppO0MNF8WBiuifFYfwkFrSMybYjtiHIiXAmbfST6zDtUvzrz0bQw4WybyarUyhlBDXF9UPp48n2NSFkhLn9XtGkoTBtdr8Ej5A5LUqB2ITYkd94TAght5HZedRFyCwL1y1RQgght4bb61EXIYQQQsgtgAIfMidFRUXxn2ORU4QQQm5n/HjOj+vhQIEPmZOUSiVcrrEfpSaEEHL74cdzflwPBwp8yJyUkJAgfo0/IYSQ2x8/nvPjejhQ4EPmpOTkZHg8HthsY747mRBCyG2EH8f58Zwf18OBPtVF5iz+RjGbzYiJiUFSUhJUKlXYnhETQgi5eXhowh9v8Ts9/FiekZEhHsvDgQIfMufxq4Wenh643W4a8EwIIbcBfpHKx/Twx1vhutPjR4EPIYQQQiIGjfEhhBBCSMSgwIcQQgghEYMCH0IIIYREDAp8CCGEEBIxKPAhhBBCSMSgwIcQQgghEYMCH0IIIYREDAp8CCGEEBIxKPAhhBBCSMSgwIcQQgghEQL4/8PhGNifgsSvAAAAAElFTkSuQmCC;" parent="1" vertex="1">
          <mxGeometry x="2315" y="-1340" width="574" height="109" as="geometry" />
        </mxCell>
        <mxCell id="dReqOSm1kdml6KpYtbeG-129" value="" style="shape=image;verticalLabelPosition=bottom;labelBackgroundColor=default;verticalAlign=top;aspect=fixed;imageAspect=0;image=data:image/png,iVBORw0KGgoAAAANSUhEUgAAAiAAAAA2CAYAAAD+mSKzAAAAAXNSR0IArs4c6QAAAARnQU1BAACxjwv8YQUAAAAJcEhZcwAADsMAAA7DAcdvqGQAAABfaVRYdFNuaXBNZXRhZGF0YQAAAAAAeyJjbGlwUG9pbnRzIjpbeyJ4IjowLCJ5IjowfSx7IngiOjU0NCwieSI6MH0seyJ4Ijo1NDQsInkiOjU0fSx7IngiOjAsInkiOjU0fV19s8ZNpwAAC6JJREFUeF7t3XeMFOUfx/EHEBApAkIAkSJKCQgiHUMLRf8RUWpCIDGESA4UQcDQBEkwJhhQQgkQQhGiYEEFQpdmoRzlQInASTulqejRLLT57fvrzjm/5bg9Dhj2zs8rmdxN2Zln9i7zfPf7lM3nRTgRERGREOWP/hQREREJjQIQERERCZ0CEBEREQmdAhAREREJnQIQERERCZ0CEBEREQmdAhAREREJnQIQERERCZ0mIpOE8/vvv7vz58+7v//+2+nfU0Qk8eXLl88VLlzYFS9e3JUqVSq6NWsKQCRhXL582Z08edIVLFjQlSxZ0t177732Ty0iIomNUOKvv/5y6enp9iyvUKGCPcuzogBEEkZaWtpNRc8iIpJ4/Cx25cqVo1sypz4gkhD4hyVaVvAhIpK78Rznec5zPSsKQCQhEC3T7CIiIrkfz3Oe61lRACIJgQ6n9PkQEZHcj+c5z/WsKACRhEBXJHU4FRHJG3iex+tiqgBEREREQqcAREREREKnYbgS17lz51xKSor77bff3KlTp2xb+fLlXenSpV39+vVdiRIlbNutOHjwoKtRo0Z0TUREcrt4z/U7GoBcvXrVnT171l27di265V/M98CsaZLY9u3b57744gt3//33uypVqljgAQKRY8eO2d+3Xbt2rk6dOrY9pxSAiIjkLXc1APn1119d37597dNzrPfee8+1atUqunZ7ffvtt65YsWLu4Ycfjm6RnPjpp5/c4sWLXdWqVd2zzz573ax2zHa3dOlSd/ToUdejRw/30EMPRffcPAUgIiJ5S7zneih9QAg2qKSCy50KPrBkyRK3efPm6JrkxJ9//uk+//xz98QTT7guXbpY8PHzzz+7DRs22MLvbGMfx3AsrxEREcmOAm9ERH+/7f744w/7hNy8eXNL32fms88+c99//707ceKEGzt2rEVMdevWdfv377f1Dz/80NL/ZDMY1vPVV1+5TZs2WeU3efJk9/7777uiRYva+flE/sEHH7iNGzfad4ocPnzYVapUya1atcqlpqa6WrVqRa/6T3Zmzpw5rmzZstfNvklZ5s+f7+655x43d+5ct3r1aruH/PnzW+U7adIkt2LFCmtC4rpsx8WLF91HH33k3n77bZecnGznZT58yu3fJ+/JhAkTrExc298PmqyC5+e8ZB/882d2DppE/GYRklnfffedmzJlipWbPhs1a9Z0hQoVyti/a9cu279o0SJ35coVV61aNbvPWN98843N69+xY8eM68+YMcOiWe6bv+uTTz5p25lul7/bhQsXrLw5cebMGffAAw9E10REJLeL91y/6wEIKX4qbYKIDh06uK+//toqfJpRnnnmGWtKmT59ugUlDz74oFXQVJ70TSCLwnlnzpxpn8i5DpX4gQMHXMWKFa2CZD/BBoFKmzZt3H333WfXXblypQUzfIL3K2jfjz/+6N59910rS8OGDe08VPJs45M+zREERLNnz3anT592TZs2dZcuXXKvv/66BT7PP/+8lZtAonr16tY0wX1yTbI/Tz/9tE3SMnHiROsLU7t2bQsG3nnnHffJJ5+45557zs5PEHTkyJGM4IdzsDC7XPv27W2aW8rQpEkTV6ZMGbdt2zY3cuRI29esWTNbJxhr3bq1BRm8BwRHXL9Bgwbu448/djt37nQtW7a8LgjZsWOHBUiPPvqorW/ZssWCOe6VvwN4n9hG2X755RcLeLiXnFAAIiKSt8R9rtMH5E6JVEpep06dvEiF6EUq7YzlxRdf9CIFs2Mi8Y83fPhw7/Lly7Ye+QTvRQIP+wm2s3/evHm2zs927dp5qampto5IJepFKm3v8OHDts45/eMRCUC8Xr16eZGAwtYjn+y9V155xYsELrYeKxLcWJn948G2zp073/C63Gv37t295OTk6F7PO3TokBcJFux3ytSjRw8ri2/58uVez549vUjFbefnvdm7d290r2fX4v1LSUmxdc5BuSk/Lly44CUlJXkLFy60de552LBhGe9lenq6d+zYMS8S3HiRQMnr1q3b/91TWlqalX/r1q3RLf+KBH0Zf4NY3NesWbOs3D6O5TU5FQkao7+JiEheEO+5HkofkEgl6l5++eWMpXfv3pbx8JEN8D+B0xzBJ2q/WYLtsVN0P/LII9Z04SNbUKRIEftEnhmGi9arV88yEGQaOI5MRdu2baNHXI9MSfC7SchcUBayK+vWrbOFUSBkeY4fP26ZDLIB48ePt+YPMhdkX8iE+GgOoSw+sgVkTigL5yfLQpOIjywO2ROaVXw06/ijh3gPy5UrZ/cEzv/ll1+6MWPGWB+YAgUKWPMIPykjTSpkbPzyR4Idy/788MMP9vog3n9eF4v7//TTTy2rEmy64lj/byYiIhJPKAEIlT/NAv7SokWLWxqCG1sxsp7V+agYn3rqKesHQgVM0woV/c30V6C5gyGnNFnQv4OFfio069D8wfXffPNN169fPzumZ8+eNjKEY3zBwAr0Y/EDL84fe1/sJ7DxA4x4aHahmYXy0JxDE9XUqVPt9fRPoYmEEUl++QlAmMcjs+YxgiF/zo8gUmo0CcX2bOZYvy+KiIhIPKEEILcbGQMqVB+VIhU4lfWNkDVhP/0itm/fboFDbL+HrFBJk70YMGCAGzFihC2vvfaaGz58eEbnVgIIAh0qffpe0P+DPh0+gp9guclKMHKEibzoa0FfleB++nqkpaVlu2L3PM8yJq+++qplKeg0umbNGnfo0KGMDq9kn/zyU3bugYAwFvdKhoeOvUH0h/E7n/o4hmOD2R0REZGshBKAMJMmlWtwifcteVmhsmNECOdg4VM/HSODn8qpvKmQfTSF0MmVIbp0VG3UqFF0T/Y89thj1ixDx02uyTnokNq1a1dr0qGZpHPnztZ5FjR3kHEINjXt3r3bmj78CdoWLFjgGjdubAEGzSeUkYCF85O1IIgga8Ix8XBO+hO/9dZb9nruneuTcaGZhQCMgIhrEuSwn5EudKjds2dP9Cz/IjNCGelEHLR27Vq3bNmy6No/OIZjeY2IiEh2hBKAvPTSS1bhBxcyETnFyBQqPM5Dxc3Q1GHDhmVU9gQFy5cvt34KjJbxUZEzWoPK+GY/rdMfZPTo0VZursk5pk2b5gYPHmx9P5gJlOxCUlKSNe2QJeA1vXr1ip7BWaaB0SU0SbGfjAlNNmRiOJa+GzSNcH4yImQvRo0ala2ycq7+/ftbMMTr6RfDiBcyNpSHa5AZITBi1Az7hw4d6l544QUrTyyyMsxwSt+U9evXW4ADgjiG5oJt7OMYjr0dU7KLiMh/Q677LhiGphIEULmCad6zanoJosljyJAh1vzw+OOPR7fePLIrVL7MTxLb8dLPbtAnJJj9GDdunP1kbhNeT2YjuD+I/cjufcUiw0EWhPLF9itBvP1BzIZKpofggiYcv/MvzWAsZLfoZHwrs6BCM6GKiOQtCTET6p1CBZ6dSpqggGYfmm1o7ghOSJYTXJOMRWajPqjQyVjcKLgAr4+3P6fBBzg3ZbhRcBFvfxCBRZ8+fWw0TXp6uo2uYeF3trHvVoMPERH578l1AQj9JKg8ySBkFzObDhw40PppDBo06JZG4OQU2QaW3IghzjRn0bRFExMLv7ONfSIiIjdLX8cvCUFNMCIieUueboIRERGR3EkBiCQE+tMoGScikjfwPM+sn2SQAhBJCPTLYYiwiIjkfjzP4/W3VAAiCYFRP4ysERGR3I/nebzRnApAJCHwxXZM6c6U+iIiknvxHOd5HvzC0sxoFIwkDP5hmdyML+FjnhW+BTleG6KIiNx9hBI0u5D54FnOpJU8y7OiAEQSDtEzs8H632kjIiKJjQ+L9Pmg2SVe5sOnAERERERCpz4gIiIiEjoFICIiIhI6BSAiIiISOgUgIiIiEjoFICIiIhI6BSAiIiISOgUgIiIiEjoFICIiIhI6BSAiIiISOgUgIiIiEjoFICIiIhI6BSAiIiISMuf+B5kE7c5ulT5xAAAAAElFTkSuQmCC;" parent="1" vertex="1">
          <mxGeometry x="2326" y="-1212" width="544" height="54" as="geometry" />
        </mxCell>
        <mxCell id="dReqOSm1kdml6KpYtbeG-130" value="" style="shape=image;verticalLabelPosition=bottom;labelBackgroundColor=default;verticalAlign=top;aspect=fixed;imageAspect=0;image=data:image/png,iVBORw0KGgoAAAANSUhEUgAAAjUAAABCCAYAAACvrSfIAAAAAXNSR0IArs4c6QAAAARnQU1BAACxjwv8YQUAAAAJcEhZcwAADsMAAA7DAcdvqGQAAABfaVRYdFNuaXBNZXRhZGF0YQAAAAAAeyJjbGlwUG9pbnRzIjpbeyJ4IjowLCJ5IjowfSx7IngiOjU2NSwieSI6MH0seyJ4Ijo1NjUsInkiOjY2fSx7IngiOjAsInkiOjY2fV19kGlNygAAEGRJREFUeF7tnQeMFUUYxwes2LBgV8CuaOyV2BGN4h2oiCUSRVCDmqDY0IAtahSMwQYBNRJRo7EhRmMXVFQkKir2jthF7AgC6/6+23nsre9u34N7j7u5/y/ZvH0zszOzs/vm+883s/vaRDFOCCGEEKKF0zb5FEIIIYRo0UjUCCGEECIIJGqEEEIIEQQSNUIIIYQIAokaIYQQQgSBRI0QQgghgkCiRgghhBBBIFEjhBBCiCCQqBFCCCFEEEjUCCGEECIIJGqEEEIIEQQSNUIIIYQIAokaIYQQQgSBRI0QQgghgkCiRgghhBBBIFEjhBBCiCBoE8Uk+0IEw5w5c9wff/zh5s2b53SLCyFE86dNmzZupZVWcquvvrpba621ktDykKgRQfHvv/+67777zq2wwgpuzTXXdCuvvLL9UIQQQjRvkCP//POP+/XXX60v33DDDa0vLweJGhEUM2fOXCqVL4QQYtnjve0dO3ZMQkpDa2pEMPAjQNVL0AghRMuGfpz+nH69HCRqRDCg6plyEkII0fKhP6dfLweJGhEMLApmDY0QQoiWD/05/Xo5SNSIYGB5mBYFCyFEGNCfl7vsV6JGCCGEEEEgUSOEEEKIINAj3aIq/P7772769Onul19+cd9//72FbbDBBm7ttdd2O++8s1tjjTUsbGn4+OOP3dZbb518E0II0dIpt19fZp4aFv9g4BYuXJiE1EH4zz//7P76668kpHosWLDA6sTnkkL9eXFQpbQi7VLJ/CvBe++958aNG+e++OILW81+4IEH2sY+YcSRZlnAC57mz59f2LLXnnYmzaJFi5KQcOC3x7kJIUQoLDNRM3XqVHfqqafWewb9zz//dOedd567/PLLl4nRRhH269fPPpcUzuuSSy5xf//9dxLStDz44IMVzb+pmTVrlnvyySfdxhtv7E488UQTM9tuu61t7BNGHGlIW00w6lzrV155pbC9/PLL7u233y60L0b/3XffNSEZGnjMOP/swGJJ4dHLlnJfCiHCpHKiprZXslMadIYjRowwT8SwYcPcaqutlsSIlsrcuXPdo48+6nbZZRd3zDHH2IuUfvzxR/fCCy/Yxj5hxJGGtBxTbbbaaquC92i//faze++zzz5bKo9da+SHH34o+0VZQohw+PLLLxudZSGONJWk6UVNVsyUIG4wHjfeeKP74IMP3DXXXOPWX399C//222/dLbfcYqPJMWPGuL59+7qxY8f+bzTIiHPkyJEWf8MNN7ivv/7awmfPnu1Gjx5d+A4TJkxw48ePLzz7zlQXZTANkgVv0RtvvOEuvvhiN2DAAPfwww//75n5zz//3F155ZXulFNOMS9K1p1Peo7j+KFDh9q5UP6HH36YpKi70LfffrvlQV7kmQdGl/zI97nnnqs32mb/pZdesnrTJuSdvtHYv+eeeyyONJxj2jOWVx/ajHbFy9JYfV9//XVbK3PAAQckIc7Onb8xYGPfQxrScsyyZLnllrP7j+uYvdYewvlhvvPOO/aZTcc0Fvcc8R999JH77bffkpg68GhwHxBPuqynhPQch4cIodDY1BfH8jtpqKy8umbJKzsdz39sUT5pvvnmG1s3xW+O3xL/3yKEaF3Qf2KbGoI40lSSphc1EycsFjJ88r0RMB633nqrGdbrrrvO/sDKg8uf0TuGl9HzUUcd5R5//HF38803F0bRdLAYXwzFySefbJ3paaed5mbMmGEv7qHz9YaSTnfixInugQcecD/99JOFsZaDaYdiC1Xvvfded9FFF7kddtjBHX300SaILrvssoJhoIwzzzzTLb/88u6kk06yutx9990WB9QRkUU+RxxxhNt1113d8OHD3f33329eCsBwUF+OPeGEE9w666xj35nGagiME21AfocccoiVgShEmLAhWC699FKrN/VCLPp6s7H/5ptvWhxpmM7y5eXVhzVH5557rgkbpg+J53uxG5k25nr6m/jVV191Xbt2dbvvvrtt++yzj7U9kIa0/ro0B4pNgTJFikDAmDNtxjXmPvBCm/Z9//33TRhutNFGJt4QMH76ik8ELfcz8aT75JNPCuIBgULbcxwLqbke6fg0hBHHfV2srLy6ZskrOxvPPcB38ud8+Hfddu3aufbt29tvQgjRuth0002tLy820CWMONJUlLjjbnpqei7eGmDy5MlRTU1NNGLEiKhLly5RbOyjuPNMYuuIBUcUG+1oypQpSUgUTZo0Kerdu3cUd6iW/oorrrAtFkcWTxh5DR061MLGjBkTDRkyxPbJb8CAAVH//v0tH7j++uvteI4jvra21j7jDj069thj65U9c+bMqFevXtFrr71m+VHGVVddVSibz1iARQMHDoxigxJNnz496tGjh+XnicVbFBt2O38YN25cNGjQoCgWY/adeowaNSoaPHhwISwN6bt16xbFxiYJqcuTesU3jR0fj5qjWPgksVEUG7IoFmUWH4uGqE+fPtG0adOS2CiKBUkUi0Lbz6sP58LxX331lcVzzrEhLVpXjqPsYlDm2LFjo1gkJSF19eSYJSU2sMleacRG3sqcNWtWElJ3vrRdLAbs3GKRYu07e/Zsi6fdaUcP6SnXh8UGPopFhn16aB8fT1mxqLHjgDJikWHfKeutt96q1yZz58618ufMmZOELManj0VMEhJFsUgq3I95daUunD/tkFe2j+f+8cyfP99+E/7aU166LYUQrQ/6A+wmNtrDPmHF7EQe5fbrlZl+8t6ZtNemCIwin332WVtDwxTK888/n8QsZpVVVqn3fz7rrruueWDiupt3Blf3vvvuWxgZ8gZCPACMhnGV77HHHi42wOZhwGPBAlXWTcTG2Ua4fO611152XBrc6fEFsNEqdWSjviuuuKL79NNPbbTLwlbK8mXzudtuu9k+kAcj5E6dOiUhzm255ZaFx9MYOVNPRrZMF1GGn0rCG8NIuxhbbLFFPY/WZpttZiNkpjI4D0bt5BmLL3fXXXfZVBLnz3oVRtko5ViMuTvvvNPaj/ox0i6lPozQOU+8Zw899JB5nDgnRulZqEsxVyOj+0ceecSmnNJ/Pkna7HWoBlxHPFdstBnnRJtmvQ20D23Ytm1bm2Zho12pM+G0E3G0JfcOXqdYQNh9SBysuuqqdgweED6Ba0ceHEM6pq98/tzj5FnMu0L9+C3gJeMcSENehJdS1zR5ZRMP3D8e1kNxLxW79kKI1gn9wTbbbGN9nId9wqrRV1Rm+ilNI9NPGFMWBx933HG2PuO2226zefpSiUekJkyyxgfDQRjCp3PnzrZPo8ajTptu2XHHHU2YxKNMy2P77bdPjlwM0wIYAd6tMm3aNNsQNbxThXo3VHbaSLNoMmvU+Y4wAvLAcCC6fBlshB100EGFdFmK5elvFozZqFGj3OGHH26iAwOGsPPGiHRXX321O+OMM6w9aHfaHzFTSn14rwzrmo488kj3xBNPuJ49e7rTTz/dxF8WBJB/J00aDCZiMPvuAdJyTLXhnLimbFxfpsYQJlkWLVpk7cu9wRSP3zD8CEEEA3HcMwg37g/yQZh7EOiUgSBAKDKtR3tzryIq/H3l82afa4dYyUK5tCHCgnQ8tUXZ1KGUuqbJK5t48sweJ4QQWViWwNpEpuLZ2CesGlTu6aectTSAAMDjQEfJEzDrrbdevfUyeWAwEC3ZRb6MjhE2jGIpY6eddrIROJ4GBAzHzJs3z57AoUy8P1kIo25+MS3bkCFD3IUXXmieIQwV8dmyEQcePBiIND8iB7779ScYC/KgTuTty7ngggvc2WefXW9UnIY8MFYeRAICivQYI7wsN910kwlGxAvnnwYRdOihh9oC6UmTJtnTPwigUuuDuDn++OPdHXfc4Z566im7Xnh1siAWMNgYyzSsq2FLQxrScky14Vryg2OjDRoy3F48ck/hLfPb5ptvbh45BAPtT34IF+K4vxAwacgDTxBrohDZrE3BG0K7Ekde2fzTYjkNde3QoYPr0qWLeRwpG3FYSl3T5JVNHGXhyfEgxPjOpxBCpKGPo19nY79aVE7UlAkiZNCgQTbSZCFtKdDRHnzwwbaAl5ExIDJYCIynwo+2GXk//fTT9h2xwmgZjwCLhjGu5JOFDh1jP378eBMQdNwsaq2trbURMcYP70W6bMLJ04PBYhTNk1mkYWPfu/KBevJuFEQXZVAWi3yZksuKAQ/Gn3IRZmwsRGbKiVE7xgyDhWEjP+JJ65+KmTFjhi16ZgE1UBdEF+0PefVBvODd8U+UIRTZ/PFpMOyUm24TeOaZZ9xjjz2WfKuDNKTlmOYKbcv9Q9t6UUn70qZ4/YA0GHovzPF2+MecaU88hohuvB5AWsQC1wxBQjsybemnhzgWjxr5ZMGDxpQZn0CeXCPqUEpd0+SVzf1OPIuFiedcEGPkhzfQU+qARAgRPtikrEe+0jQbUQMIiXPOOcee3qGzLIXDDjvMjDRPQOGB6dOnj62ZYVrEs91221mn7ef0MCKsfaFjznoxPEwrDR482Iz+nnvuaUrz/PPPt3KYvgLK6Natm+vdu7eVzZNNPIHlwQggCPAA4OG59tprbarHHw+8n+Wss86yx7MpAy8JazHwjGRH+B7qjgBArHFOrBXCm0J5jKr79+9vj8aTH+9ewQj5dUnkj/dp4MCBVmdEHXE8CQV59SE/1sL06NHDjudz7733Ns9PFp4oo32YZmG9lDeW3bt3dzU1NbZPGHGkIW1T/F1CJcErgveFqUi8XDxZxz2FqPTx3DtTpkyxeAQE1wW47zp27Gj31IsvvmjxiHDCvIeINkWcIKCJx/O3ySabFG0XPGd4VlgXRlqeLuMapevSWF3T5JXt4/nNED958mQT19wj/LaAgQLrkZhSQ+gKIVo39Gts1SSY/35ihMiIkg44u85laWGkyyiXtQiMgLMQx2i12FoF6kWYP4464pHq16+f23///S0MMO4IFYyON4J5UC+MULFpKsolP7xTxTxReeXlxefln4ZFrDyaz7VheosNmEZjo00QiBjQpYHHmas1KuBng1eEey07lQO0D2kaEqa0L9eO47P3DOTFp6EcyqMexe7PvLpmKbVuDZ2bEEI0FeX26/pDywqCex4PDQt1vQfnvvvus3ftsOaFUXZrAdGHpwCvDxswPcKGJ6wp1Hw1RY0QQojKI1HTzMCFz7SUf3kda0Z4WR1TR6JpkagRQoiwkKgRrRaJGiGECIty+/VmtVBYCCGEEGJJkagRwcCiVjkehRAiDOjP8x6UyCJRI4KBp7DS7wASQgjRcqE/z3u6NotEjQgG/0ZlIYQQLR/682KvLGkMiRoRDLx4kPex+Df4CiGEaJnQj9OfN/QXMQ2hp59EUPAj4IV+vBiONyXz/1/lzskKIYSoPsgRppzw0NCX86LWcl/yKVEjggSVz38i8bZn3eJCCNH8YQDKGhqmnMr10HgkaoQQQggRBFpTI4QQQoggkKgRQgghRBBI1AghhBAiCCRqhBBCCBEEEjVCCCGECAKJGiGEEEIEgUSNEEIIIYJAokYIIYQQQSBRI4QQQoggkKgRQgghRBBI1AghhBAiCCRqhBBCCBEEEjVCCCGECAKJGiGEEEIEgUSNEEIIIYJAokYIIYQQAeDcf09Nus67WSyyAAAAAElFTkSuQmCC;" parent="1" vertex="1">
          <mxGeometry x="2319.5" y="-1130" width="565" height="66" as="geometry" />
        </mxCell>
        <mxCell id="dReqOSm1kdml6KpYtbeG-131" style="edgeStyle=orthogonalEdgeStyle;rounded=0;orthogonalLoop=1;jettySize=auto;html=1;exitX=0.5;exitY=0;exitDx=0;exitDy=0;" parent="1" source="dReqOSm1kdml6KpYtbeG-114" edge="1">
          <mxGeometry relative="1" as="geometry">
            <mxPoint x="3620" y="124.57000000000005" as="sourcePoint" />
            <mxPoint x="3470" y="80" as="targetPoint" />
          </mxGeometry>
        </mxCell>
        <mxCell id="dReqOSm1kdml6KpYtbeG-132" value="" style="rounded=0;whiteSpace=wrap;html=1;movable=1;resizable=1;rotatable=1;deletable=1;editable=1;locked=0;connectable=1;" parent="1" vertex="1">
          <mxGeometry x="3470" y="-25" width="1210" height="895" as="geometry" />
        </mxCell>
        <mxCell id="dReqOSm1kdml6KpYtbeG-133" value="" style="ellipse;whiteSpace=wrap;html=1;aspect=fixed;" parent="1" vertex="1">
          <mxGeometry x="3510" y="-5" width="60" height="60" as="geometry" />
        </mxCell>
        <mxCell id="dReqOSm1kdml6KpYtbeG-134" value="Inboxes" style="rounded=0;whiteSpace=wrap;html=1;" parent="1" vertex="1">
          <mxGeometry x="4400" y="25" width="260" height="60" as="geometry" />
        </mxCell>
        <mxCell id="dReqOSm1kdml6KpYtbeG-135" value="" style="endArrow=none;html=1;rounded=0;entryX=0.75;entryY=0;entryDx=0;entryDy=0;exitX=0.75;exitY=1;exitDx=0;exitDy=0;" parent="1" source="dReqOSm1kdml6KpYtbeG-132" target="dReqOSm1kdml6KpYtbeG-132" edge="1">
          <mxGeometry width="50" height="50" relative="1" as="geometry">
            <mxPoint x="4350" y="-45" as="sourcePoint" />
            <mxPoint x="4400" y="-95" as="targetPoint" />
          </mxGeometry>
        </mxCell>
        <mxCell id="dReqOSm1kdml6KpYtbeG-136" value="Agent Bots" style="rounded=0;whiteSpace=wrap;html=1;" parent="1" vertex="1">
          <mxGeometry x="4400" y="115" width="260" height="60" as="geometry" />
        </mxCell>
        <mxCell id="dReqOSm1kdml6KpYtbeG-137" value="Knowledge Bases" style="rounded=0;whiteSpace=wrap;html=1;fillColor=#CECECE;" parent="1" vertex="1">
          <mxGeometry x="4400" y="205" width="260" height="60" as="geometry" />
        </mxCell>
        <mxCell id="dReqOSm1kdml6KpYtbeG-138" value="" style="rounded=0;whiteSpace=wrap;html=1;" parent="1" vertex="1">
          <mxGeometry x="3621.44" y="70" width="720" height="760" as="geometry" />
        </mxCell>
        <mxCell id="dReqOSm1kdml6KpYtbeG-139" value="kb.name" style="rounded=0;whiteSpace=wrap;html=1;" parent="1" vertex="1">
          <mxGeometry x="4221.4400000000005" width="120" height="60" as="geometry" />
        </mxCell>
        <mxCell id="dReqOSm1kdml6KpYtbeG-140" value="Configuration" style="rounded=0;whiteSpace=wrap;html=1;fillColor=#ffe6cc;strokeColor=#d79b00;" parent="1" vertex="1">
          <mxGeometry x="4221.4400000000005" y="70" width="120" height="60" as="geometry" />
        </mxCell>
        <mxCell id="dReqOSm1kdml6KpYtbeG-141" value="" style="endArrow=none;html=1;rounded=0;entryX=0;entryY=1;entryDx=0;entryDy=0;exitX=-0.003;exitY=0.087;exitDx=0;exitDy=0;exitPerimeter=0;" parent="1" source="dReqOSm1kdml6KpYtbeG-138" target="dReqOSm1kdml6KpYtbeG-140" edge="1">
          <mxGeometry width="50" height="50" relative="1" as="geometry">
            <mxPoint x="4081.44" y="220" as="sourcePoint" />
            <mxPoint x="4131.4400000000005" y="170" as="targetPoint" />
          </mxGeometry>
        </mxCell>
        <mxCell id="dReqOSm1kdml6KpYtbeG-142" value="dataset" style="rounded=0;whiteSpace=wrap;html=1;" parent="1" vertex="1">
          <mxGeometry x="4101.4400000000005" y="70" width="120" height="60" as="geometry" />
        </mxCell>
        <mxCell id="dReqOSm1kdml6KpYtbeG-143" value="" style="rounded=0;whiteSpace=wrap;html=1;movable=1;resizable=1;rotatable=1;deletable=1;editable=1;locked=0;connectable=1;" parent="1" vertex="1">
          <mxGeometry x="3410" y="1005" width="1210" height="690" as="geometry" />
        </mxCell>
        <mxCell id="dReqOSm1kdml6KpYtbeG-144" value="" style="ellipse;whiteSpace=wrap;html=1;aspect=fixed;" parent="1" vertex="1">
          <mxGeometry x="3450" y="1025" width="60" height="60" as="geometry" />
        </mxCell>
        <mxCell id="dReqOSm1kdml6KpYtbeG-145" value="Inboxes" style="rounded=0;whiteSpace=wrap;html=1;" parent="1" vertex="1">
          <mxGeometry x="4340" y="1055" width="260" height="60" as="geometry" />
        </mxCell>
        <mxCell id="dReqOSm1kdml6KpYtbeG-146" value="" style="endArrow=none;html=1;rounded=0;entryX=0.75;entryY=0;entryDx=0;entryDy=0;exitX=0.75;exitY=1;exitDx=0;exitDy=0;" parent="1" source="dReqOSm1kdml6KpYtbeG-143" target="dReqOSm1kdml6KpYtbeG-143" edge="1">
          <mxGeometry width="50" height="50" relative="1" as="geometry">
            <mxPoint x="4290" y="985" as="sourcePoint" />
            <mxPoint x="4340" y="935" as="targetPoint" />
          </mxGeometry>
        </mxCell>
        <mxCell id="dReqOSm1kdml6KpYtbeG-147" value="Agent Bots" style="rounded=0;whiteSpace=wrap;html=1;" parent="1" vertex="1">
          <mxGeometry x="4340" y="1145" width="260" height="60" as="geometry" />
        </mxCell>
        <mxCell id="dReqOSm1kdml6KpYtbeG-148" value="Knowledge Bases" style="rounded=0;whiteSpace=wrap;html=1;fillColor=#CECECE;" parent="1" vertex="1">
          <mxGeometry x="4340" y="1235" width="260" height="60" as="geometry" />
        </mxCell>
        <mxCell id="dReqOSm1kdml6KpYtbeG-149" value="" style="rounded=0;whiteSpace=wrap;html=1;" parent="1" vertex="1">
          <mxGeometry x="3561.44" y="1100" width="720" height="560" as="geometry" />
        </mxCell>
        <mxCell id="dReqOSm1kdml6KpYtbeG-150" value="kb.name" style="rounded=0;whiteSpace=wrap;html=1;" parent="1" vertex="1">
          <mxGeometry x="4161.4400000000005" y="1030" width="120" height="60" as="geometry" />
        </mxCell>
        <mxCell id="dReqOSm1kdml6KpYtbeG-151" value="Configuration" style="rounded=0;whiteSpace=wrap;html=1;" parent="1" vertex="1">
          <mxGeometry x="4161.4400000000005" y="1100" width="120" height="60" as="geometry" />
        </mxCell>
        <mxCell id="dReqOSm1kdml6KpYtbeG-152" value="" style="endArrow=none;html=1;rounded=0;entryX=0;entryY=1;entryDx=0;entryDy=0;exitX=-0.002;exitY=0.108;exitDx=0;exitDy=0;exitPerimeter=0;" parent="1" source="dReqOSm1kdml6KpYtbeG-149" target="dReqOSm1kdml6KpYtbeG-151" edge="1">
          <mxGeometry width="50" height="50" relative="1" as="geometry">
            <mxPoint x="4021.44" y="1250" as="sourcePoint" />
            <mxPoint x="4071.4400000000005" y="1200" as="targetPoint" />
          </mxGeometry>
        </mxCell>
        <mxCell id="dReqOSm1kdml6KpYtbeG-153" value="dataset" style="rounded=0;whiteSpace=wrap;html=1;fillColor=#ffe6cc;strokeColor=#d79b00;" parent="1" vertex="1">
          <mxGeometry x="4041.4400000000005" y="1100" width="120" height="60" as="geometry" />
        </mxCell>
        <mxCell id="dReqOSm1kdml6KpYtbeG-154" value="" style="shape=image;verticalLabelPosition=bottom;labelBackgroundColor=default;verticalAlign=top;aspect=fixed;imageAspect=0;image=data:image/png,iVBORw0KGgoAAAANSUhEUgAAAj4AAABtCAYAAACht2vcAAAAAXNSR0IArs4c6QAAAARnQU1BAACxjwv8YQUAAAAJcEhZcwAADsMAAA7DAcdvqGQAAABhaVRYdFNuaXBNZXRhZGF0YQAAAAAAeyJjbGlwUG9pbnRzIjpbeyJ4IjowLCJ5IjowfSx7IngiOjU3NCwieSI6MH0seyJ4Ijo1NzQsInkiOjEwOX0seyJ4IjowLCJ5IjoxMDl9XX28d+mKAAAnsUlEQVR4Xu3dD1Ab170v8C9YIFmA+GewMVaAgEMImLg4zosZJ00mvRMnfi92/abjOtPn2i/XSea+tp6X6yS3z7GbceKbceJkksY3TULv2HE6aWjmpSbzUrszSeX6D7i2If4DAYxkAQLLSAYhAUJCQvvO2V2B+CcEyMRGv8/MDjp7ds+ecxbt/nb3SIoSGBBCCCGERIBo+S8hhBBCyJxHgQ8hhBBCIgYFPoQQQgiJGBT4EEIIISRiUOBDCCGEkIhBgQ8hhBBCIgYFPoQQQgiJGBT4EEIIISRiUOBDCCGEkIhB39xM5jybzYaenh643W7QvzshhNz6oqKioFQqkZCQgOTkZHlueFDgQ+Ysj8cDs9mMmJgYJCUlQaVSiW8mQgghtzYemrhcLnR3d4vH8oyMDPFYHg4U+JA5q7W19aZcLRBCCJk9/rv2d9xxhzxnZmiMD5mT+BuFXx1Q0EMIIbc3fhznx3N+XA8HCnzInMSvDvjjLUIIIbc/fjznx/VwoMCHzEl8IDMf00MIIeT2x4/n/LgeDhT4kDmJD12jgcyEEDI38ON5uIYkU+BDCCGEkIhBgQ8hhBBCIgYFPoQQQgiJGBT4TMgNR5cDDkd4BlMNMetQ/qUeDjlJIpkPXo935DQoZ81hPi9rp9cnp24GL3otZtjC/NYlhMwNFPhMpPEwtpQUo/iFI7DKs8Kh7vO9eOmVctTK6aCsddBVmVgIFj7W73SobKYzwq3BDuPpUzgVOJ08jsoLLXB45UXmILuRtdNol1M3gacTpqZGtHW65BmEEDIssgKfJ9fLLyZX9w0LeP7lF9h8rhxHGuWZYVD4q6/QWLUTpXI6qIZybH1fB4ucDIemP23FgePhLJHMVOa9D+Phh+XpwfuQFW3CJYMVN/OeyJwWsxAFqx7CssX0dQaEkLHmvcLIr+cuHvBs+inwx8+kv/70hGpw+IXDWLz5P1Aq7Ed59z9h430pcp6sS4+Kw/uwb89BHKvrQtxdRcjRKKQ8twmVfziAvfv24f/+wwx3WhGKMpRiluPkQbyjc2N5iRbinAnKcZwsw/7PK1HTZIbTXIdmLMeKLLaGuPw7eOet/WPKRlclyt45BndeOvSf/jv27PkUVY5ELF+eg7hoByr/k7XlZA0arzthrm+GonAFtPOlVf3E7X7tRkG6Hp++uge7/1QFp4ZtOztOXoIJpQ5aFSrfeQkvfXgMzsyHsCLDAd2Bf8XOvb/D/2tUYGlJEdLlVTjHt+V47+23sJdtz+xORVF+BpQzCMs7OzuRmpoqp0LndZjRYmyGwdwNtxCLhDglooN8Kt7n6kTbVSOaTVb0QQ1NlA1GiwcazfwQripc6GruABZlI9W/H6JjoYlx46rBhaTsVIizfS50thlhNLbB6vBgXlwC1IqASnmc6Lh2FUZ9O270Buaz+YZW9ClTEB8rLSrNuw5PQiLmz2PttZlg7PRBHdUN45VGtN0YhDKZ5Xk70dLYBD1vV3QcElkBw+3xwdXZxurTjDZrDzzz4pCgViDULw9wdTWjA4uQ7W+0WP9m1u9GdHS74YtNQIK886X6eaGCHc2sfhakIMHdjpYuYVQfu2A1tsChSGLr9qPjqimg3ay+tmtoYfvpaoc9pP1KCLn1TPe4PtoMTi23kS+PDN/t4X95Ophzf0OFYz3WrNLgkYcfh/6rY6iTs0TeGuzftAEfW0qw+VfbsF5bi71PbkeF+EzMiorn12J3TTrWP70Dm+93o/zpDdj/rbgm7AYdyo7r2WGcCVKOUluI0rvTAY0WJStLUahlUYKjErs3/Qjv1WnHLRsOPXQfHsbuf9mNypQ12PxsKVxfbMWm1yvhZmGW9p5SLOVFLilB6cpC8CJHE+v3yW48+3IlNI9txi9XulC+ZRP2VsmPx0Ksw95XDsOxcjN2rE1E+f/aju3Pb8cR5Xps+9Vm5NXtxaaXK4bGOZn+sBWrn6mA+362/E9L4P7TFjz6fEVYHzGGwnXtMs7UWuBLWoycxRr4zJdwtr4DA3L+GP3tqKtuRNe8FCzRLoK614B6FlSYOp2Y8ZOqGPmtOWiDofo8jL0qpGuXIH1+L0vXoMXfeYIDxgs1aHdrsDjbn1+PDrHSbjhMJjhGNIDP64JTrqDX2QVTuwFN7V4kLc7BAoUZdfX1qK+3IDp9CXIy1egxXECTxd8iH2z68zhv7IWK5S9JV6H36nnUDFVoirw2NF04i5Ye3r4cLE7ywXy5Bka5OKl+Tfjuai/Ui3KQHqeAShUNu/4arIHtYgGr4ZoXCjXvt5HtHuiox3m9A7G8PfJ+rWmmUXaERCz+I6UR4b+tG54mUb1vtbB6X7WU6D0qvPiD1cKbZ6WkyPixsCnrV8IRu5wWXEJrQ5Ngd/HXp4VdWY8K710UM0QWfa1g6ZVetx7cJGT97GOhlSeClsOc2DW8LOeyC001rCw5yf1tZ5aw+i25rmJ5o+rKylj2g9dYrSSnf5MlbDo4VOIYYv1++KZQ7ZFnMKd/s0xYtkcuIaQ6PCG8VyclOZ6ftfNvcoqpe094ImuXVCcP66/R/WuX+7xGTk9DY2Oj/CpEvi7hyqkq4Wq3nOY8FqGBzxvaP4EGBUvDSaHqShd75ecRLPUnBd2FNqFfnhMc26ZOJzRYPIJnQJ76bgj6muFy+9suCLrL1wS3tIKop6Va0NVeZ1tjnG3CBd13wvWh/TUo9Pf2CR6xUlL5rKgAfN4Foc0ppcTyzzcLPVKS9cMNaZ1OOc30tJwTdP5CxO3VCtdGVKhZqGbzrg/I6Ul0XdENlzfoEfrsPSPad6NRJ1TJnS7W78xVwe4TkzK3cO2yTqg1D69lN1QJJxss8r4Y2W6+vX80D7WQrd4n9LiG9xoh5PYw5eP6BCLjjk/gXZ7Auz/j6TuG8s+AdY+USOm4NVj3pB0VuhopzS0pQkl+BV579iWUfV6JOjOgzc+DRryDshQr1lrw0b89h72HjqHG4IAmtxBpAU+KhgQtZxxKDfKW5UFpqIHu63KUvb4bh88BJkfgIE4t0tPkl5w2D0VdUxzMrE1HmvzUjtNmF8Hh/7RRSHVIhEYtv2SUvCxFQKPUGraE7EoNqrsKobLrWHnydNYO5RIT6upM8kKzoM8BuycB0d5O8XaqONm9iFa50Ns73iBZJ5y9XqSmJgfcNlWwdGDnh8ZcFzC4+Ww97HFLUZzLy/Whp8cmPq7p8deJTfzuHbp7If5qjSoBmrgOGGobYbpuQy/b1ao4NRRTeWcrFKzmsih5xYDHQIp5MfIrwNfbC1uCWKHhfmLbVIJtu09eaCqiFVAnqBHtdLCyzDAZmnDNDrgCP96mikXsiMdSsUhLS4P1WgfbC4zA1rUCmYvSxr2FHadJw0BbA+oM7bA6nPAq1IifyXNUQshtLTLe/aMfbQV51OU+pcPRLhMO/CQb2dnS9NQhB0yfleOY/8CuKMGOL0/i3cfSoP/rXjy3Nh8rNx1AjXj3PA3r3j2FL55bAfe5w3jxp8VY+cR2VDSLa44UtJxxNFdg+5Mr8eiOj6A7Z4KyeA1KC+W82RLuOtjtMMGCpnOVqBya9FCu2obSrKHw6ObzeuFiIYWzuxvdQ5MT0UlaJM0PiAKHeODl8dCocSLR86b+lhoa3PzDEmTFeTEvLhHiExsMYGCAVc3lCKgTmzwqaBfFS2PEojTIWfEACtJi4bQaUHv+xE39VNiAR6wQHIH16fZCpc1A/HB8NMTXb0Nnt2vigdr9HaivrsTZBhO62HLRmgVIipfzglAsSEdGvxWd/D3Z3YF2RQbSJvh3iV1YiAeWa6EZ7Ma1hgs4VXUe9R30iS9CIlVkXfZMNraHnfj4XYzEZw/iUs2lgOkgtmmOQncq8M5JOkq37MC+33+Fk1Vf4eeu/XjvS/kOxaAS2ie3Yc9/fIqvqy7h1UIddn1SKeWNEaScUUzHy1Fx96v45s8fYM+vd2Dz2lLkBdxZmQ1hr4NWixW8D/55J3b+OmB6YSe2PaiRF5oFKhUSWSiRpM1Fbm7AdGcutMnjBT4JiE/ivwLfK6clju5O+dU0sCAm84409DS3wCoGLiqo1Wzb8Rlj6pSbuxDD3R6L5Mwc5C+7Dw+sug+ZPiNaLPzEHoPYBPYn8OdtWOAyYsjPFKnUaigQjwyxDoH1ycXCce5qDtjacLm5M2CbPvG7iuKVUpTk6rqOjriluL+kEEtzc5CZlgz1PDEruHlpSE93wtrVC9uNDqjT01itJuJD9PyF0N5ViHvvL8XqpQno1LfDJucSQiIL3e8N1HUMRz7XYt2aR6BJ0QRMj+DxJxNR/rWOhUYsPPp6N4of2wtdl7Qa+iyw2NhyGnbJaSjDU/lbcdggB0mDLO+6A+mJYy9Hg5bjZ3cMXb0nalggYDTBJBftNhzG4b9Ir6fC7pj+wM5w1WHIkvXY+JNKlL1dMVSm49sDeCpvA8rC+DUCk1ItxKJFNpiMHXDJtye8jhZc/HsNTPKdPh9LX77cIj/2UyAtUwuv6QoMll64PC70Xm+EsTPwLeVCR8NlNIpBSGhi07OgnW9mXSzto+RFWsSaW9Di/yfwsTIbz6CywSoOoPZ1NuHUOQM6PVI2Bt0Y8CigUPBgTQ11vAIdbe3o5XX2DaCzxTSzE34iCyBi2tHC6ucVAyofXJZGnKlslIO1kVSJSdB0t8PUJWX6es243smCzAQpbBPr2e8a6nOfsx3XQhzVnpyeiYGuFlzrSkbGwomibydMF07gcrtTvuvkw4DbBW+sgoWFhJBIRIFPAOs3R3GseCMe/4E8I0DJmo0o/PwIjvBPXP1oBw5t0OPFEvlxWMmL0D/2Ll5+ggUFuduw7+00HPlJvpSXvwFH0vbg3S1jnwcFLYdbtQ170j/G2jz+uM0EzZM7sSeVpfOl5Ve/7EDho9KioSrdsgfpn6xl6z+Fw+M9fptEOOowkgZrdv0Rm90fDZVZ/PRRpL39Lrbly4vMChbI5C1Hps+E8yeO4/jx4zh12YrYgnugle9k+FxOFjR2wy7HMdFJuVhekArXtQbUXqqFsW8BCnKTpUyRFy4+Fqa7Tz7phiAqHtqcTPhajGjvZ+n4LBQVqNFde0qs0/ETZ2BwZaAoL00clxOdmoPiRU40npbqfPx0I5wLCpArDtKKRlp2PhZ6W3D+JMs7U4vuVC0W8u1MF6tfVmEB1F21OPV3vs0TOGNwIaMwd8S4sCFxWtxTkAB7vVT/ExdNiL6jCDnJ0qFHkZ6LpSyQ8vf5mStexIf6adXENGR4rbDGpSB16OP6o6mhzS9AbEcNTvD+YfWt6YjF0rszg9whIoTMZVF8hLP8mkyV1y39pEWcZpwByfwnL1iekuWNN7A5UNByxnI7HHB7ldCkhLDwTXJT6tDnAO8GZYpGGr8yA1euXMFdd90lp6Zo0Av+iwrRMYpJrwx8fLmAhXzWRpy4Fo8H7s1EeL8+j/+8Bd+YAorxHgUJLJ9Xeh7Ln6XLGf7TEz4hGgr/R++DkuofrWB9Os7350ytrOmZjW0QQm6eGR3XA9ARYCYU/MQ/UbAi500W9HBByxlLqWHLfo9BD3dT6sADvzAEPTPGg4cQgp6BjjqcqW5ER790P8fX3wmDyczakBzmoIfjJ+wJgh4uSs6fxXc0D2JCDyKk+k30pYFTK2t6ZmMbhJBbHx0FCJmm2PR8FCzyov3bE9JjnG8NcCUuQ9GSWR5xTgghJGT0qIvMSeG6JUoIIeTWQI+6CCGEEEKmiAIfMidFRUXxn2ORU4QQQm5n/HjOj+vhQIEPmZOUSiVcLvp2XkIImQv48Zwf18OBAh8yJyUkJIg/p0AIIeT2x4/n/LgeDhT4kDkpOTkZHo8HNhv9MAEhhNzO+HGcH8/5cT0c6FNdZM7ibxSz2YyYmBgkJSVBpVKF7RkxIYSQm4eHJvzxFr/Tw4/lGRkZ4rE8HCjwIXMev1ro6emB2+2mAc+EEHIb4BepfEwPf7wVrjs9fhT4EEIIISRi0BgfQgghhEQMCnwIIYQQEjEo8CGEEEJIxKDAhxBCCCERgwIfQgghhEQMCnwIIYQQEjEo8CGEEEJIxKDAhxBCCCERgwIfQgghhEQMCnwIIYQQEjEo8CGEEEJIxKDAhxBCCCERgwIfQgghhEQMCnwIIYQQEjEo8CGEEEJIxKDAhxBCCCERgwIfQgghhEQMCnwIIYQQEjEo8CGEEEJIxKDAhxBCCCERgwIfQgghhEQMCnwIIYQQEjEo8CGEEEJIxIgSGPk1IXOSzWZDT08P3G436N+dEEJufVFRUVAqlUhISEBycrI8Nzwo8CFzlsfjgdlsRkxMDJKSkqBSqcQ3EyGEkFsbD01cLhe6u7vFY3lGRoZ4LA8HCnzInNXa2npTrhYIIYTMHv9d+zvuuEOeMzM0xofMSfyNwq8OKOghhJDbGz+O8+M5P66HAwU+ZE7iVwf88RYhhJDbHz+e8+N6OFDgQ+YkPpCZj+khhBBy++PHc35cDwcKfMicxIeu0UBmQgiZG/jxPFxDkinwIYQQQkjEoMCHEEIIIRGDAh9CCCGERIxpBT7uLgccgZMjPAOOwsFxqQLlVVY5NQ1eK3SfV0DvkNPfl64alL+9F3tfPwBdmzxvVjhQ92U5Ks1yksh88Hq88Prk5CzyfU/b9fP2dMDcPSCnpsOLXosZtjAeJsQ+CZzGdNDs7i+fd7w6TEUI9RWkZb7HfwVC5oRpBD4mlG8vRnFJwFScj5U/fgmHL33f0YIDut/vwksfHmW1DJG1DroqE4aOyd+VY+8Lu1BeJ6e/F3qUPb0BZd8lIi+vEOmL5NmzoUuHj155CWXfhNKDbpiqdKibQZw5Rp8JlV/XIZxFhocdxtOnYLTLyekY6EVnt2uKJy4XzN/NcLsz4kWnqQmNrVZWkxCNbqenE6amRrR1hlzCJKQ+OcX2x9B06gQqa5pgHXojh2F/TYHdyOowo42FUF+XGXWnjWxJQshMTPtRV+krJ9Hc3CxNjefw4ToXDj+5AXurvs+7Pxqse/scGn+/GVp5zqQayrH1fR0schLFv8BXrD07V8np74UFpm9LsfnlX2DjTx5BoUKePRtS1uHdqkYc/FkoPWiB7v2tKG+Qk+Fg1eHAP5ejSU7OKX1mXG7pxEzuncw+BRYWlOKhZZkI+csBRrczZiEKVj2EZYvD+/UCyUsfwMMPPyxND5UiP8GGujoTnHI+IYSMZ94rjPw6RA5c/PNB6O/8n/jvyxOlWYo4ZCx/HCtij+BfP3Hiv/50BVKkHOmRze/ewVuvf4oqsxup+UXImC/n8TsGJz/FgTf2Yd+fz8LsTkVRfgaUQ+EYy//6IN566y2U/eUiuga1WJqfAiXP6qpE2TvH4FgchbO//T946csoPPTY3bAe2YeyxsV4qCAFjpNl2P+1GwXpenz66h7s/lMVnOq7UXRnIjucs5bw/M8rUdNkhtNch2Ysx4qEahw88DXchSug9ddzRBsciMu+F9oEKWvcbWhYOdlx0gLjmrhdYnmf6nCxupH1B7vCO2fD4gfvHu7PIVLflR14B3sPHkNjZxzyluUgcShICt63jsYKHN63D7vHrKtHxZtlaEx/CHcv4OmJymHLvf4BjtXUwdTZB/0Ffz2D10v/xV78rj4Vy1067H/t3/HBXxrg1S5H0ULWelanvf95DDW1JnT161FjlfbjdHR2diI1NVVOhc7rMKPF2AyDuRtu7zzEJczHPPFT8S50NXcAC5cgxm6EXm+CtU+AWpOA2KH/Vx9ctmswtbTA0HYDfR6+vhoKtr7XZoLRbIPDOYBBdy/6ozRInD/OdYfghaOjBc1GA8y2QSgS4uC90QZPYjZS/f+PHgfMreyC46oZ3W4fYuMToJwn5zHevg60XzWiaVQd/CZso8cGU/MNeFVRsDdfQSO7GkhJi8eA5SpMfSqkxMcMLeOLU7L3jAEGPavDoALxQdvpQsdVE/qUKYiPleowsg1ezFNrMN//vzvBNjQatbwvvOjpaGPv5SVYpJFXipoHtRqwX7UhetFCaBTy/lrk77eJ982QYHXigvS7q6sZHUjHkhg7jHrWX9Y+CPM1SBg+mLEquNDZZoTR2Aarw8Py4xAf488fXV8mcHu8/WovbrR7kJidCv8iI/alEIsE1mfRYpuc6DC0oi9GDff1RjQZ+qBcnDy0HiG3o+ke10cb58g7fYVPrEfpt5Wo9I9JaT6MrT96FhXuEmz+1WaU9JVjy2PbUSE/x7B+sR1rX6tG+hPbsOOnJXD/aQs2/LZGymQn0MrXN2Dtm7XQsvxtT2hR+8EGbHilkoVejEMP3YeHsfuX+1GXvRE7nswDD8Msl8pQdkm6f2M36FBWcQAvvnAEeHgzdjymReWbD2Lt29I2lNpClN6dDmi0KFlZikItO/mK5eqGx/g0l2PrY1tQ3ie3wX0M29duxeFmKVvcxie78ezLldA8thm/XOlC+ZZNQe58BW+XWKeVS9khVANtcSl7LbVrNNOh57B2+xG472fteno9tHV7sfb5iqFHREH79tv92LDpY1jGXdeC6g/LUC3fApu4nETkrSyBVgOk3z1cz8nqJe6fD1/E9k8cWPHjbVi3qBp7t2yX+jMlD6XFWtbydCxl+6P07vFafvO4rl/G2ctm+JIWI2exBj5rPUu3wxXw1RG2q/Vo92iwSJsOlcOA83UsX85ztdfh/Hcd0vo8v4fl13eIdz6iVfFIimf/XwoVNElJiFeN99bzwqavwaU2F9SLcrCYvb8t9U3o8srZXH87Lp+thcWnweLsxdAMmnHpXD06/LdXHEbUXGjHwDh14IK20etEl6kdTd8Z0atehJyFceIFgtthgsk/jk9cpgOtjY3sPyWF1WEBVN0GnKk2wsHKGL+dbjhMJjj8leg34/K5SzAPym3w3UD9+cto75fz/fWoa0J3zAIsviMJPlbvCwZbCI8J2RLjfNVHsH0jmqxOk/U7121EfbsXmkVLkK60w1BdN7z+oA2GmvMw9KiQrmX583th+rYGTbbAnRvAa0PThUtod6lZLLSY9bQF9U1d8MjZnOvaZZyptQzvS/MlnB1qk9TnxoZGXGdrL7ljOFgiJOLxHymdmlbh459lCZsOtsrpQKeFXVmrhTdr5NRvlgmr91VLCZFdOLqDzXtLmnf6N1nCo+/Wiq9Fliah9ppLem38WNiUtUn42CglRcajwpsfHBVa+SJiPtvWWSnLj5eZ9ZvT4uvWg5uErKxnhc8sYlJS957wYzbvSKecPrFLyPrZx6xVslHbFduw82+s5sOq960Wlv3bUYFXQ9zGD98Uqj1SHsfXWbZHqsMY47XL8pnwbNaPhY8a5LTYj6OWGcV1rVaoNcp9xYnlDrcrWN+Kdf7fR4bb1NsqNOntYnukbWcJu06IieD7SP5f8C/LhVKvrGc+E4Z3iVTGlk/kPSAuv4vVYmYaGxvlVyHydQlXTlUJVzoDdqTPLrTp2wT7AE+wfJ1OqDW7xSyRs024oLsgtDml5KCrR+hxDkoJTsyvFa6L6zNdVwTdhTahX06OwfZDdUB5op5mNk8nXOmSkl1XTgpVhsD/Ro9gqWfzrkrz+tsuCLrvrrO5Mm+/0NfnEcRaTdZGsb5VwtVuKcuv64pO0PkrIC4zqh98PUJzNZt3XS53TDulvhvRhsYbw3Vk7IYq4WSDRarnePVgZZ48pWclcf1C2wWdcKEtsCcHWVdVC7rqVqFPTI/c5mT7Ztw6teuFNrs0Z7J+F/vo8jVhuFdG1lHcL7xPfGJS5DbXTljfvlbWllH/Kz0tbJ7uitQH8r4c0Ucei9DA54lVksobsZ8Iuc1N+bg+gbDe8ZFooOLPbFCHmhoHCuPt0H2tk6dq2JVamC7VioOPlxavgeXQi3ju9cM49q0eDk0eCjPEleGuq0PlqjV4JFtMSrLXYMeza8BvzEi0SE+TX05kVSlKA5e5h6Wzj4FdjIVAasMjP3qEtWpYyYNrgL9Wo1pOg11BpgXcEtdmF8ExKCdGGbddaaxOD9eg8lzIQ7KhzChEXooFdSd1OHZoP/b+9ghq4YBdvlMVrG+195Yg74vX8NwLZSg/yQcSa5GXq5EeIY4SrJzxTFYvUYYWw7uEb5v1ywQXvrOmj9XRk4qU5IAdGaVBZm4mNDFymolV+p/VMPPVUMsvuWhlPNQxA+i1dcLaboShuQM94J/2kReYhM/phCNpwfCjDi4+GclD6V44HF4kKDziLV9pssMbrYKrp0e886RK0EDdYUBdgwlmWy+7+ldBrVZIt3ZDauN8xAY0cXzJSEoMWCgqHsnJKlgdofyOjtSG1AWp4t0kP00K+4+4weonp8fUQ6VGgmfk/Z4eUy3OV58Xp7OVJ3C+PQZLC7Qj9olf8H0zQZ0W5yJTfJQ2eb+LlCoMV5n3u/wSPvT02JDMyleJj6EksUlJSHV0wzZmzLcPfWxficvLc7j4pOThtLgvExDt9deHTXYvolUu9PYOFzji/5UQIgpv4PNdDQsGtNCKn0Kyw94GWBoq2Ql9eNLHlWLbg9JjkbQNH+DUH5/Bir5KHN6xCcWr1mL7F9LJ32Kz8HGVMzemDCVUgVFMUFIbEDB+QpSYCG3X9AZxj9+udDGAC/3k70bN+09h9cNPYf+Xlah2a1G6egWK5FwuWN/iBzvw1al3sSZDj2OvP4dHC1fiqd/WSI8QRwlazhiT1+uWxc6A/HQhjY+YDh8crRdx5h8XYOzohsOnQlJKIuShYCEZ8AywIEJODIllJy/5JTzwskq6e7vR3T08OeclQ5uilv6tNDm474ECLFA6ccNQi7MnK3GxxcFO8cyM2zix6HmhvlmlNoxpp0IB1ajAZjKqlEzkZOewKRf3lKzGQ6uWIXPc5zmT7ZsJ6jQkhH4PagADgY/E/GLYvh330dzEyw81T9yXbjgD6tPd7UR0khZJIwYmEUJGC2Pg44Du03KY1j6OUnE8KguAitkp/cFnsPPXO4enF9j0dKl8B8UNZfY6bHvtA3z6zTlceqUIutcOo5KvXVgIbZ0epsBgwOuA1TzFgGN0GV161F4qRHpI46OKULQK0BtGnugdDbWo+4GWhStTN267UIfacxpoM0ItsRpH3rDj54dO4uCbrD+f3YhHSkZ/CmvivhWllWLz8/tw8C8nce7Ln8P19ns4Mu73BU1Szgih1OsWFRePZDjh9I/JEHkx4Ar1e1Ps6LjqQWbxA1h2dy5ytRlI1UztU0wqNTuJ9jrRH3giHOwBO9/K5kPFztbKFC1yc9k2/NOdbFqSPHwCjk1GZk4+lt33AEpXZGLQ2IIOfmKfcRv9euDk5Q3xoq+nF/HKgFtjE0pAfBLgHFkAvH296GX9NfG9xLFi4pLFgY6pqcmIVymCBHST7ZsJ6jTgkr9XJ8R+n5AKCQkq9IzseIC12RajGucOm3SXbvTyvl62vPwaKhW7eFQiSRtQH7lO2sA7eoSQMaYf+DiHv8DQ9J0OZc9vwva/5mHHC+vkxxharP/JRlT+fj8q2uRgpasGB7ZmY8OHepbQo2xTPrYe0rNTK+eGxWyCIy1RGsy77HFszDqMA+/XwMGDBK8bdX/Yjke3vIeaEUHDZI6i7CN/GSw4++17OPbgRqy7R8oV2Vk7xi1Tg0ee2IjaQweG2uC26rD/w0qs+R/rkSfOmaLx2nXoPRxWbsbGR0M97KugyTbB1Czfo+HtOhQYjATrWzd0LxfjR6/qhtrstlhgTdEgccwzgkn2kcxu898rmqxeobLDOt7tp5spJhXpi3pgaumASzzZ+TDQacSF6kZYx7v6HmMeFPNdcPXLnSp40dnWPnyi8mNX6t6hwMaFjobLaLTIJ9zENGTGtqO11SEtw8u42gLrUDyhwsKMDNhMRhbIyKGKx4GWS8dRY+If4vah88opnNV3Dm3DNzCAgRgFFPyu5YzbOMza1gKHPNLW22VEizUZGWnx0gxuRDsDKZCanoEetr6/Db6BThhbbUjLXDjuY6qZm2zfTFCni+fRKHbMZP0+OU1aBtTtrWjxv+kGe9He3I7oxRlIG31HmUlOz0Rs4PKeThharMNBlmohFi2ywWT070v+dmvBxb/XwNQnpQkh45t24FP5xtqhLzB88Od7UanZjEN/PYjNAWNXNGt34o+bXPjoyXxkZ2cju2QLjqa9i3ef5iFDHra9/i7SKjYgn+dl52NDRRr2vLkZhXxlRSF+8f5BFFY9i+I8lp+Xjy0V6Xj1wx0omcoFTeHPsR778ahYRjFevFiKD94I+J6fVduwJ/1jrGX5Tx0a+whHbMOW4TbkP7YbprWH8MaGwIFDUxCWdpXgmVdZQPZKsdSv92/CkZRSlMq5wftWiUdePISNhhel7bP84l/rsebtl7FuzCfHJ9lHPLh9Zhv0Yj12Q+edrF4hyF6PXzytx65itv7LOnnmbFAgLW85tIIJ508cx/HjJ3C2yYWFRflYGNIwCQ20d7GTZ9Mpti5bv/ICLLHJSJZzRUlaLGWBzfm/H8fFdh7seOHq6URnd590xyVKg5yiAsRaL+EUW+b438/iWlwOcgLiCUVaLpYv9sFUfULazulLsMYW4J4lPGSIRuqdxchwNkrrs/xTjU6kFeRioRg8zbSNfgnITAeM5+RtNPQgubBg+DHTmHaOJLZhyXAbTpxrgiu9GPlTq8QUTL5vJqtT8H4PQXwWiorj0V0r1+HkJXTELkVx9gTP3TU5KC6IhfWyvPy5a1DfmRPweE7al5k+/75k++GyFbEF90Ab7Js0CCGI4iOc5dc3j9ct/axFnAaacW5quB0OuL1KaFLGv+Mh5rMTtma8lYMwHXoKD36zBic/YYFOnwOOwamXMURug1KjgTJMd5Kn264hk/QrF7RveZ+w1ZUp4w9sDjTZPhohhHrdbFeuXMFdd90lp6Zo0AuvLxqKoe9YmQL+swL8+cg8BRQzeJDMf5LBF6yMybYjtoGFQjHywObRptvG/nZc/McNLPgv9yJTJdVhwm1MRm5DtCLYY6owCmXfTFanGe9ftj4fyxTq+v76BOvjyfY1IXPEjI7rAWbnfaLgJ8yJT4I8mAh2QhXzZ3oG5SfhmZQhtyFcQQ8343ZN0q9c0L7lfRJC0MNNto9GCKFetzR+UppO0MNF8WBiuifFYfwkFrSMybYjtiHIiXAmbfST6zDtUvzrz0bQw4WybyarUyhlBDXF9UPp48n2NSFkhLn9XtGkoTBtdr8Ej5A5LUqB2ITYkd94TAght5HZedRFyCwL1y1RQgght4bb61EXIYQQQsgtgAIfMidFRUXxn2ORU4QQQm5n/HjOj+vhQIEPmZOUSiVcrrEfpSaEEHL74cdzflwPBwp8yJyUkJAgfo0/IYSQ2x8/nvPjejhQ4EPmpOTkZHg8HthsY747mRBCyG2EH8f58Zwf18OBPtVF5iz+RjGbzYiJiUFSUhJUKlXYnhETQgi5eXhowh9v8Ts9/FiekZEhHsvDgQIfMufxq4Wenh643W4a8EwIIbcBfpHKx/Twx1vhutPjR4EPIYQQQiIGjfEhhBBCSMSgwIcQQgghEYMCH0IIIYREDAp8CCGEEBIxKPAhhBBCSMSgwIcQQgghEYMCH0IIIYREDAp8CCGEEBIxKPAhhBBCSMSgwIcQQgghEQL4/8PhGNifgsSvAAAAAElFTkSuQmCC;" parent="1" vertex="1">
          <mxGeometry x="3700" y="160" width="574" height="109" as="geometry" />
        </mxCell>
        <mxCell id="dReqOSm1kdml6KpYtbeG-155" value="" style="shape=image;verticalLabelPosition=bottom;labelBackgroundColor=default;verticalAlign=top;aspect=fixed;imageAspect=0;image=data:image/png,iVBORw0KGgoAAAANSUhEUgAAAeoAAABgCAYAAADSMTEwAAAAAXNSR0IArs4c6QAAAARnQU1BAACxjwv8YQUAAAAJcEhZcwAADsMAAA7DAcdvqGQAAABfaVRYdFNuaXBNZXRhZGF0YQAAAAAAeyJjbGlwUG9pbnRzIjpbeyJ4IjowLCJ5IjowfSx7IngiOjQ5MCwieSI6MH0seyJ4Ijo0OTAsInkiOjk2fSx7IngiOjAsInkiOjk2fV19i68pLgAAEXVJREFUeF7t3Q9MlGeeB/AvW72x64FiA9GrU8jtRMxhJxVLE+YglWBTUrZCaTwWroeQqpCzOrmGahqV9XSJV50zobJGYBsVG7u0OcvY2NJUxSztkEigPcM0a2+80o63eBBRxvPqHLhz7+9934EZQARBfYXvJ3nj+zzv886870Pil+d5/xARUICIiIgM6Wf6v0RERGRADGoiIiIDY1ATEREZGIOaiIjIwBjUREREBsagJiIiMjAGNRERkYExqImIiAyMQU1ERGRgDGoiIiIDY1ATEREZGIOaiIjIwBjUREREBsa/nkUPlc/nwzfffIPe3l5cuXJFrVu4cCEWLFiAZ555BlFRUWodEdFMNXVBPeCH74oHHd8D5kQLzAtM+gaNX/kP2Q+T8h9veP3UUb6/1w/MjcJ9+4qbPvj8yjkMO7fp4wH0YQi3240zZ85g3rx5iIuLUwNaSGD/8MMP6OvrQ0ZGBhITE9V6IqKZaEqmvn2tVShISYA1tQjle0qRlZSA5PwqtPv0Boq2/VZY97fppfuhDY4kKxzn9eJd+eFtaYK7Ry+Og/ejUljt9fDq5elnon147y5fvozGxkY8+eSTKCgowMqVK7F06VJ1kXWpk23SRtoSEc1Ukw/qzjrYSxoQs/EELnhacfrTZlxwn0JZTANy11bBPaC3M5xuNB0sRv0f9SI9MD/99BOcTieWL1+OV199FbNnz0Z3t/LzaGpSF1mXOtkmbaSt7ENENBNNMqh9cO53wPOrvagsSkLULL16biLy9pQh74ca1LfodSo/fF/Xo2JjAQo2VqD+wtCQ29dci4r3XMonDlHrTni0Qq8LtXtq4eryoql6K4pXF2NrdRN6xvhFoOecsv/+OrT36hWDPHDuqUKTMjTu+KgCFXucSo1Gjs/xVjGy1m2F44hrzM+Hz4165fxrP/cqZ6ZXhe7/UTt8g/vLd1bA+a0P7cp3luYXoHRPPdyhJzyM54RybCfck++zTuU4dyrHlF+K2hal9UAPmt4tRcHqLBTvHOUYbocf48j+88N7uhbl6jGVo/b00PkHv7PpUrv2nW86R8xAnD9/Xr32/Pzzz+s1wLFjxxAZGakush4kbaSt7ENENBNNLqgH2tB20oy8XybpFSHmZuKd9gvYlaaXRYsD9mM+rHhlPbIXtqFidSnqOrVNfZeaUHvOgz6tqFLrLnRrBZ9HCeg6lP9jOVwLMlFYYsOtE8XI3+MaCokQvnPlyH/LBXNuIZIW6JWD5sGSnARzFBC71AZbskWpkantYmS8Xg//c4Uo+1US/J/bkbGuDt7RwtrvQd3mItTdtCHvRTPkkq73/WKkbnAO7f9hETKUoNJm17vRVl2LA2V2HO1dgbzXs2Fur0D+ZuXz1e0jdV+oRW31lvA+K7JPuM8qdtbBl6wcU9Y81G+0w/6mHQ2mHKzfXAiLWzmG7c6wsPe8Z4fDY1GOsRC2m/UoWlUK5+AlAj9cu7OQtb8D5pfWY/1LZnTsy0Luu+3a5uDPaZMD7vg8lK3W+jZUT08PFi1ahMcee0wtt7S0wGaz4dlnn1WXlJQUuFwudZu0kbayDxHRjCQ3k92z748G8uPyA0e/18tj+OrXcYG4Db8PdOvlQODHwNHX4gL5h3/USofzA3GvHVVqh6h1v/5KK6jflRrYd14rqv6wI/D08t8EtBZfBXbExQV2/CEQ6FPqM5YX3eW4tO+X9qp+Zf/lqYEdTX16haK/LbDv+acDWxpvqcXBY+xX9l37dCBDObbB1vr+YcfX91lgi9S1S0E7vpIPh3pAOyflOL16eZg79VnRsYn02UuBA26tKM5uUz5z21m9pHAfCLwUtyOsD1PfaVNLmr7AZ2VPB1L/Va9TP7Mk8PuQ05DPeEWpa7iqrI/2cxrm4MGDgY6ODr0U7tKlS4GamppAb2+vXhNQ28o+REQz0YN9jnqRGTH6KmCG5Rf66riZETv0AUrRgmVyl3KIvjPlyP0HFzLfO4zCeL1yPL5rR1tvOtJTQx4HmpUEWwbw2fmQm+AGPKhdl4XyubtxYqcNg63V/RMxp68JTaf15XwfTIu9cLuHxsyxC0NOIN4Ci8wHjDW9Pkqf+cdqP8I8RP1cX1WY5PLErJBbun8eNWLEm/5c6AxJFGwpNni/7lBH/n63Gy5rLPDvIef5J+W84ELHRW2PET+nYSIiIgZH06EuXryIjz/+WJ3ujo6O1mu1UbXsQ0Q0E00uqBcrQbPAi+47zEr6e33w3dQLD4izpQ+JK7vR6Ay/dntXfX1qEKlBFmLeE2b4busF0dIA74J0WJR/G/QpaJW6fzf+o9UF1+DigSllPWxxw6PQ4IZlqMk0dPzd17oBnxftYefZB3NJHpaNuMQwOnkMK/jMdKirV6+q095LlizRazTSNvjoFhHRTDO5oJ61ArYX+1D3YePIUOyphz0pCzXf6eW7iI0xjxhZ9vTe6ertnRVur0Tlu4dgaymF/cgE9k9YBhs88ISGr3JWHmUEmbRIGUEGpZVh1/5KHN4MOErK4QqeuNmMFcq40rZuG7a9HbK8tQ3r0+7PSzumqs+G81wK/wz3RZeSrrHK2Smn+QuLMsZORJ5yXqHnKP9mJ2jt70ZeZiLPSff39+s1GrlOLUsoaSNtZR8ioploklPfJmS+uRvp57Ygf3s93F0yjetHz7f1KF9bAVdWGdYu15vehcliQVJLHWpP96g3h/m/rcOBD0Jvk5qAKBt2/UshvDuLUd489ri675q+XRkl56zpQO1vnfCqs+nKeZx24EBLJtbmWtQmocxFe7Hb0oBSuRlMwnJxDvLWuFC7P7i/EvNfV6HAkovawSnhqTWlfRai48NaOC9rJ+G/pHzm+8ovQKvT1RvmkJyDDdFKXU3wjnY/vCe3Ii15KxrHOYUhbxyTl5mcPHlSr9F88cUX+OSTT/SSRtpIW9mHiGgmmvw16phsVJ6shO1yFfJTEhBvSUDya1XwplXiTGV2yPXVu0jIw+63LWjakoyEeCtW/VYJh43L9I33YHkZDu80o8E+dJd0ODNyNqyHZ6cV8fHlaBqIQuaOD7D+dg2yEuKVugRk7PQip3ovskc9iRhk7zmEnK5yFP9Gptm1/Qv9wf3jYX39M8Qoo+/14xxpTthU95ku5+9W4OyGZPUcEtbUwlRyCGVp+nXtWYl442AlLM0lsFq0fkrb40XewW3IHOfEgTxuJW8c6+zsxNmzZ3H7tnZt4YUXXsDLL7+srkudbJM20pavEiWimWpq3/Xt165JmxZEaaOvR9VkXxWq7v+o94P2OlGTEpDDr9sHqa+FHbj3fpI3jsnLTCSE5REsWURXV5e6yHvAs7OzsXjxYrWeiGgm4h/loIdK3jgmLzOR56SDz0rHxMSoy3PPPYfHH39crSMimqkY1ERERAb2YJ+jJiIioglhUBMRERkYg5qIiMjAGNREREQGxqAmIiIyMAY1ERGRgTGoiYiIDIxBTUREZGAMaiIiIgNjUBMRERkYg5qIiMjAGNREREQGxj/KQUREd3Tt2jXcuHEDfr8fjIt7ExERAZPJhMjISERHR+u148egJiKiEfr7+9W/Cz979mzMnz8fc+bMUQOHJk5i9tatW7h+/brar/K396Vfx4tBTUREI/z444/3PAKkOwvOUDz11FN6zd3xGjUREYWRMJERH0N66kmfSt9KH48Xg5qIiMLIiE+mu+n+kL6VPh4vBjUREYWRG8fkmjTdH9K30sfjxaAmIqIwcusSbxy7f6RvJ3J7GIOaiIjIwBjUREREBsbHs4iIDOzG/wEXuoHO68C1W1pd9Bwgfj5gjQUi/0Krm0rfffcdlixZopfofphIH3NETURkUO4e4OgFoK0LuPoT8GdlWCWLrEudbJM2hjHgh+9SO1zfeuG7071SN33wfO2C+7IPd7udyt/rg693tFbK91x2w9XshveOXzR9MKiJiAxIAvhMpxbMCU8Ary4FNj6rLbIudbJN2hgirDvrUJySgIwNO1CxKRfWlFw4Wn36Rk3PqXJkpaWieFsF7K9YkZpfhfbwJkOUzytdZYXVXg+vXqXytcOxJhnWV+yo2GdHrjUVBe+2404fMx0wqImIDEamu5t+0NZTzcCLfw08GQk8FqEtsi51sk1IW9nn4fGg9p/K4V93Gl+eOYVTZ1pxYe8yOEsq0HhTb6IEr32jCysqv0Tzp6dwuqUZm0w1sO93jTKy7oFz3wHAatPLQ9oP2VE3twzNLadx6uRptJ7bBNMRO2q+1htMQwxqIiKDkWvSwZF00kK9chSyLTiyln0eGr8X3bezkZdlgUmvilqVifRepV4f7bs/rYdrTRm2pUVpFbPMKNxYCJx0oikY5jrfKQd2+DZhV5FFrwnyouNbL5atTId5ll4Vn470RC/c7rBx97Qy5TeTdfz3n+H6UwRuDfAZPCKiyZApbhk9j+W/bgD/9kfgiceBv1+mV07SlNxM1upAWkkPtjW/g8y5fjS+lYC6xGYcL9KnAcRAE8otDsQqI+w3/kav8zVi68oamN8/gTeuliO+xoLmY4UI7uWpzkVuSw5O/U6pk7CWKffcRqSfOI7CeK3No+Ch3kzGkCYimhoL/1JfGUOwTfCOcEPwuVC+vQ6WzW8oIS0V3ei+ooyyo+apmwfNkvG3G91XtaKyI5r2VqDtte1DwT2M5fVK7F3cgNyUVchavQrJ+Q1I3H/okQrpieLUNxERTZ0BL+o2l8KVcgiVoaNnhf9/+/S10flbDqCiNRO7SpL0mpG875djS+s8rN2yC7v/eRfKVs9B/Vt21HXqDaahKQ9q218FMGfWlM6mExHNSFf+R18ZQ7CNPFv90Ckh7XyzGA6U4fB2G/Sr0YpYxC5UgnhALwbdlEe0bLBIng+048BOZXRckodlfnksS1nk0asBbV3d92Yjqt7txoZ9h/HGGhuSltuQ9/ZxVK/xwFHdeNfHvR5VfOEJEZHBfHVZe05abhSTu7vH8vl/AhevAisWAX+7WK+cpHu7Ru2Da2cuSjsLcaK6EJbgXWU675ECpLVko7U6DzF6nXYd24d3zu+C7XIdClaWw6VvCmfDrnPHUQhp04hMWQ+Z6lY/+0xm2LVso+MLT4iIHmHyxrGfRWgB3H5FrxyFbJM20lb2eXh8aN9fhNLPE7F7Rw5ilZGyOiKWRR/mmnMLkddagS1H3Oro2N/ThPLtVYhZlweb3BQWX4jjnZ3oDF2U4EXaLjR36sEcb0P6chfqqp3w6neK+zudqPrAhaRU2yMT0hPFoCYiMhh5LWh6nLb+pVcbNcvd3bcD2iLrUifbhLS9H68SHbfOBjjkpSNdTtgzrLAmDS2O83qbqExsO7IJpt/lI8ESj4TkLehIOYTqDYl6g/GwYP17x5HT5UBWYjzi45XPyXWgO+s4jrw+/FGu6YNT30REBiVvHJOXmchz0qORkbSEdOLgXPLUmJLHs8Ygrwb1z41C1LDp8QmR69jKqNq0IGrw2e1HCae+iYimAQngtVbt+rM8Jy3BLIusS51sm+qQfhAkXCcV0sKkfMYjGtITxRE1ERGFud8jauKImoiIaNpgUBMRERkYg5qIiMJERESAV0XvH+lb6ePxYlATEVEYk8mEW7eM9PLw6UX6Vvp4vBjUREQUJjIyEtevX9dLNNWkb6WPx4tBTUREYaKjo9Hf349r167pNTRVpE+lb6WPx4uPZxER0QgSJl1dXZg9ezbmz5+POXPmTOi6Kg2RmJXpbhlJS78uWrRI7dfxYlATEdEdyQjwxo0b8Pv9vMHsHskvOHJNWqa7JzKSDmJQExERGRivURMRERkYg5qIiMjAGNREREQGxqAmIiIyMAY1ERGRgTGoiYiIDIxBTUREZGAMaiIiIgNjUBMRERkYg5qIiMjAGNREREQGxqAmIiIyMAY1ERGRgTGoiYiIDIxBTUREZGAMaiIiIgNjUBMRERkYg5qIiMjAGNREREQGxqAmIiIyMAY1ERGRgTGoiYiIDAv4f9zjkIxTMb6LAAAAAElFTkSuQmCC;" parent="1" vertex="1">
          <mxGeometry x="3736.44" y="272" width="490" height="96" as="geometry" />
        </mxCell>
        <mxCell id="dReqOSm1kdml6KpYtbeG-156" value="" style="shape=image;verticalLabelPosition=bottom;labelBackgroundColor=default;verticalAlign=top;aspect=fixed;imageAspect=0;image=data:image/png,iVBORw0KGgoAAAANSUhEUgAAAeoAAABgCAYAAADSMTEwAAAAAXNSR0IArs4c6QAAAARnQU1BAACxjwv8YQUAAAAJcEhZcwAADsMAAA7DAcdvqGQAAABfaVRYdFNuaXBNZXRhZGF0YQAAAAAAeyJjbGlwUG9pbnRzIjpbeyJ4IjowLCJ5IjowfSx7IngiOjQ5MCwieSI6MH0seyJ4Ijo0OTAsInkiOjk2fSx7IngiOjAsInkiOjk2fV19i68pLgAAEXVJREFUeF7t3Q9MlGeeB/AvW72x64FiA9GrU8jtRMxhJxVLE+YglWBTUrZCaTwWroeQqpCzOrmGahqV9XSJV50zobJGYBsVG7u0OcvY2NJUxSztkEigPcM0a2+80o63eBBRxvPqHLhz7+9934EZQARBfYXvJ3nj+zzv886870Pil+d5/xARUICIiIgM6Wf6v0RERGRADGoiIiIDY1ATEREZGIOaiIjIwBjUREREBsagJiIiMjAGNRERkYExqImIiAyMQU1ERGRgDGoiIiIDY1ATEREZGIOaiIjIwBjUREREBsa/nkUPlc/nwzfffIPe3l5cuXJFrVu4cCEWLFiAZ555BlFRUWodEdFMNXVBPeCH74oHHd8D5kQLzAtM+gaNX/kP2Q+T8h9veP3UUb6/1w/MjcJ9+4qbPvj8yjkMO7fp4wH0YQi3240zZ85g3rx5iIuLUwNaSGD/8MMP6OvrQ0ZGBhITE9V6IqKZaEqmvn2tVShISYA1tQjle0qRlZSA5PwqtPv0Boq2/VZY97fppfuhDY4kKxzn9eJd+eFtaYK7Ry+Og/ejUljt9fDq5elnon147y5fvozGxkY8+eSTKCgowMqVK7F06VJ1kXWpk23SRtoSEc1Ukw/qzjrYSxoQs/EELnhacfrTZlxwn0JZTANy11bBPaC3M5xuNB0sRv0f9SI9MD/99BOcTieWL1+OV199FbNnz0Z3t/LzaGpSF1mXOtkmbaSt7ENENBNNMqh9cO53wPOrvagsSkLULL16biLy9pQh74ca1LfodSo/fF/Xo2JjAQo2VqD+wtCQ29dci4r3XMonDlHrTni0Qq8LtXtq4eryoql6K4pXF2NrdRN6xvhFoOecsv/+OrT36hWDPHDuqUKTMjTu+KgCFXucSo1Gjs/xVjGy1m2F44hrzM+Hz4165fxrP/cqZ6ZXhe7/UTt8g/vLd1bA+a0P7cp3luYXoHRPPdyhJzyM54RybCfck++zTuU4dyrHlF+K2hal9UAPmt4tRcHqLBTvHOUYbocf48j+88N7uhbl6jGVo/b00PkHv7PpUrv2nW86R8xAnD9/Xr32/Pzzz+s1wLFjxxAZGakush4kbaSt7ENENBNNLqgH2tB20oy8XybpFSHmZuKd9gvYlaaXRYsD9mM+rHhlPbIXtqFidSnqOrVNfZeaUHvOgz6tqFLrLnRrBZ9HCeg6lP9jOVwLMlFYYsOtE8XI3+MaCokQvnPlyH/LBXNuIZIW6JWD5sGSnARzFBC71AZbskWpkantYmS8Xg//c4Uo+1US/J/bkbGuDt7RwtrvQd3mItTdtCHvRTPkkq73/WKkbnAO7f9hETKUoNJm17vRVl2LA2V2HO1dgbzXs2Fur0D+ZuXz1e0jdV+oRW31lvA+K7JPuM8qdtbBl6wcU9Y81G+0w/6mHQ2mHKzfXAiLWzmG7c6wsPe8Z4fDY1GOsRC2m/UoWlUK5+AlAj9cu7OQtb8D5pfWY/1LZnTsy0Luu+3a5uDPaZMD7vg8lK3W+jZUT08PFi1ahMcee0wtt7S0wGaz4dlnn1WXlJQUuFwudZu0kbayDxHRjCQ3k92z748G8uPyA0e/18tj+OrXcYG4Db8PdOvlQODHwNHX4gL5h3/USofzA3GvHVVqh6h1v/5KK6jflRrYd14rqv6wI/D08t8EtBZfBXbExQV2/CEQ6FPqM5YX3eW4tO+X9qp+Zf/lqYEdTX16haK/LbDv+acDWxpvqcXBY+xX9l37dCBDObbB1vr+YcfX91lgi9S1S0E7vpIPh3pAOyflOL16eZg79VnRsYn02UuBA26tKM5uUz5z21m9pHAfCLwUtyOsD1PfaVNLmr7AZ2VPB1L/Va9TP7Mk8PuQ05DPeEWpa7iqrI/2cxrm4MGDgY6ODr0U7tKlS4GamppAb2+vXhNQ28o+REQz0YN9jnqRGTH6KmCG5Rf66riZETv0AUrRgmVyl3KIvjPlyP0HFzLfO4zCeL1yPL5rR1tvOtJTQx4HmpUEWwbw2fmQm+AGPKhdl4XyubtxYqcNg63V/RMxp68JTaf15XwfTIu9cLuHxsyxC0NOIN4Ci8wHjDW9Pkqf+cdqP8I8RP1cX1WY5PLErJBbun8eNWLEm/5c6AxJFGwpNni/7lBH/n63Gy5rLPDvIef5J+W84ELHRW2PET+nYSIiIgZH06EuXryIjz/+WJ3ujo6O1mu1UbXsQ0Q0E00uqBcrQbPAi+47zEr6e33w3dQLD4izpQ+JK7vR6Ay/dntXfX1qEKlBFmLeE2b4busF0dIA74J0WJR/G/QpaJW6fzf+o9UF1+DigSllPWxxw6PQ4IZlqMk0dPzd17oBnxftYefZB3NJHpaNuMQwOnkMK/jMdKirV6+q095LlizRazTSNvjoFhHRTDO5oJ61ArYX+1D3YePIUOyphz0pCzXf6eW7iI0xjxhZ9vTe6ertnRVur0Tlu4dgaymF/cgE9k9YBhs88ISGr3JWHmUEmbRIGUEGpZVh1/5KHN4MOErK4QqeuNmMFcq40rZuG7a9HbK8tQ3r0+7PSzumqs+G81wK/wz3RZeSrrHK2Smn+QuLMsZORJ5yXqHnKP9mJ2jt70ZeZiLPSff39+s1GrlOLUsoaSNtZR8ioploklPfJmS+uRvp57Ygf3s93F0yjetHz7f1KF9bAVdWGdYu15vehcliQVJLHWpP96g3h/m/rcOBD0Jvk5qAKBt2/UshvDuLUd489ri675q+XRkl56zpQO1vnfCqs+nKeZx24EBLJtbmWtQmocxFe7Hb0oBSuRlMwnJxDvLWuFC7P7i/EvNfV6HAkovawSnhqTWlfRai48NaOC9rJ+G/pHzm+8ovQKvT1RvmkJyDDdFKXU3wjnY/vCe3Ii15KxrHOYUhbxyTl5mcPHlSr9F88cUX+OSTT/SSRtpIW9mHiGgmmvw16phsVJ6shO1yFfJTEhBvSUDya1XwplXiTGV2yPXVu0jIw+63LWjakoyEeCtW/VYJh43L9I33YHkZDu80o8E+dJd0ODNyNqyHZ6cV8fHlaBqIQuaOD7D+dg2yEuKVugRk7PQip3ovskc9iRhk7zmEnK5yFP9Gptm1/Qv9wf3jYX39M8Qoo+/14xxpTthU95ku5+9W4OyGZPUcEtbUwlRyCGVp+nXtWYl442AlLM0lsFq0fkrb40XewW3IHOfEgTxuJW8c6+zsxNmzZ3H7tnZt4YUXXsDLL7+srkudbJM20pavEiWimWpq3/Xt165JmxZEaaOvR9VkXxWq7v+o94P2OlGTEpDDr9sHqa+FHbj3fpI3jsnLTCSE5REsWURXV5e6yHvAs7OzsXjxYrWeiGgm4h/loIdK3jgmLzOR56SDz0rHxMSoy3PPPYfHH39crSMimqkY1ERERAb2YJ+jJiIioglhUBMRERkYg5qIiMjAGNREREQGxqAmIiIyMAY1ERGRgTGoiYiIDIxBTUREZGAMaiIiIgNjUBMRERkYg5qIiMjAGNREREQGxj/KQUREd3Tt2jXcuHEDfr8fjIt7ExERAZPJhMjISERHR+u148egJiKiEfr7+9W/Cz979mzMnz8fc+bMUQOHJk5i9tatW7h+/brar/K396Vfx4tBTUREI/z444/3PAKkOwvOUDz11FN6zd3xGjUREYWRMJERH0N66kmfSt9KH48Xg5qIiMLIiE+mu+n+kL6VPh4vBjUREYWRG8fkmjTdH9K30sfjxaAmIqIwcusSbxy7f6RvJ3J7GIOaiIjIwBjUREREBsbHs4iIDOzG/wEXuoHO68C1W1pd9Bwgfj5gjQUi/0Krm0rfffcdlixZopfofphIH3NETURkUO4e4OgFoK0LuPoT8GdlWCWLrEudbJM2hjHgh+9SO1zfeuG7071SN33wfO2C+7IPd7udyt/rg693tFbK91x2w9XshveOXzR9MKiJiAxIAvhMpxbMCU8Ary4FNj6rLbIudbJN2hgirDvrUJySgIwNO1CxKRfWlFw4Wn36Rk3PqXJkpaWieFsF7K9YkZpfhfbwJkOUzytdZYXVXg+vXqXytcOxJhnWV+yo2GdHrjUVBe+2404fMx0wqImIDEamu5t+0NZTzcCLfw08GQk8FqEtsi51sk1IW9nn4fGg9p/K4V93Gl+eOYVTZ1pxYe8yOEsq0HhTb6IEr32jCysqv0Tzp6dwuqUZm0w1sO93jTKy7oFz3wHAatPLQ9oP2VE3twzNLadx6uRptJ7bBNMRO2q+1htMQwxqIiKDkWvSwZF00kK9chSyLTiyln0eGr8X3bezkZdlgUmvilqVifRepV4f7bs/rYdrTRm2pUVpFbPMKNxYCJx0oikY5jrfKQd2+DZhV5FFrwnyouNbL5atTId5ll4Vn470RC/c7rBx97Qy5TeTdfz3n+H6UwRuDfAZPCKiyZApbhk9j+W/bgD/9kfgiceBv1+mV07SlNxM1upAWkkPtjW/g8y5fjS+lYC6xGYcL9KnAcRAE8otDsQqI+w3/kav8zVi68oamN8/gTeuliO+xoLmY4UI7uWpzkVuSw5O/U6pk7CWKffcRqSfOI7CeK3No+Ch3kzGkCYimhoL/1JfGUOwTfCOcEPwuVC+vQ6WzW8oIS0V3ei+ooyyo+apmwfNkvG3G91XtaKyI5r2VqDtte1DwT2M5fVK7F3cgNyUVchavQrJ+Q1I3H/okQrpieLUNxERTZ0BL+o2l8KVcgiVoaNnhf9/+/S10flbDqCiNRO7SpL0mpG875djS+s8rN2yC7v/eRfKVs9B/Vt21HXqDaahKQ9q218FMGfWlM6mExHNSFf+R18ZQ7CNPFv90Ckh7XyzGA6U4fB2G/Sr0YpYxC5UgnhALwbdlEe0bLBIng+048BOZXRckodlfnksS1nk0asBbV3d92Yjqt7txoZ9h/HGGhuSltuQ9/ZxVK/xwFHdeNfHvR5VfOEJEZHBfHVZe05abhSTu7vH8vl/AhevAisWAX+7WK+cpHu7Ru2Da2cuSjsLcaK6EJbgXWU675ECpLVko7U6DzF6nXYd24d3zu+C7XIdClaWw6VvCmfDrnPHUQhp04hMWQ+Z6lY/+0xm2LVso+MLT4iIHmHyxrGfRWgB3H5FrxyFbJM20lb2eXh8aN9fhNLPE7F7Rw5ilZGyOiKWRR/mmnMLkddagS1H3Oro2N/ThPLtVYhZlweb3BQWX4jjnZ3oDF2U4EXaLjR36sEcb0P6chfqqp3w6neK+zudqPrAhaRU2yMT0hPFoCYiMhh5LWh6nLb+pVcbNcvd3bcD2iLrUifbhLS9H68SHbfOBjjkpSNdTtgzrLAmDS2O83qbqExsO7IJpt/lI8ESj4TkLehIOYTqDYl6g/GwYP17x5HT5UBWYjzi45XPyXWgO+s4jrw+/FGu6YNT30REBiVvHJOXmchz0qORkbSEdOLgXPLUmJLHs8Ygrwb1z41C1LDp8QmR69jKqNq0IGrw2e1HCae+iYimAQngtVbt+rM8Jy3BLIusS51sm+qQfhAkXCcV0sKkfMYjGtITxRE1ERGFud8jauKImoiIaNpgUBMRERkYg5qIiMJERESAV0XvH+lb6ePxYlATEVEYk8mEW7eM9PLw6UX6Vvp4vBjUREQUJjIyEtevX9dLNNWkb6WPx4tBTUREYaKjo9Hf349r167pNTRVpE+lb6WPx4uPZxER0QgSJl1dXZg9ezbmz5+POXPmTOi6Kg2RmJXpbhlJS78uWrRI7dfxYlATEdEdyQjwxo0b8Pv9vMHsHskvOHJNWqa7JzKSDmJQExERGRivURMRERkYg5qIiMjAGNREREQGxqAmIiIyMAY1ERGRgTGoiYiIDIxBTUREZGAMaiIiIgNjUBMRERkYg5qIiMjAGNREREQGxqAmIiIyMAY1ERGRgTGoiYiIDIxBTUREZGAMaiIiIgNjUBMRERkYg5qIiMjAGNREREQGxqAmIiIyMAY1ERGRgTGoiYiIDAv4f9zjkIxTMb6LAAAAAElFTkSuQmCC;" parent="1" vertex="1">
          <mxGeometry x="3731.44" y="368" width="490" height="96" as="geometry" />
        </mxCell>
        <mxCell id="dReqOSm1kdml6KpYtbeG-157" value="Dropdown [splitter, paragraph]" style="rounded=0;whiteSpace=wrap;html=1;" parent="1" vertex="1">
          <mxGeometry x="3735.68" y="478" width="384.32" height="22" as="geometry" />
        </mxCell>
        <mxCell id="dReqOSm1kdml6KpYtbeG-158" value="Chunk character number" style="rounded=0;whiteSpace=wrap;html=1;" parent="1" vertex="1">
          <mxGeometry x="3745" y="280" width="145" height="30" as="geometry" />
        </mxCell>
        <mxCell id="dReqOSm1kdml6KpYtbeG-159" value="256" style="rounded=0;whiteSpace=wrap;html=1;" parent="1" vertex="1">
          <mxGeometry x="4116.44" y="400" width="100" height="50" as="geometry" />
        </mxCell>
        <mxCell id="dReqOSm1kdml6KpYtbeG-160" value="" style="shape=image;verticalLabelPosition=bottom;labelBackgroundColor=default;verticalAlign=top;aspect=fixed;imageAspect=0;image=data:image/png,iVBORw0KGgoAAAANSUhEUgAAAbEAAABhCAYAAABYmZ8qAAAAAXNSR0IArs4c6QAAAARnQU1BAACxjwv8YQUAAAAJcEhZcwAADsMAAA7DAcdvqGQAAABfaVRYdFNuaXBNZXRhZGF0YQAAAAAAeyJjbGlwUG9pbnRzIjpbeyJ4IjowLCJ5IjowfSx7IngiOjQzMywieSI6MH0seyJ4Ijo0MzMsInkiOjk3fSx7IngiOjAsInkiOjk3fV196iwYfQAAEVhJREFUeF7t3X9Q02eeB/D3VqbRYkNLBVvHDPSk9gfKnnHsDCn0zOq12MyppVMdXZeDuW61p7feWFbPcXUZeozTynXWVnerdAuyXTR1zlVbVpwRw4gNnXrgaU2n2HhSQ38Ilk5Sf6WrzT3PNw8aIAH5EeCL79dMzPd5ku+XwB+8/TzP8334SUAAERGRDt2hnomIiHSHIUZERLrFECMiIt1iiBERkW4xxIiISLcYYkREpFsMMSIi0i2GGBER6RZvdh4BPv/8c7S2tuKbb77BV199hbvvvhsTJkxAYmIi7r//fowfP169k4hoZBkZIXbND5/fAGOsaveX3wcfjDAaVHuYksFVXV2NL7/8EkajEePGjcN9992Hy5cv49tvv9Ue169fx7Rp0zBz5kx1FhHRyBG1EPPsWYllZW7VCoozTUdq2nTMz85CakJfE8KDfauWYfvEdahcZRFtN0qenY2iL+Zh86HNmBcffFefXarCmsxlsCfko/LgCqSq7uHG6XSirq4OsbGxeOKJJzB16lT1yk1erxdHjx7FZ599hrvuugsvvfSSeoWIaGSI3pyYrxWukx74rqm24PXUo2rbSthmZCBvm0tUO33jbXXBdePkRKQ+bkGq+SGYBqJyMqQiNSMVljSTqMWUumLY5q7EvmbVHmLff/+9FmDp6elYtmxZ2ACT4uLiYLPZkJubq1VnNTU16hUiopHh1kOseTcwd4V4Vu1bMgW//H0lKvfffNTW1aL0X0yo37gIK9/1qPf1hxGWtRWofHsFzAMxnBhjQs4blajYNA8m1YVrPhHIrfCGBPJQOnLkCO69915YLLISDbpy5QpcLhf279+vVV9ybqydHGKcP38+6uvrcfbsWdVLRKR/owoEddw9oyh9dn4C2J6RudEj3//+N0rFf/ytuc/hp/eoTikmDg/+wxw8+OU72FLxHR5Z8o9IuVO9JonAcB+24x37B3AcrUXjdxPw0KR4GG7ErQ8n/lIKR/xz+PeZwZhx7ynCH5wx+HuzCVox1rgPRSW1iEmdAvxPBba89jtU1LUi9tHpePBuwN/sQOnWt7BlxyG422Lx0BQTYkOu7/xjMcqbJuDJR2OCx4dPoKHxa3Hi13AdaxTXnQ7TGPX2Njcc9ndQccCB2qON+C7xITwyLrQkDLne+CbY//AO9tV8hwmZj0Ab+ez0/X58JgamR02Ii9FO7uL06dPaUGJWVhbi44Njp3Lua8+ePVqFJgPr0qVLOHz4sPaayRT8Gcn3trS0oKmpKWLlRkSkN91XYnWvi+prvnhWbfwdMFE8denvLSOyFuTA1HYAzgbVJflc2PJCBma/8CaqzvjgO+NEecFsZMwtgrObsceWkyUoqXHDq9poqUfJNgeqti7D4gIHfHeJoDtYhLzcIlSJZ9vcDTggKkqDV15/MWat3IdWdSrEVdw14nonW7TjVpcTTpesGEX/CXFcdwqtl7U3wndyC/Jmz0be1ioRhiKMasux/ukM2F5xhgyVquvV2VG0KBvFlfIan0NeHdc8KJff7+oSOJv9WiBWbV0M29JyeCJUfefPn9dWH06aNEn14MZCDrl448knn9QCzmw2o7m5Y9mclJSkrWD84YcfVA8Rkc7JhR3d2rU8EPineYHApvfUQxzL9i6PekN450oXBZKSFgV2nFUdnV08EFidlBRYVHpOdQQC9f81K5A0LbfjOWd3BHKnJQUyXq1XHecCO5YkBZJ++6FqBwIf/la0l+wQryhH1ouvLc5ZdzjgVV0Br/h64jqdP1PXz9n1+sHrdfpe/lYf2PRUUmDqP4uv+zfVJ5wrzQ1MTcoIbPpYdbRfL2lWYL3jxqfRXK1aLd77TODNE6pDkt/vz54NbHJeVR0dvffee4Hdu3erVtC5c+e0R6jq6upATU2NagXJ9xQXF3d5LxGRXvU8J7ZwC7B/L/CEqEaO/Fk8i2PZXihLsn6INWpDf6c8al7sUhXs77qRtfY15CQHuzTJOch/IRWeXXvh7NWclAnznrPeHPk0piJVLjXMzII15PqmmVmwwAl3L6fn/NV2lDdmYd0mUVGGDP2ZcvPxYpqosETF1YHt35A/s+M4rP+St+viFvH9llbvQX56+FUqspJKSEhQrSA5ZNg+bCi9//77OH78uFZ5hWq/X0xWc0REI0HPIWZfERw6/FD8kvz5GvEsjmXb3s+letf82tOU9l++X7hxqg1oqd2Ooo1FHR57XeL1NjfcvfqSJiTeqw6jwH3mlAigFjjf7vhZizbuxSkRtr4zbnTIRRE8nacSjbNzkPOwC8W5mcj7dbEIvga4fcGfSyTyfjC5iCMSORcm582WLl2K5OTQ/w0Ehx0leQ0iopGg5zmxP4vkWCsqr3xReR0Vx/nieO2Tol+EW5/nxITTLtSLJ1NCYrD9bQtkVnnkHFRdp4dIg9S0hIiLHYaCt0X7tHB1/qzi4YkRVV9CXPCN3TFaULi/FqVLLYBrH4qXZ2N22gxkLi8JuYWgI7kTh5z/ikRWYHIl4tixY1XPTfLmaEnu5EFENBJ0H2Lpq4JDh+niWC4S+ELVFqH9fdTwgV2EVhbMj6thM1MK5ILxOes7Lsm/+diMef0cwRxIpmTt02LdnnCfVTxeD1mi3x2DCdalr6L0r7U42XgSh96YA0NlEdbv7HijeDsZQDLE5I3M4bz88ssdFn2EkiEm7x27557Q5aJERPrV83BiB//Xy/vEwmutXIPVv/cg5VcvYmH79I4IBes0YG9lVZd5Is/BctiPe9D9QNvgMqVbYcZeVB3s8mlRVWZHg1xt2IPWT+3aKsobKyMNRqTMzcH8h0XIf62tX+xC7oUot5KS94KFI7ehCjfnJYNP3iDdeYiRiEjPbj3EJj4vqq8twSX2t8wLd50DjkPBh33bBix7dgZmLLfDO7sQpb8yq/dJKVi4KgeJu1dj0apyEQI++No8cO0W56zdgJIPernyYiCNNYqq6hQcf22Ap7k1uAvJwwuRn5sI+/pFWFkm+tvE5212wf6bZVhdUIIDt/JxP3PgzY2rsXqbOl/ec/bKemxvNGJh+nT1po7k4gy5F6LcSircsGKkKu3AgQO48847YbVaVQ8Rkf71shLrLRfK1+Yh74XgY42oOjz3/Qzr3q7F0bc7ruqTjJmF2Fm2EIkfFyM7Iw1p5kzYfn0Acc+XYudaS/BG5qEw7UVsXjUFp17LRmZGNrZ/IjuNsPxmJ0qfT0TDG6LfLD5vhg1rDsZhYdlOrIuwujBUQvZrKBPXdW9T55tnI28/MKdAnP905PPl/WByL8SysjKcOXNG9QYtWLAAkydPVi3g4sWL2i4esjp76qmnMGrUKPUKEZH+Ddtd7P2iMtEG5GKH0W7ycrf8y3J1X6cPJPvVqkJDfPDWgV7p4/lyL0S5lZScA5PL6eUu9rJSkzt2yNBqa2vThhBl4MnFHg888IA6k4hoZODfE9M5uRfiRx99pN0/9uOPP6reILmUXlZlmZmZuOOOKBfdRERDgCFGRES6xf+eExGRbjHEiIhItxhiRESkWwwxIiLSLYYYERHpFkOMiIh0iyFGRES6xRAjIiLdYogREZFuMcSIiEi3GGJERKRbDDEiItIthhgREekWQ4yIiHSLIUZERLrVq78n5vV6tT93f/XqVVy/fl31EhERDYxRo0Zh9OjRGDt2LOLi4lRvZLcUYn6/X/tz9/Li8qJjxozRjomIiAaSLJCuXLmiFU3yePz48TAYDOrVrnoMMRlgzc3NGDdu3C2lIhER0UCQQXbhwgVMnDgxYpD1OCcmKzAGGBERDTaZOzJ/ZA5F0m2IyRRsH0IkIiIabDJ/ZA7JPAqn2xCTizgYYERENJRkDsk8CqfbEJOrEOUiDiIioqEic0jmUTjdhphcGcJViERENJRkDkW6ravHhR1ERETDFUOMiIh0iyFGRES6xRAjIiLdilqIeY454Pi0VbUoEk/ZYiQnL0Z5k+rojaZyLE5OFueHPvp4LSIiHYpaiPmOFSPvP+xwqXbfeLBvlQ22VfvEUYivHdiyfDFsszKR+YwNeQV2NLSp1243uRVoamq68ajIdWLDzGRsqFWvExGNYFELsdR0K0wn61HfrDr6yNvqgqs15E5tUX3k2fKw/awRll+sw7oF0+GvXIPsRUVwXlLvuV0k56CiwKIaQZaCCuSI5/JqZ7CDiGgEi96c2FQLrPEOuE74VcfAaNhTAgcW4rVdb2FdbhaycgtRsSMf5sYSlB/0qXcRzrg7Vq9ERCNQ9EIsZjoss4ADx+pVx03uPUUo+qMTvms+uPeXoGijaG8U4dTcU+D5kZBeiNKtK2A1qi7pMTOmiCefL6Riu+aHr21gA7SD9vmoX5QPr7BocsMtnyelwKR1EBGNXNELMRiQ+lMrfDVONKiedi0nS1BS0wD7+llYtHkvnHVOOESw5WXYUFTXXfAYYEq3wppuEkchjonzxZPR2L7Pow/7Vs1AmtmG4uOqa6AlpyBFHQ4fcj5sg/jXgsLcjsOMREQjURRDDDCZpyO1yQHnp6ojVO12OB/eiaPVlajcX4lD1aXISXaj5N0qEUG3rrWmCNlLt8D7WD5enNtenhlEoAVjbnTUds0SQSEXU/wpZwAqHhGIyeqwr7TKcDHK5eeqqRA/S9VPRDSCRTXE8JgF1mQXnB+HGXCLn49fLkm5WVEZrZg/V8RBZT1Oqa6euLZlY1auHf6Zhdi5awXMMeoFcVXrfx5DY+MhrEhTXSNaSAXGACOi20h0QwxmWGYa4XS50GWQMDUFphuhE5QQ34ua5lIVyjc2IG7JZux8PQepoXNkSjd/0XrYME0agEHJWvGzEE+WglcZYER0W4lyiAHTZ8wBqp2ov6Y6Bkpri7agwvq0FWHy67aUMolLOYjo9hL1EDOkW5DV5oDzE9XRKybk/CnCvNPEhXir4STyH1dtvcosRFNTIfq1DEO7RhMKM1WbiOg2EfUQQ7wZlkwPHHV93Lvjkg++cDcxxxi0+TQ9DBkSEVF0RD/ERA01ZZoJrrr63t9PdcmBDTPTkJa5BlWdgqx1zzLMMKfB9kb4cHS+boNtbhEcoZNxoXsN9vv+Lic2yOsU9G9nDGdB8PP0Z5uo4P6LyVhcNqzuWCMiirpBCDHAPMMKY62z9/sbGuJgjBfPCcYI815GGDotDgnywH3cBZdpCqbfqNQ8KF+/ASioRVNTLQqxAWv680tf3VScM4v3YxERDZVBCTGYLZiDKtSfDDYtBeHnuUzaZrYh80MxZuRXNqKxch0ssapPSch+C8caj6HyX1NVTygPPKJAs8wwR2/Rh8etLWlP6edaCu1n0c/5rODPTW7+y4UdRHR7GZwQi7XAYgMcDZ337rgFcu4rbLUl58MiTIg1iyqpLRWWx0N/qZuQ80qhqMQykZycKeqwQrzaj1/6zupyIDMLVi5pJyIaMoMTYqIemre1CbWrzKodZa0tcCdbYXlMtdvJXd/lLhv93mnDA/cZUUXNsvbjGkRE1F8/CQjquIvTp09j8uTJqqUjfrmi0QBjPJcuEhGNBJHyaJAqsUFmMDLAiIhuAyMzxIiI6LbQbYiNGjUK169fVy0iIqLBJ3NI5lE43YbY6NGjceXKFdUiIiIafDKHZB6F022IjR07Fl5vyF9LJiIiGmQyh2QehdNtiMXFxWllHIOMiIiGgswfmUMyj8LpcWHH+PHjceHCBQYZERENKpk7Mn9kDkXS7X1i7fx+P86fP69NrMk0HDNmTMRJNiIior6SVZecA2uvwGSARdydSbilEGsnL3rx4kVcvXpVuzgREdFAkgWSXMQh58AiDSGG6lWIERERDSc9zokRERENVwwxIiLSLYYYERHpFkOMiIh0iyFGRES6xRAjIiLdYogREZFuMcSIiEi3GGJERKRbDDEiItIthhgREekWQ4yIiHSLIUZERLrFECMiIt1iiBERkU4B/w8TcWKblQWxgwAAAABJRU5ErkJggg==;" parent="1" vertex="1">
          <mxGeometry x="3735.68" y="515" width="312.47" height="70" as="geometry" />
        </mxCell>
        <mxCell id="dReqOSm1kdml6KpYtbeG-161" value="" style="shape=image;verticalLabelPosition=bottom;labelBackgroundColor=default;verticalAlign=top;aspect=fixed;imageAspect=0;image=data:image/png,iVBORw0KGgoAAAANSUhEUgAAArgAAAAwCAYAAAD6vAmzAAAAAXNSR0IArs4c6QAAAARnQU1BAACxjwv8YQUAAAAJcEhZcwAADsMAAA7DAcdvqGQAAABfaVRYdFNuaXBNZXRhZGF0YQAAAAAAeyJjbGlwUG9pbnRzIjpbeyJ4IjowLCJ5IjowfSx7IngiOjY5NiwieSI6MH0seyJ4Ijo2OTYsInkiOjQ4fSx7IngiOjAsInkiOjQ4fV19qV7LPgAAEGJJREFUeF7t3QmYVfMfx/Fvi0pKURGylBZSEVF4hPhnl6VHHs+QpQdZHvvSQ/YlxKMispbJUvYtFUqIlIQWRZSippoWqolS53/ev3tOzv/OnZk7zb0zzfl/Xs8zz9x759xzzz3n0ud8z/f3u1U8n4mIiIiIxETV4LeIiIiISCwo4IqIiIhIrCjgioiIiEisKOCKiIiISKwo4IqIiIhIrGgWBfm/8tNPP1l+fr4tXrzYFi1aZHXr1rVdd93VdtppJ2vcuLHtvPPOwZIiIiJSWVV4wP3nn39sw4YNtu222waPlM3atWutVq1aVq1ateCRzPv777/d75o1a7rfsvVbtmyZffzxx/b777/b9ttvbw0bNrQGDRpYQUGBLV++3P1s3LjR2rdvb0cddVTwLImDJWvNlhaYFaw3q17VrH4tsyZ1/f9+qwcLiIhI7FS7wxfcziiC5iuvvGL33XefDR482N555x1XNWvevLnVrl3bLbNmzRq74oor7Nlnn7XDDjvMdthhB/f4lhozZox1797dheZOnTrZunXr7M4777Tvv//e3c8EAlLPnj1t7Nix1qVLFxemywvVx6uuusp22203a9KkSfBoxcnG9nz11Vd28803W9u2bV0ALc6jjz5q7733nh166KG2zTbbBI8W9uWXX7rlNm3aZEcffbSdcMIJtu+++9qee+7pPo/t2rWzffbZx31mp0+fbt99950dfPDBwbOlspqVbzb2F7Mpi83mr/L/211ttvBP/3O7wmxqntlqP/A22s4Putk7FxYRkQqSlR5cguzFF19sgwYNsj322MO6du1qe++9t7344ot20UUXuWAEwmHr1q2tRYsW7lJxWRGyDjzwQPeaINCsWLHC/vjjD3c/E+rVq7d5m8NQRSjLycnZ/L4y4fXXX7dLLrnEbX+ISvfChQs3V5ArWja2h3WxTtZdEo4r+4fjXJTVq1fbF1984U6gLr30UhecU+G4nnTSSXb++ee7qu4nn3wS/EUqozF+sP1ontnydcEDKRCAX5xh9vPK4AEREYmNrATcl156yZYsWWLPP/+8PfTQQ9anTx/3m4BLgHnhhRdclbV69ep27bXX2oABA9wl47Lab7/9LDc3184444zgkcyrU6eO9evXz2677Tbbbrvt3GOlCWXporrNPiwuvEnJPv30U3dlgCpviMr+zJkz3VWFzz//3PXihqgan3766TZ16lSbN89PSFLpjJprNmd54nadGmZH+Oe7PduZXXmw2aUHmp3WyqxVcHFg/Uaz9/3l561K3BcRkXjIeIsCl3lHjBjhgsJZZ51lNWr4/8IEdtxxR3c5mOonA3qqVq1qb731lk2ZMsVdIibwzp492wVgqrG0FgwcONBVSLmcXL9+ffvll1/sySeftJdfftlV55o1a7a5kkpQefrpp12gITATOD/88EMXSqN9latWrbI333zTXbamuvfXX3+5y+y8PgisrJ+Aw2uyPWwDl7UR/q1p06bu9kcffWRz5861P//8013iZlsJUOyH3Xff3VUHo/jbc8895wY2JV+G5z3xHtguQjMDolie12b977//vmuNIPgOHz7cxo0b5/pL2Q/pbD99w/Sass/ZvgkTJthvv/3mnh89VmA9VDJfffVV++yzzwotx+umsz2h5PXxfjjO0faCX3/91caPH28nn3yyNWrUKHjUDyD+ewnXT6W8ZcuWbh/xeeMKQfK248cff3TL0JIQtr/Qa/vGG2+4/cy+5/mss0qVKu5YgWWXLl1q8+fPL7LiK1unqYvNvluauN2svtnpfpil37aW/1Gs4j9WzT+lr1fTrLn/caAXN6zeLl5j1nYn/4yfhUREpNLLeAWXAEVwWLBggQsJUYSI/fff3zp06LA5/NDvSI8kFV3wnLffftsef/xx69+/vwtjH3zwgevLpKeXS8iEIILK3Xff7SqpBCcQXHlu8utGEay6devmgjP9tATqa665xq677jpXNQXbwjbxuldffbULwwRXAnP4N7abUDdnzhz74Ycf3DYQyL/55hsXmgjYPJ+fKJ7P+/j2228LhVvwGrwW75EASCUxfO0Qj3G5nfBOQO3bt2/a28/l97vuussuvPBCmzx5sgvR7IszzzzTBekQ62KdVN9ZhlYAlrvppps2v06opO0BQZ1+XfY1x4Dt49zq3HPPLbFSSgA955xz3JWBSZMmufDOdrB/ikMFnNYXwnYoHFTGCU/nzp3t+OOPd20tvMcoTlLy8vJs/fr1wSOytftnU6LfFo1qm53UwqxGMf21VHG77JW4TT8u4VhEROIh4wGX4NqjRw9XFWUw1iOPPOICDEE1XYQ7BqLRh8pAopEjR7qw9MQTT7jgSwWXkHj99de7kEb1NB1sEwPRWrVqZe+++6499thjro3i4YcfdhVOgloUYZUgyICyIUOGuAp0FDM/3HPPPS7QEWh5r1QZqVBTDSTMs33RoEfoCgcxpQq4vAavRZCnb3no0KGFXptw+Mwzz7hL7IRY9gNVT0JzVKrtZ3n2AWGVCi4DAKloMrMAlePwZGHixIk2bdo093f2Ey0m/J2TB7Y/qqTtYaIOqsgcJ/YPlXOW5XWZ7YJjGr5uMk5C+AwcdNBBLkBzAsP7OeSQQ2z06NHBUqkRUJOPGbiyEN33bF/y9GAcT05gOF5SOfy4ItFygEN2TVRsS9KmkdkudRK35/zb7i4iIpVc1qYJI1wwyIwwwiVrLjdz2fm8885zl/ZDzHJAiCBA0dNKzyRVR8Jsx44d3TJURG+44QZ3O1wOVBx79+7tQibVuFmzZrn7VHa5Hz6P8HL77be756QSDopjBgZCefg8AiyzQESnA0u1TraZkMs2MwAtRJCkWkpAZPopjBo1yu69914XHAnARRk2bJirvBIcw/7k8P0RWtnOECcQVFCpcha3/QRt9i0BnxBKRT3Edj3wwAOb3wMnF+xrjmFRMwqkuz2EVJY74ogjCr0uJy/0YIf7I3lfsl3sQ+6H+xBUYS+//HIXYKOfiSi2nZaYI488MnikME50aGWggr3XXkE5z0fllufzXK44ZFN+gWfj5nmWV5CVlvj/O7QjXPzvR6VE0/xzmM8WJG6f3XKd1dlGU4OLiFQkWlhpPeT3lsrav6j02BLkqO5RrSNAMA8poYdLzsXhsnI6syoQlKJhKV0EPS51U9W85ZZb3MwOXMJPRlWzLHPdEsjosw3fL1VKAj+BkZ7jLRU9QQD7KtU8wsnbTwsHYZ4TAwbK3X///Zt/2Eb+TisBmHWA2Sguu+wy1x5Cry2hMpWStoeqLz+csCQfrzZt2riqPyE4Ffpg+SyF/bEhgi1BvTi8fwaUFYX3TLgljEfDLWhlAOvINoXbzNqhlDP3NYj8p7NmQ+n/fyIiIpnFFdSytghm/V9VwgtVNEIS1TJu0xZAmCpvFKuZyYER9fSCEnAIYlSVyxI4i0LVmqDIgC7CIX2eM2bMcI+VJThvKXpWCfe0gBDwoz8M3CLkhdu1yy67uOPUq1cv12d84403uqo4fbRhCE4XA7qo6BeHKn8qRT1OUC7pzI5vKCsqlIMWDGZMSFX9DV+XE5RsU7jNrGqlzKjRgWWep4ArIrI1IOSWRcb/ZWVuUkbKpxo4xGwChDsCDwOhyhvVQHpBzz77bLeN9KDeeuutbvL/VKPwy4oQduyxx7qqKSGRvlZ6iw8//PBgifJFWGOGAAZ20cua6idsCwHBj7l4aZWgn5dWAWYloHe2NGjnoMqbKqzyWaBaSr9xKoRuqrAsF0U1vKRBZrxfAm5R8yAzEC46AC2KEM/nlVkosq1xbU0Fl0kbS9lhsCmyfJUqak8QEdkalKU9ARkPuFQIGWzFgKTkEEtvKAO5CHnZ/CrdohCUGGhGL2i0gvrzzz+7KbCygQFn/BComWWBPtPkAU3lhbDGtFfM/ZpcQWfgGNOdhYO9OE7MWhDeZ38dc8wxrtJNYC8NpmAjwNKiwmcgxOeD16RanNzmEDrggAPcZ4re3CiO2ddffx3cS43WBgY38n5TYXtSDSIjFBPkk9sWsqVL0yoKuRm08q/gRpqiXwah/lsRkYoX9uCWCYPMMmnTpk3esGHDvHbt2nlXXnmlN3HiRC8vL8+bMGGCd8EFF3itW7f2hg8fHizteXfccYfXu3dvzw8x7j7Lde7c2Zs5c6a7D/7GMtHlwDIsy3NS3Q+fx2sgPz/f69Gjh9erVy9v9uzZ3rJlyzw/5Hjdu3f32rRp4w0dOtQtl/y8qFR/mzRpktehQwdv8ODBnh+UPT9EB39JGDFihOeHQ7dt7I90vPbaa26d/PYDpbdhw4ZC7y/E++jWrVta2z99+nS3LRwL1sdzx44d6x133HHueIX7l9dt3769N2TIEHf8Fi1a5PXr188d19GjR7tl0t0e+EHW69ixo9e3b19v/vz5bn2DBg1yr8Hnhc8Nko8/77tPnz5ep06d3H5kW6ZMmeLl5OS45ZI/E8nGjx/v9e/f3x37ZKxvzpw5wb1/5ebmegMHDvT8AB48IpXBzGWeN2By4mfuiuDBNIyclXjOsO+DB0REpNLLeAWXy/IMJKNnk2miuM1lb/pc+SIGpuSiRaAiMDUU35xGP6gf6Nzo+AcffNCN9C/qEnk6mMKKdTATwCmnnFJoui4GlVGx5nI4g6rSwfbxwzy/rDt5ntYtxeszwIy2gBNPPNHtA2ZWoLIc/XY25gpm8B2VeI4ffcsMNOO4UsktLb4MghYH2jSYmYD1jRw50rUJ8BkparAgPdzMeUsbCTNusC1+ELdTTz3VPVYS5rvligHTrfElIVFMF8YXRoSoLjMgkqouXx5REVcZZMu13PHfeW8nL/JP3hM3izVjWeJLHtCq8IxyIiJSSWVtmjCwavofuRRNUKGnsaggU564bB32ZbJNmQoyvE9aIPjmtKhwmiymSWM6stKgRYD1phoIVVb0tbJ+BtoVtX5em33FccvEvgr3PZ8N1sfnIl0EUNpMmKWhtIP0aBGh7YITGb7EganXaBVhnQTalStXurYEwvBpp53m2iak8uHLGiYG3UZ8k1nXZkV/2QNf5zsmOOepW8Ps3Lb+CZXG+4mIxEJWA64kUKl86qmn3BdUNG/ePHhUyhsDH5kxggp+8uhMpgOjmkt/dlkb26VijZprNjf4Ct46fnBt3zgRdrf3z4k2bDTLW2v2Q34i4IZOaWHWNPvjCUVEpJwo4GYRszTk5ua6ablycnLc5fjSVCwlO5hbj6otP1TbqeQyu4TEB5XZaIAtCtXd/zQ121uHX0QkVhRws4RL8UynxdfT8rWy9IKqp1Ok/MzKN5uW97+zJES1bmjWcbdEe4KIiMSLAq6IxNqStWZLC8wK1id6bOvXMmtS16ymLqaIiMSWAq6IiIiIxIpG04iIiIhIrCjgioiIiEisKOCKiIiISKwo4IqIiIhIrCjgioiIiEisKOCKiIiISKwo4IqIiIhIrCjgioiIiEisKOCKiIiISKwo4IqIiIhIrCjgioiIiEisKOCKiIiISKwo4IqIiIhIrCjgioiIiEisKOCKiIiISKwo4IqIiIhIrCjgioiIiEisKOCKiIiISKwo4IqIiIhIrCjgioiIiEisKOCKiIiISIyY/Ree1PRERdWd9AAAAABJRU5ErkJggg==;" parent="1" vertex="1">
          <mxGeometry x="3700" y="662" width="580" height="40" as="geometry" />
        </mxCell>
        <mxCell id="dReqOSm1kdml6KpYtbeG-162" value="0&lt;span style=&quot;color: rgba(0, 0, 0, 0); font-family: monospace; font-size: 0px; text-align: start; text-wrap-mode: nowrap;&quot;&gt;%3CmxGraphModel%3E%3Croot%3E%3CmxCell%20id%3D%220%22%2F%3E%3CmxCell%20id%3D%221%22%20parent%3D%220%22%2F%3E%3CmxCell%20id%3D%222%22%20value%3D%22256%22%20style%3D%22rounded%3D0%3BwhiteSpace%3Dwrap%3Bhtml%3D1%3B%22%20vertex%3D%221%22%20parent%3D%221%22%3E%3CmxGeometry%20x%3D%224116.44%22%20y%3D%22400%22%20width%3D%22100%22%20height%3D%2250%22%20as%3D%22geometry%22%2F%3E%3C%2FmxCell%3E%3C%2Froot%3E%3C%2FmxGraphModel%3E&lt;/span&gt;" style="rounded=0;whiteSpace=wrap;html=1;" parent="1" vertex="1">
          <mxGeometry x="3880.68" y="657" width="30" height="30" as="geometry" />
        </mxCell>
        <mxCell id="dReqOSm1kdml6KpYtbeG-163" value="1" style="rounded=0;whiteSpace=wrap;html=1;" parent="1" vertex="1">
          <mxGeometry x="4264.44" y="662" width="30" height="35" as="geometry" />
        </mxCell>
        <mxCell id="dReqOSm1kdml6KpYtbeG-164" value="" style="shape=image;verticalLabelPosition=bottom;labelBackgroundColor=default;verticalAlign=top;aspect=fixed;imageAspect=0;image=data:image/png,iVBORw0KGgoAAAANSUhEUgAAAkIAAAAwCAYAAAD90hXjAAAAAXNSR0IArs4c6QAAAARnQU1BAACxjwv8YQUAAAAJcEhZcwAADsMAAA7DAcdvqGQAAABfaVRYdFNuaXBNZXRhZGF0YQAAAAAAeyJjbGlwUG9pbnRzIjpbeyJ4IjowLCJ5IjowfSx7IngiOjU3OCwieSI6MH0seyJ4Ijo1NzgsInkiOjQ4fSx7IngiOjAsInkiOjQ4fV19pC1Q7gAACPJJREFUeF7t3XlszWsex/Fv1a2r9q2KGTvX2IIrMUMsuYkliNj9YSfE8gex/W9JELGESEQEGcaWiD2IJYhrSa4rM2MQ+8TS9tpKq0Ypcz7P+Z3rzOlpe07vtHX93q+k6a/P72wN7fn0+3yf55fwKcAAAAB8qJz3GQAAwHcIQgAAwLcIQgAAwLcIQgAAwLcIQgAAwLcIQgAAwLcIQgAAwLcIQgAAwLcIQgAAwLcIQgAAwLcIQgAAwLcIQgAAwLcIQgAAwLcIQgAAwLcIQgAAwLcSPgV4x4jR7du37dmzZ5aWlmZPnjyxKlWqWP369S0lJcVSU1Otbt263i0BAMCXjCAUh6dPn9qpU6fs8ePHVrVqVatdu7bVqlXLcnJy7Pnz5+4jLy/POnbsaL169fLuBRRf5n/M0rLNsnLN9IOaVM6sVkWzhtWC5wEAv83/LQipSrJw4ULLysryRqIbN26cDRs2zPuqZIVeU/Xq1W3RokVWs2ZN78xna9assRs3btjSpUujng+5ePGiXbhwwSpVqmTdunWzdu3aeWc+e/XqlZ0/f95u3rxpycnJNn36dO8MEJ8HmWY/Z5g9eu0NREhKNGufYtalvlkiE9wAUGwl9iv03bt3dufOHXv9uoDf5KXg/fv39vDhQzt8+LDt3r3bomU+hZeMjAz7+PGjN5Kfwp1CUNeuXW3atGlRQ5BUq1bNBgwYYBMmTHBVojNnznhngNj9+Mjs4O2CQ5Dk5pn9lGb2t3+ZpWd7gwCAuJXY1Nj169ddRWTSpEk2fvx4b7R0hV5DmzZtXNVn7dq1+UKMKkZXr161TZs2uamuaI4cOeLCkr6XkLdv39q9e/fs7t27rpLUtGlT1ycUonP79u2zoUOHWpMmTbxRoHBn/23291+Cx+USzL5PNWteMzgdpq/fvg8EpCyza0/NHnpBSdWhYa3M6iQHvwYAxK7Miurqpbl8+bKtXLnSTUvt3LnTMjMzvbNBakRetWqVm2q6f/++rVu37tfbvnnzxrtV0RSEFEbWr19v2dnx/fl869Yt9/zhPT/qBVKFSeOadtNj6jVp+ixEwahZs2Z26dIlbwQo3I1nn0NQ3Upmo9ua/eUPwYCjECQVvzFrEQhGQ74z6/bH4JiqQ6cfBI8BAPEpkyCkaSP17KjCcuLECRcWVK0ZPny4C0chCkYHDhywkydPusrO8ePHXdhQOJo4caJbtRWLypUr25gxY+zKlSvu8eKhSpBWhSnYhISaoxWOevToYf369bNOnTq5abhwjRo1svT0dMvNzfVGgIJdfhL8nBwIOwOam9X4Nvh1QVQtUo+QZAT+LviHF6IAALErkyB09OhRF2pWr17tjhVOjh07Zq1atXKB6MWLF94tg/bv32/Lly93vT4HDx60LVu2uNuomqRepFgosPTu3du2bdvmprNipSATrYl65MiRbsVYiGYYI5fNa6pNvUcKU0Bh7r40e+39V/5zg0B4TwoeF6VL4LbVvcCkihIAID6l3iOkaaTZs2e7Ko3CTYUKFbwz5hqSZ82aZUuWLLG+ffv++hgDBw60efPmWUKCNz8QsHHjRtu7d69t2LChwB6cyNegADRz5kxXvVFFqnz58kX2CGk6rn379tazZ09vJL9Dhw65KTSthmvcuLE3aq4SpPvrvp07d/ZGS8aznE92+v4nS89hCdHvmabAZnz/eSosFqokXX4cPB7z3Vv7tnyJ/EgDwO9KuXLlLCkpyX0uTKm/a2q6S1Na2msnPARJy5YtrUGDBvkqNurxCQ9B0rp1a1et0Z4+sVLPztixY13zsypSsdB+QWqMLsjp06ddCNJqsvAQJJpCEz1GSSMEfR3C+4FilRLWJP06N847A8BXSjMysbSmlPo7p5bTF9WwrI0Lw6l6FEn7+VSsWLHQZe/RDB482FVoNm/e7Jqxi6KVYOoHKoiqSUOGDHGvJ1Lo+9CO0yWNEPR1KF+Mf8ZvEr2DgLxPBCEACIklI5T6u6f6aDQFpUtURNJ+Paq+NG/e3BsJ0n5EkUKN0mpkjocCy5QpU9zz79q1K+reQuEUYhSEtN9QNHPnzv2fRupweg7tLaSVZSUtNTm+QIgv04di/DO+z/MOAhITmBYDgJCipsWk1IOQgoGmtbRSLHLV17lz51y1qG3btt5IkHZrDl9a/+HDBzemqaiGDRt6o7HT42vTQzVpF9XIrGuHaam/ni8aXXIj2mMoPKnnKXK6rKT80CSBMPQVeJoT+AsmzizzS3AG1qmaRBACAAn1CBWlTDZUvHbtmmuYbtGihfusisnZs2fdKrJBgwbZ/PnzXSNz6DFUlVFDtI71je3YscNVcxYsWGCjR4/2HjW/wl6DgtWcOXNcj0+HDh0K3VBRO0Rr6b3CU/hKMdmzZ4+7v/qbwm3fvt1evnxpM2bMsMTEsLkLIAqtGjviFT5/CGTntnWCx7H46z+D1yTT3kOjWnuDAICYlEljiSoyy5Ytcz00Wh3WpUsXW7FihY0YMcKtGlMICjd58mTXJ6TVY+rv0RJ6rSIbNWqUd4v4KXxNnTrV6tQp+h1H+wXp2mFbt251O0aH0zL68BCkjR71+lQl6tOnDyEIMWlWw6yqt3bg0mOz7Bi3ntJqMYUg+VP0HA8AKESZXn1eT63eG011qdcnchVZqKKzePFitw+QeojUAa7ptciwVBpClSGtPtNmiaogqedJ4UfBRxUgTYcpNKkpu169et49gaJpH6AT94PHqu70aVr4popX0s1+9PbwpBoEAMVTpkGoKJFB6EugS32ov0lL9yO70bVMXtWh7t27x9SgBUTiWmMAULoIQsWkypSqQPrQtJ0qQzVq1PDOAsWnq89fie3qMW5X6T5NzFLz7zABAIjBFx2EtM+PmqL79+/vLr8B+MWDTLOfM8weeVWfSKoCtU8JXmsskeIjABTbFx2EAL9TI3RatllWbnBZfYVAANI0WcNq3g0AAL8JQQgAAPgWRXUAAOBbBCEAAOBbBCEAAOBbBCEAAOBbBCEAAOBbBCEAAOBbBCEAAOBbBCEAAOBbBCEAAOBbBCEAAOBbBCEAAOBTZv8F3iCXIm9YXkAAAAAASUVORK5CYII=;" parent="1" vertex="1">
          <mxGeometry x="3716.44" y="712" width="578" height="48" as="geometry" />
        </mxCell>
        <mxCell id="dReqOSm1kdml6KpYtbeG-165" value="0&lt;span style=&quot;color: rgba(0, 0, 0, 0); font-family: monospace; font-size: 0px; text-align: start; text-wrap-mode: nowrap;&quot;&gt;%3CmxGraphModel%3E%3Croot%3E%3CmxCell%20id%3D%220%22%2F%3E%3CmxCell%20id%3D%221%22%20parent%3D%220%22%2F%3E%3CmxCell%20id%3D%222%22%20value%3D%22256%22%20style%3D%22rounded%3D0%3BwhiteSpace%3Dwrap%3Bhtml%3D1%3B%22%20vertex%3D%221%22%20parent%3D%221%22%3E%3CmxGeometry%20x%3D%224116.44%22%20y%3D%22400%22%20width%3D%22100%22%20height%3D%2250%22%20as%3D%22geometry%22%2F%3E%3C%2FmxCell%3E%3C%2Froot%3E%3C%2FmxGraphModel%3E&lt;/span&gt;" style="rounded=0;whiteSpace=wrap;html=1;" parent="1" vertex="1">
          <mxGeometry x="3813" y="721" width="30" height="30" as="geometry" />
        </mxCell>
        <mxCell id="dReqOSm1kdml6KpYtbeG-166" value="30" style="rounded=0;whiteSpace=wrap;html=1;" parent="1" vertex="1">
          <mxGeometry x="4269.44" y="721" width="30" height="30" as="geometry" />
        </mxCell>
        <mxCell id="dReqOSm1kdml6KpYtbeG-167" value="save" style="rounded=0;whiteSpace=wrap;html=1;" parent="1" vertex="1">
          <mxGeometry x="4251.44" y="790" width="80" height="30" as="geometry" />
        </mxCell>
        <mxCell id="dReqOSm1kdml6KpYtbeG-168" value="CANCEL" style="rounded=0;whiteSpace=wrap;html=1;" parent="1" vertex="1">
          <mxGeometry x="4161.44" y="790" width="80" height="30" as="geometry" />
        </mxCell>
        <mxCell id="dReqOSm1kdml6KpYtbeG-169" value="Chunking Method" style="rounded=0;whiteSpace=wrap;html=1;" parent="1" vertex="1">
          <mxGeometry x="3736.44" y="440" width="88.56" height="32" as="geometry" />
        </mxCell>
        <mxCell id="dReqOSm1kdml6KpYtbeG-170" value="Use OCR (checkbox)" style="rounded=0;whiteSpace=wrap;html=1;" parent="1" vertex="1">
          <mxGeometry x="3735.68" y="600" width="154.32" height="32" as="geometry" />
        </mxCell>
        <mxCell id="dReqOSm1kdml6KpYtbeG-171" value="Overlap Chunk character number" style="rounded=0;whiteSpace=wrap;html=1;" parent="1" vertex="1">
          <mxGeometry x="3731.44" y="370" width="188.56" height="32" as="geometry" />
        </mxCell>
        <mxCell id="dReqOSm1kdml6KpYtbeG-172" value="" style="shape=image;verticalLabelPosition=bottom;labelBackgroundColor=default;verticalAlign=top;aspect=fixed;imageAspect=0;image=data:image/png,iVBORw0KGgoAAAANSUhEUgAABhQAAAFECAYAAADPxdQNAAAAAXNSR0IArs4c6QAAAARnQU1BAACxjwv8YQUAAAAJcEhZcwAADsMAAA7DAcdvqGQAAABjaVRYdFNuaXBNZXRhZGF0YQAAAAAAeyJjbGlwUG9pbnRzIjpbeyJ4IjowLCJ5IjowfSx7IngiOjE1NTYsInkiOjB9LHsieCI6MTU1NiwieSI6MzI0fSx7IngiOjAsInkiOjMyNH1dfRTmpnwAAEYiSURBVHhe7d0NlBflfSj+L7C8w/ImIAIhBjQRfIkck7+k9kqTW7HJFZNWuWkDyb2BeG8luUeptxF7/or232B6ctHTBu2NkraCPYnkJhHbVHIbxVS7nISyKoJRXBF3EWHlxeVtF5blP/P7zcKy7jILLLALn885w8488/v95oV5nmfm+c480+VQIgAAAAAAAI6ha/YXAAAAAACgVQIKAAAAAABALgEFAAAAAAAgl4ACAAAAAACQS0ABAAAAAADIJaAAAAAAAADkElAAAAAAAAByCSgAAAAAAAC5BBQAAAAAAIBcAgoAAAAAAEAuAQUAAAAAACCXgAIAAAAAAJBLQAEAAAAAAMgloAAAAAAAAOQSUAAAAAAAAHIJKAAAAAAAALkEFAAAAAAAgFwCCgAAAAAAQC4BBQAAAAAAIJeAAgAAAAAAkEtAAQAAAAAAyCWgAAAAAAAA5BJQAAAAAAAAcgkoAAAAAAAAubocSmTjJ2XHjh1RU1MT+/fvj3b6ybNWly5dokePHlFaWhqDBg3KUgEAAABolLY17dq1K+rq6rQ1wUlI2yJ79uwZ/fv3P+G2yIW/jHjypYh170YcOJglctp07xYx/vyIG6+ImP0fssQz5KQDCgcOHIh33nknunXrFn379i00lKcHKa1Ld3kaeNmzZ08cPHgwLrjggujevXs2FwAAAODclbY1bd68udBWMnDgwOjVq5e2JjgJaVtkbW1t7Ny5s5C/RowY0ea2yLe2RdzyDxEvbcoSOOOuGBnxvT+K+PCQLOE0O+mAwsaNGwsFexrh4vilkfY0Q48ZMyZLAQAAADh3vf322yd1JzXQusYnfz70oQ9lKcd23V8LJnREaVDh59/IJk6zk3qHQnoApk8mCCacuHTfpfsw3ZcAAAAA57K0fSS9c1owAU6NNG+leawtbZFpN0eCCR1T+v+S/v+cCScVUEjfmZB2c8TJSfdhui8BAAAAzmXpndNpN0fAqZPmsTSv5UnfmUDHdab+f04qoJC+ByB9ZwInJ92H6b4EAAAAOJelL2BOu9YGTp00j6V5LU/6AmY6rjP1/3NSAYX09QteinPy0n14kq+yAAAAAOj0tDXBqdfWtsgDB7MROqQz9f9zUgEFAAAAAADg3CCgAAAAAAAA5BJQAAAAAOCs8M4778TKlSsLf4GO6by+xYHO6QwHFBqi/kD9B4aGbG6bHTryO4XvNjT+1nH/EgAAAACdzD/90z/F9ddfH5/61Kfii1/8YuHvTTfdFL/+9a+zTxyHg/Wxt2Zb7NhdG/UdoGmpob4+6jvCipyA+prNsaGiIire3ha16fSuLbF55/7izGQ/a7s7N/3pdcWhvVz04Yj/+NHkbzad57Lkg1cNzSZaksz7j8lnhmWTLfn9qUm5c2sy/GFxuX98U8Tcy4rzhl2Q//3O7AwHFGrirZVlUdZseGHli/H61rSYaaPad2Nd4btvJb+YeP+t4m/95t1CYQUAAADA2emll16K2bNnFwIKTz31VLz11lvxox/9KC644IL47//9v8fGjRuzT+apj5qNL8W//evKePn1DVGxbnU8X7YqXt1yZluX3t/wfDy/4f1sqhPZUxkvr66M3SV9ok+/ntEr2b/bKtfHa29XF9rrat9dG8+v26ztjpM27ysRj//XiDkTsoQct0+LuP8T2URLknmPJ5+5Jpts7rLPRzz8qYgBuyJefy9i/UcjvnpVxB9dXpx/zWeO/f3OroN0edQ/ho4aGSOTYcSQvtHtwK7Y8tqb8W4WsDzdDh48GK+88kqUl5dnKa1LP5N+Nv0OAAAAAKfXX/7lX8bnPve5uO222+Kyy4q3CF911VXxV3/1V/G7v/u7sWjRokJanob3KuLld3vF2Ks/FVcn37/qk5+Kay4ZELteXReVe7IP0Xb7a6Nm4Mi4aMyIGDG4X5JQEsMv+VT8h8tGRq/iJ+DkXRPx290jVlVFfOaTWdopdlH/5J93In5/ccTt/zcZfy3ic/8rWf7jhdlnvQ4SUOgX51/4kfhIMowbPz4+PCBN2xa7C4V1fezc9Ga8ueHN2Hq48G5Mq4qdB7KkY6qPmneKv/H2e7W5XSp169YtxowZEwcOHIg33ngjS/2gdF76mfSz6XcAAAAAOH2qqqrihRdeiK9//etZytG+8pWvxLJly7KpY9u75/2oHzwshvc60lxWMvjCuPSKMTGoe5aQKHTj85s1sWrNa7Hh3ZqoP5TNyNTv2RKVr6+Nl/59Tby2YXPUNGm72rulIiq27I7abRtj7YurYsPObMaBmti84bVYU/jOpthRl6Uf1lBYbsXal+KltRWxeVd9lt5Mw+7YXFERW5oFQBpqNkXFxmK3Q6mjtmHTjtjfZBvqd1RGRdWOaLqEQtqWvcWJAzuisqIytu1N1nl98huvbmn2lEF97KhKtnPzroi67bEx7fIo++7erRtiw9bsd1pwzH3bUBs7NlUU9tua32yIzTWt7APOKbddGtHz3Yh7qiIGfCjiq1n6YQOSz/xhxPNzI9b8ScS8rFuipi66IuLx/xHx+v9b7MLoqiy9JQ/cGjEnWU4MivjbZPzxKcX0uTcnw9XF8ZakXST9yzeTZSTD48l4W7tn6og6SEChiQN7Y29aaJYMj4GlaUJ97N2+KTZVbYqaw08sNKZtj725ZUd97Kx4MV6q2BTv7ukVw4b0atNG9+/fvxAo2Lx5c2zdujVLPSJNS+eln0k/CwAAAMDplQYUUpdccknhb3Np+s6dOwsvas7Tp++AKNlaFRvf39/kZtSS6DNoSPTrUZyqfWdNrHxlazQMvCAuvKA0Gja/HL96dUs0NlnV71gfq3+9MXb3HhajPnxBlB7cHC+/uCFqsobxuprKqHxrXby2OWLw6DExpGeSuG9zrPn1y7H5YGlckH6n4b14ddWa2LSv+J2CnRvi1U31UXr+qBjW8/2o+Pe1R89v1LVPlNRvjg1bCp2CZ+qjunJ9vN+1d+HJgNp318Sv1mw+sg3VrybTm6I2W8f6vdujctve5FtHFNJqsihH/d7YXrkp1q/bELv7nB8XDu+b7KWmukbvfgNjYL9k40p6RenAZLxv8ROF7W/8nWaOvW/3x5ZXV8X693vEsNEXxgUDG2LzmtWxoelm0ukN6J2NtNWAiN8dFbHmzYhVqyLWJ9//XLN+hubNiJibFA8bX4v4xw3J/M9HfCLNd5lhV0X8+A+TtOSA/z8vRbw9JOJvr8xmtuD1pMhZsysZqY14ORl/ZVsx/bIPJcPg4nhzc78e8XCynC3rk2Ukw8WfjPjF1zrvOxY6SEAhKTj/9V/jX9Nh5dp4r9fIuOTjF8d57XDT/953fhPr3tkX3QaNjY+PvyB6dclmtMHw4cNj1KhRsX79+sKTCI3S8TQtnZd+BgAAAIDTL22bSa1evbrwt7nG9A9/+MOFv8fS9byx8fEPl0T1K/8W/7YyvQu+MrbsbhJcOLQjKjfsiZETroix5w+JIUNGxNjLPhpDdmyITVnDdtf+I+NjV308Lhk9NJk/JEaMHRPD92yJbWkDZKO+o+OSS8fEiCFDo7R3FO7m33PeJXH5uBHZd66ISy/sE3GgSZN+75Hx0UtGx9B0/rjxceGgHfHe9pbePtA1hp4/MqJ62+EgRuyvjveqS2Po4OQ3022o2BNDL7n8yDZccWmM3LchNm47vhckD7/oirhoZLKdg/t9IKDQa2Dy2/17RJT0iUHJOg9pjMi0Jnff7oma6h4xfHRxHww5f2xceuX4GNm38G06qPOS/5+//MIHh6svLA7N0//s+uJ32mrYJyPSBw5+8ULyT1XEv26J+MTlTRrqr474o6SI+KefRnzpxxFzk+Fzz0b0bHI43v7bEQOS7/7BQ8n8ZRF//N2IfzzGiz0eTj7zf3ckI3uKn5+/qpjeqonFdfjxD5usw9MRtWMj7v1o9plOpoMEFI68Q2HkiEFRsnNTvPrSK/FuS5HW47H7rfhNxY442GN4fOxjF0SfE9jaD33oQ9GvX7/4zW9+k6VEYTxNS+cBAAAAcGakAYXf+q3fir/7u7/LUo7W+H6F888/P0s5lpLoN/KSuGrSNTFx/MgYGDtj48v/Fisb797fUxPvH+gfXeu3xbZt2fB+fXTtVRu7dxdbILuW9InS3l1jb00y793KqFj/TuyI2qhv+urNnr3iSHvm7qipqY8h5w05qlG+9IKxMbK0ScpR3+kVffpkoy0pHRLDY1NszgIE+7dvj+rzRsTwtKG2sA1DYvCgJr/dpTQGDomo3nk8L37uHT1yYgTHJXff9o3Sofuj8rW1UbGpOmr21kdJn37RQw/k57TbL03+eSdiUXboPvBaklUuiJhZ6E4/4rIk2w/YE/EvTeKNW5+PWN8kVnfxoIjX34pYk02nflGZjbSD9MmFYeljNmMj5k8tDrcPjkhX+aL8OGeH1EECCkfeofCRcZfGxz6clHAHdsSbmxs7kjtBSWldKK/3vxfvVB8jtHQM6bsRPvKRjxQej6usrCwM6Xia5r0JAAAAAGfWn/7pnxbeo3D33XfHmjXFZsFVq1bFN7/5zUJXRxdddJy9lXctiT6lI2L0xy6LT37yshi6d31UbK2PqK+P2qiLvTt3FtqGisPe6DpwdAzsXWygr936aqxa+av4TeX22Lmva5QOHRjH7ij7QNSnTVbH0aNGri6lMfyCPlG9bVs0JGtcvaU6RgwfXgxIFLYh2cRmy+veo9cH3gVxWuXu2x4xfPzVMfFDpdGw8534zYvPx7+tejW2nOzNyJxS7+1J8udPPjis3FAcmqf/xdPF77TJqIjfHh7R80MRa+6P2JIMa/5Dkp4cLp/7neJHLkqDaA2F3omOsrNJr1sD0ozR7OGcl1t/zcdxK6xD14jLkvW9vMmw9e1kfY8nhteBdJCAQjNZAXawsSDLCrmGg9n/7sHdsXt3cfSY+o2JKz4+Jim4D8aOt96Id06wkEnfkTBu3Lh46623CkM67r0JAAAAAGfeFVdcET/+8Y/j0KFD8V/+y38pdG900003xcGDB+O2226LBx98sDAcW/FFwpXbD7/As6hkQJT2S9u76yN69YoB0TMGjh4bY8c2GT4yNkYX7vivjW2bt0Tfiz4ZEydcFGMvHBlDB/Zp1h1Qc/2j38CIvXuPbvKs318b9cfXA9FR+gweGn3e2x7bdm+L93aPiMGDsybAvv1iUOyNvUe1kdXHnl27o7RXsWP5Hj16HW6ba7R//yluuc/dt4lDXaPXsNFx0YQr4pOTromL+m2L9ZvSvmc4W7x/HIfZZVdFXJRky4f/NuJLTYaH307SLyx2hfTj95J/+kdcnj2xUDAqYkyTbpXe3hUxfEg2kfmDduzhvrAOiX96POJzD2VDMv5fk7+357/apUPqIAGF9+KN8tWxOh1W/ype3piGorrF8AHpW5l7xcCBxcb7LetfjHVvvBHrXnordh67NC4qKYke/T8UHxubHDX1O+KtincOv2DmeI0YMSKGDh1aGNJxAAAAADqGMWPGxJ//+Z/Hv//7v8cPfvCD+NWvfhXf+c53CgGFtgUVSqLnofejomJDbNmXteQ31Mfud9fHxurSGDywV0Sv4XH++Wlf/1uiNvtIfc3GeOm51VFZuKu6JG2Kin37arMbnhti7zvvxJbCeGtKYsiwEbGramNsyX60Yf+22PDSqnitullw43j0HR4jBlTH1o07Y1/aptXYyUb3ITHs/F1RubFxGxpi/7YNsXHn0Bg5vNiPUtc+faJ056ao3FZ8f0TD7k2xcXOTPmJOhbx9u7cyXvrlmti0N5t5aH/sr6uPHt27F6c559z60Yi6qoh5r0X8S5Mhna4bXnxvQayMWJUcun8wLeKaNKiQDPM+H9H0maX0JcnDkt96+Iri9EVXJ789tjjeLpJ1eP5Asj43ZeuQ+P0pyXp9K2J+ey7nNOogAYUDsW/3ntiTDnvqomvvQTFy/MQYd15x9fqcPy4uPK9ndKvfE9uqa6LrqI/EqPS19G3Ua8TFMXZgxMEdFfH65hPr+ij1sY99rDAAAAAA0DFdffXVMWzY4deytjmo0GfU5XHFsP2xYfUvY8WKFbHil8/Hi2/Vx5DLL43RhTuaS2LouI/HyIbKWPXLZH7ymefXVEePS8Yfnj/8IxdF902r4pfp91esjPUH+8XQdNYxlAwdGx8f1RCV/15c7i9/vT5qh10eHx1+Mi8p6BFDhw6K6updMXxIesNuo+I2jD7UuA2/jF+tr43hl340Di+u74i4eGzf2Pabf0u24/n41caIC8ac6p46cvZtn9Hx0Ut6xJbyxv+b1bGlx0UxfmS/4tc5t0yIuGZQxK9fyaab+kWSvj/iP/12Mv5+xH/9afJndMT/mRuxJRn+YEfEvzR5Sfo/PRHxYHKM//4fFrtNev6zyWdbfsf7iUnW4Y9/HPH2Bdk6JMt4+OPJOj4bMbci+0wn0+VQ+jzYCXr99dcPv02fk1NVVRUXX3xxNgUAAABw7knbmk5V+0hjQCF9giENOrTqUEPUF/ob6hol3Vu5F/dgfaFLoq7dS1q4Wzf5/oF0ZkmUHM/rN7Pldi1JfrMd3qnQ8N5r8W9v94mJE0dHi+9wLmzDMbbxTDkV+5YPaEteG35nNtKOBvSO+LPri+PpOxOOp5ujk3HZRRE9d0asqs4Smhsa8R8HRry8PmJrltTe0pcwj+nevstIAxSnm4BCByGgAAAAAJzrTmVAIZW+pPmYwYSzQUN91O/fG5teWx27h38qJpx/Mk86cLY6UwGF1HnZOwza/AJmWnUmAgodLAQJAAAAAKfGWR9MSNRvr4jVL78eNf0ui4tOqtskODXSQIJgQucloAAAAAAAZ4mS8z4an/zkVXHZ2CHRox26TgJoSkABAAAAAADIdVIBhS5dusRJvIKBTLoP030JAAAAcC7T1gSnXlvbIrt78XWHdqb+f04qoNCjR4/Yv39/NsWJSvdhui8BAAAAzmU9e/aM2trabAo4FdI8lua1PBcNy0bokM7U/89JBRRKS0tjzx5v0DhZ6T5M9yUAAADAuax///6xc+fObAo4FdI8lua1PFMmZCN0SGfq/+ekAgqDBg2KgwcPxq5du7IUjle679J9mO5LAAAAgHNZ2j5y4MCB2LFjR5YCtKc0b6V5rC1tkbN+K2L8iGyCDiX9f0n/f86Ek34p8wUXXFB4TGb79u1RV1enn7s2SPdRuq/SfZbuu3QfAgAAABAxYsSIwg2Ymzdvjn379mlrgpOU5qE0L6V5Ks1baR5ri94lEX/5B4IKHU36/5H+v6T/P2dCl+SAapdSOY1u1dTUFN4HoKA/tvSlJ+k7E9JujjyZAAAAAPBBaVtT2vjpBlY4OWlbZPrOhLSbo+Nti3xvX8SBhoi/L4tYvjZi/dZk+mA2k9MmfQFz+s6EtJujr0xKprtGnNc7m3matVtAAQAAAACAs8fBhogddcWgAh1DGkwY1DOi20n3PXRiBBQAAAAAAGjVngMR++oj6hsiNCaffl2SoaRrsZujvt2LaWeKgAIAAAAAAJDrDD0YAQAAAAAAdCYCCgAAAAAAQC4BBQAAAAAAIJeAAgAAAAAAkEtAAQAAAAAAyCWgAAAAAAAA5BJQAAAAAAAAcgkoAAAAAAAAuQQUAAAAAACAXAIKAAAAAABALgEFAAAAAAAgl4ACAAAAAACQS0ABAAAAAADIJaAAAAAAAADkElAAAAAAAABydTmUyMZPWvpTDQ0Nhb/t+LMAAAAAAHDO6dKlS2Ho2rVr4e+Z1m4BhYMHDxaCCQAAAAAAQPtKgwrdunXLps6Mdgko1NfXeyIBAAAAAABOofQphZKSkmzq9DvpdyikTyYIJgAAAAAAwKmVtsWnbfJnykkFFNKV180RAAAAAACcHo3vMT4TTiqgIJgAAAAAAACn15lqmz/pJxQAAAAAAIDTp1M+oSCgAAAAAAAAp1enDCgAAAAAAADnBgEFAAAAAAAgl4ACAAAAAACQS0ABAAAAAADIJaAAAAAAAADkElAAAAAAAAByCSgAAAAAAAC5BBTgHNfQ0JCNASdLfoL2IS9B+5GfoH3IS9B+5Cfo3AQU4BxXW1ubjQEnS36C9iEvQfuRn6B9yEvQfuQn6NwEFAAAAAAAgFwCCgAAAAAAQK4uhxLZ+HE7cOBANta6urq62LlzZ+zbty/yFtWlS5fo3bt3DBw4MHr27JmlAqfS3r17o0+fPtkUcDLkJ2gf8hK0H/kJ2oe8BO1HfoL2071792zs9DmlAYU0mLB58+bo169fIVCQBgyOJV2VNPCwe/fuGDFihKACnAYqcmg/8hO0D3kJ2o/8BO1DXoL2Iz9B+zkTAYVT2uVR+mRCGkxIC4m8YEIq/Uz62fQ76XdPvbqo2VFTGOoOZkmN6orpNTV1WQLQVnU1NVHx4oooe7UqPpCFDmb5bm82farsbSVvt+gMlwWna5/QOTQeDy0cc2neavE4bVXrv9WejrleWV5sOrR9/aH91O2oinUvrIjyN1s4Bo+rzjhxh/NKNn1MjWVBOrSYh/Pmt9WpKica1+/Ulj+cJk2Px+ZDe52/tOV86DTlVTh1WspLp6ecrH5uUcx/cHlUnfL8k25jRZQ/Ux4VaX7NUuFUajzHaq/zmZo1S2PBt5dEeU2WABzllAYU0qcN0icTjlf6nfS7p97qeOATE2NiMsx6vCpLy6x6oJA+8cHVWQKQq2ZdLLnjxpg0cWJMuWlWzLhhckz87d+JWd8tj8P1cNXSmJ3krdk/apbn2lnVj2YneXh2LG3TYs5wWXCa9gmdRHY8tHTMrX4wPU7belynsmP7FNdlx1qvYl5M5x8ZJnx0Usy4b1lUHNf5fnWse2ZFrFhZ5cKU4/Puipg/fVJM+MTkmPqVWXHzdckxeM3NcddPjxywx1dnnLhiXnkgyZlt0FgWpMPMJVGRJR+2amHc2Di/zXm8LqpWJvnomXVJjmp0qsqJ7HdvXxpqt7NA0+Ox2dBu5y9tOB86XXkVTp0j1x1HhgkxceqcWLLmVLZcVsXyx+bHou8ujRWbs6RToO7NpTFn6qRkm6bEzbfcHFOS7ZuUbNuyjdkHWqyH8pzIdzi3VMSSmVl++sLCKD/uoNkHrzPWPjU/HnpkQTy9LksAjnJKAwppF0ZteTKhufQ7J9ET0wkp++68WHK4kgOOX1UsuX16zPtpZYz+/NxY+L1H49HvzY+ZF9fGigdnxpzHOseVn7IATo0pd6RlQrFcmHPdsFj72Jy4+dYlx3GX3Bux9JZZMetvVriYpO32lsX8r86KRSsjJn1tfvEY/Ou5MXVoRTxxx6y494VOcttZ+bJY/mo2nil/7qmoHDM6RmfTbVMdK/4myUe3LE1yFJyA6+ZkZfmR4dZrh2YzgTa7bEbMz/LQwm9OjdHvLot5M++P5afsieVRMf2h1bH61wtj+qgsqb0dLI+FX58by94dGzMfWBYrfr0ilj0wM8Ym2zbnjkVZYPxE6iF1FzleXxFPlyfnetdMitj4VDybjB+fD15nTPpmWZJfVsScq7ME4CinNKDQaVw2KSb1XxEL/teyYzdS7KiIZY/cG7On3xiz7pwfi55pcpfkjrJY9O0k7YXqqHrmoeQzM2L2d5PC6GDxUan5/2NG3Pjf7o2lLza7cH23LJY8eFfM+sKsuOvBJVFW5b5LOqe6nz8UC56riXFfXhiLvzMzpnx6ckz+9M0x9+8XxZwra2LFdxdFWbOGw/Sx27v+W5qfFsWKJsd+xU/nx/xvL2tyN2ZNlP1t07QkLyb5bf5PKw7nrxn/Y/4H81dTNeWxJP3O3yyPVrNZG8qCmhcWJeuRbMuOLCFRXN8jaY3rv25HeSy9b1Yx76d3HB1MToYfSfN7sXxoaT1a2ycFNY1lUPL9exbFstebbO/hMqgq1v3o3mQZc2KZu/fOeofzSs26WPrt2TFj+uyY/6PyqDlWI31dVXIcNtZlC2LJyuZHe11UvbAkFtyZHLvJ79374NIob3K8p2peXFqY35jv2lJzDbssLROK5cKtDz0Zy+6eFDXPzYv5Pzmy/JrXl8Wie5LtSOvEJE8dyQNpnl8ar6SjlSvioeRYX/Z6Ycax8wXnvIrHF8Si10tj8t1LY/E3by4eg783MxYsmR/TBr8Rix9Z1uzu+cZyOjkGHzm6nM6tm5qcCx6zLG9q4/JYkHxnwWNNnuRr7rNTYkqsjaXLm1wdHyyLZT+sjNJrk+3Jko6oiYqnFsW9hbrx3lj0VFJXFsqEdH0fihWV6fgrSZmRruvRSz1mnZpXdhysifIfLUi2O8mLSX4t19XR2en8K7Oy/MgwaUzxvXdtqpOOdT3VRJvzUMr1FJ3RgLExKctDU762IOZ/dULE9idiZWNRn5S5ZY+lZeqNhbJ8wVF5qfFaaF2SV9K2hxtjwcrinMI5WuO5VJof3i2mpyr+eWEs/N7yrB5r/I1jX0/VVa0onpsl+fmhJL9WF66FmpyHNVW1NsrT9P80J+beMD5GDRoV42+YG/feNTNmXhWxdccx6qFWt7e17xxZ/8Oyerhp2rH2B2ePiueejvKYEJO+dnNyzlQZS35Wls1potXzmPRY+uB1Rs3KJUl+WRqrm14Hpdf3hfomu+54s0l+OZHzQOjEBBRSA6bErV+ZFDU/mxcP/HOzi6dGNWVx75emxJxHVkeMvTqGVf88Ft4yOab/Tfb8U01FUjglBcqDt8aMby+Pquo3YvmDs2Legwti9i2LYmVldWz9xeKYe9PM5MK2+JXYuCRmTZ0R8364PnpePiy2/nRBzPj9afHQi9l86ERWr3o6Od2bEFNvnhSlWVpBt/Exc9HqWL389piYJaXShsRZ9yyLtZtrYvWP5ses358Ty7I6fevLi2LRI+WxtTiZqElOEpqmbY3yJL8tSi5c53yjmL/e+NmiJH9NiwUt5Z/kwvah22fGvP9TEaN/b0qMau19720oC2oqkpPqR1YkF8tZQqK4vkfSitOL455vzIkl5dVRU57k/dseiAX3zYh7n1ob1TvWFsqHqfctP+oi+vA+STay4pl0n8yKRY13pKZl0BfTMmhF1I0aF7Hu0Zjz2WT6qWynHS6Dbo/pf1m8s0L/wme/4rGWXATePjsWrayKmurVsejO5ET67uVJrmlBehx9YXLM+vbTUbEnorp8acybPiVmNXmCqOqx2TH1K/NiadWwuHpscun2w7lx85S7Ynn2g3Ur58e0m+YmF5XJBWjlylj0xzNj4ZrivOMx6qbpMS35u/yXZYV1rXnh3pj22TmxMLmQHnd1UicmF72zJk+Phwp5YGu8sXJdseF3V0WsXbky3tiefiknX3COq4qyQsvM9XHzTc1uxyydEvcsT+qmB6bGkXura2LFfbOycnp1PPHtpJz+n0cCzLl1U2M5/P25rdZvR3l3edz1x7Pjoef2x6TPX3l03dnUeZNi0jXJNe5Tzx5+hL/uF0/Fk0keuP7KK4sJh9VE2X3TYsrtC2PFntExLrk8fvT2KTHljnQ7aqJ67dqo2JV+rirWJflobXWTkuLNRa3XqbllR12UfXta3HznQ/H0azVRtXJR3HrLwuLFOeeM5nVSdcXyQp007a+zFtK866nMMc+HmnM9xVmitE+xFqhL+38/WBVLbp0aM+5bGpWDri6U5UuTvDT5zxrP77JrocfviVtnLi6Uy6man98VU5JztKVJlkrPpSp/OC9mTJ3dyjVWG66nkvw1O8l/8x9fHdV7qmL5fTfHrQ8uS35jUSSXOB9UWlqsy1YujSWrqg9fi4z//NyY+82ZMWlQK/XQMbe3tborW/+Xj9TKjfVwY1re/uBssS6W/yypZ8ZcG5N+a2LhnKnmH586+mmfY57HtHyd8YHr/rS+mXJzzP2HssI5VdVzC2POddOOPO16vOeB0MkJKGRGf2lO3HpxTTzxnQdiRWOB0URd3YC47hvzYuHfPxkL750b31q0MGZdFlG+fEVSfB2xdsyMeHL5k/FkUhnPSa7xlj9cHlN+8HQ8+ZOnY3ly0Zp8o9AvW1LaxLL/NS9W9J8Rjy5fmvzmt+LRZckJcP+1seD7y7ITBegsqqKicFfwxLjykmJKUz3Tk8tBpdGzW5aQWHtwciz8RZJXlj0bS+5IMsv25bFy1XFG7ytHx/RlWf7662nJCewb8VxyMnC0YldMC9aMjpkPLIjpY7LkVuSVBW23P37nm88m65Zs473Jum1cHE/Fncn2JtO/WBJzkvKj5ocrj+pHe23NxJif7pPkO89+79YYt70sFi4pBh3Kv39XLH59Usxb+mw8ev89sfAHyUnQNdWx7MHFSalyxNq+18fSf02XuyBuztlWzhZrY9hNT8bT6bG2fFks+GxpVP/w0Vjawp1jxeNodMxYtLz4+Z+lx1HaiDo/lhZOdJOj7eLpMff+R2PZkm/F3HsXxpK7pxXumHvuhfRIrIqlf7MoyWnFYzE9Vp9ePjsuTRv3j1efCTE+fYQ4fYFasty6wdfF7Xcny/vJwrjnm0md+PCsmJAc3cufS/P0pJjzk3vi+vR742fGwmS56ePHbc0XnKsqo+K55M8142NCn2JKUz2TeqlQN2XTaV6qu3ZhPNtYTidVU83PknL6OLufaFP9ll7YfnV2PLFjcsx7+J6Y1Go0ITU2uUBOfie5kF1WuAO1LlY880SSb6bFteNqju7+4cVH467Hkhx697J4dtG34p6/WhpL754U1U89EItfHBVTv7MwZo5PP3h93JPkowWfbxJoOUadmlt2bFwaD30/WZNr5sWyQj2W/MbXL433Ct/mrPLYjBg3blyTYUazriKrYvSXi3XS08sXxrTBEW88V1a4Xmrz9dQxzoeO5nqKs8SO8lj2THpH9ZUxdmxSKyUH+9gvzY35i5bF4vvnJmX5kph3U3LE/+i5KGtaJ22/NGb/uqyQ39LzorUrn4jq5JxpdlLWp+dSi3+wOObfOz3GtZB7DjtG2V/29wtixfYmZf8vlsaNfdcW5rVo0NSY+52pMeG9ZTHvi5NiwqTfKTypveSFxieRWqmHjrm9OXXXMZzQ/qDzeXVFLF8TUXrtpCQHjSqeM21/Op57/sj/c8vnMT2j6pnlSf3T8nXG0bL6ZvuRa6An0/pmzBux+O5Hj3pnQ7u0c0AnIKDQqNuVMfvumTFu4+K4/7tlUTcquXjLZqV6Dh0fkz49NcbVJYXVYwti/j0LYll6R+aa6ni/+JGCSZdPLEblu42PK5MT5Eiqq7FZo17p4AHFkYK1Uf6z5E/frVH2cPp4cDI8XBZb+yZpPytP5kInkwUL2npXfPqI76jsO+Mvu7Twt7L6OEP311wbk7NGmNLx42NC8nft1qY5siqe/OasmPdcTUz9fxfH3N86ZotNUU5Z0HYTszLgyLqNGjsuKx9Ko7RpcZCZ8JnJMb4x6PLx62NqGnRYuTY5yamKtS9WRoyIWPeDrLz4zuIkfWjExqS8aHIhP+nTUyK9DuFccn1ce23jsT00pvxeejpcHqvXNW9KyY6jmBzXNX6+26iYfF3aYUpyMl0IQPSMUVdPjqnXDIs3nllaeGx37t8/nc7I8mdlVDyf/LlmSkxuDFiVpr+XjR+XmqjJ7qhLlzv0kkkx+fPJJd5zy2PJg/Pj3geXFerCo/N0U23PF5y7egxO/qkvjuebFFOuzRopDp/HVcbxVk359dsrseCW2cmF7YSY871HcwPdqbGfnxZTkjzz5C/KIvauiOd+lGS9/5zUgc0CJVUvlydrnOSBdYuLeSIZFq9LS4bKKH+58WmCVrRap7ah7KiqiLQprOm2l157XQvdMdHpXTk1Zn5tZpNhcoxtrIIKJse11zQeSBMiOZQOXy+19Xqq9fOh5lxP0Yk9Py8mNwbmPnFzLHi+NK687a6YfnEyr8+omHTt1Jg87I1Y8aO0i6G58egz6Zea1UlpuT0oG0+Mu3xKcq1RFgu+kXZZuSSW7xgWUz49KcYPPcbFwTHK/opCdy7Nyv7k945l1OcXxJMrymLZ9+bFzKvPKzypPe8rk+PG+4pPpLaordt7nE5of9DplC9fmpT3pXHjZ4rH5thrr48rk6PtiWdWZKGjls9jpv9dWTz9dzOjEKvKldU3za+BPpP8Xnrd0eQUq13aOaATEFBooufVs+POL42ON76/IBY1P2NNH2+aPDGm3HJvPPTCexGDxsfErLHwpPQ8ujIb9VvpifmVMSybhs5hVEy4LH0t5OqsUfJo1a+uiBXPlEVVe79krFveyWBllG98P21aiRU/Xdbml78esyw4hRofdS7Kgg4bd0VtMSGix9Hb2/+S9KK++YU8Z7OWA3Y9k2MnG030LC0eJzU1bbs3c+igYo1TeMQ+Ofku+9aNMemaqTHn28sKd2ZPGH9iIbVc1WtjbdqQdP7QQh6t+odZMXnilJh530Ox4t30+J5YuKjNJV/QqgkxIb3DbOW6WPuB+qcuqlamddO6OP2XeOVRsTHJt8nF6bKfHKOBpamhk2PydUkOfa4systXxtPJt6+/dnKTpyua6nXUE4HpOevUr82MyXmZIrdOPdrRZQfnjMtujrnfTLsvaRzSbkyyeZmjjr+m2ng9lXs+1JzrKTqjMZNjWhaYu/XuhbH0F2Wx9OtXFsv1mrKY/4VJMemGOXH/T1fH/qQ+u/SqwreO1qzcHvr5BbHse3Pj+hFVUfbDeTH7pikxcfKsZk8RNXOcZX+b9Bka4z89Peb+1dJ49l9XxPzPlsYbj90fS1rruqyt23ucTmh/0MmUx7NPpcGCmlj8lSxA99n5xSeVf7Qsljd7D1x7GzA4bQOpiZr2bueATkBA4SilMflP7okZY8rj0e8/edQFXtnjC2JF9aSY+4Nn48n//a2Ye9u0GJ/e/XLCBsTQ9AS678SY0eSkfM4ts2PON6fG2OKHoNO48pobYnSsjUe/s+TohvuaFfHQ12fFrL8oi+oWupxo3daoamzlOZhU0q3dpHxM6d2fK2LRHVcW+uO9/ZG2RgdaLwuKqmLr4RaommjaBfXJKHt59ZFl1ayO1emd4NeOTfbr0Bh6fjK+a3TccEeT8uKPk/Lijg9eyNPJjRob49K7qp/7+dHdbtUsj5//c/J38PjDT74VrY7ytGE+s6487UirNMZf3Pxx8Ow4apq3EuvWpfcVj47zRiQXlFXLYtH310bNf340VixfXOiSYua1TZtkekX/dNmVW6P6cD5P72DLRtsqydMrHl4Uy5P1nPbptFG0LBY/uCKqr56bXFA/GY/enxzfXxifzD0W+YI8pTHpP0xJ/j4RD3ynWcP9xqUxd3pSN/30jVYa5VvTHnXT1Ji3fHnMvyltYJkd97f2/q6jDI2pN0xL1juplx5fETVjpsfNn/ngmg8dml7Yvh+jP3skT8y9bXbM/kaSl9vylF6L2lB29O2fjCWlQdM78DZWHN0dE+e8tl5PtX4+1JzrKTqx0ZPj1sZj9stT4srs5eapqn9cFIvW1cS05Drm6SVpdz0z49r07os8e+uidPzNcc//fjKeLnsjVn9vRoyuTq6FfnIiHUE2lv2vRPnhQEBNrF3X+rM/6c0haYPunKea1Gs9R8W4MWlUsCZqW4k/n/D2pt6tOnJjQKEbzSbadX/QIa16Np7amJzxfXZOPPq9Rw8P8798ZTJzeSz/RXp0tHIe89MFseSf23pjSVbfHHUNVB1rX07zw6gYVfh9OLcIKDRXOjluvyO5YCs/+jHZYuSxKiperoiaHVVR/jfzYkGhH9sTNT6m3jw5Sp9fELd/a1msq6qKdU/Nj+lTJsak2/X5SSd01az41pfHFRrup35hdtxb6GrhrpgxZVYs3jguZtw3K9JqvS2GjSieACy4fX4sfWZ5LLpjQTxbUpx3fEqjtLRnjP/aAzHv2tIo/86cmL+yjXdStlIWDD1/dPKrlbHkvjmx6J9XxNJvzY6lG9t0H3Wu0l8+EHO+uzxWJNv80P+cH8uSJU25YUpyitIzJn9+ZozbvjjuvWNRlL1ZExUvLIq5X5wYE254qIUuAOjUuk2KmV9P6oeNi2PO9CQvPbI0lj6S5qXZ8cT20pj89RnNuuGqjMX33RtLnlkRK/7h3pj7WHLEXjw9rv9ENvuw7DhK8tb8OxfEilfXRfk/3BVzH66M0mtnxrSPJx8ZPLR4R+emdUm9lFyUvbks7vr24jQlc2Xc+MUkf258KOYmx+LyZJlLvzU3FrbhIHzlR1l3FEm5MOszk2PWY2/EuC8vjDuvSy+gB8SAkcmfzRWxdmOy3KryeOi+BZE2Vx7ReCK/LskjK2JdtXxBvqFfmFso/994bEZMmX5X8Ri8Z3bcePO8KBs8Oeb9ydScwNUR7Vc3JcdyaVK+37UwZqTv7LlnTpvulux57bUxbXBZLP95ZYz+7O/ElS3cBd7z2htiZvKbi/8iqaNeSM5Z3yyLRXdOi4mXXx8PFQKPjRfVb0RZUoeVbWxLndiGsuPjN8b0ZPdUPjw35jyS1mNLY/6fLTyq/uQssSb5vy2U5UeGRY0vpMzR1uup1s+HmnM9xdmp8QmwynXrompHcn7z1F1x/+OFpGOoi+V/MTkmXjMz7n8mzWPJOdXLlYXuxMZ/+ETCa41lf3ks+JNZhWu7e2+dGQ+93EK/rZlRvzs1pgyOWPbnM2L2d5cW8vCS+2bErUl9ERffEL9TeCLpg/VQ/va2VHcNi1FptfzzBTHn28my/nlRUm48Gz3SjxW09/6gIyp/7qnkSqg0bvzPt8bkT08+PNz8lRsL10vptUp1K+cxc+54KBb8c+OtD82vM4qpR2T1TXoNdPeSKE9+Y8WDc2P+zyPGfXV6THEjE+egUxpQ6NKlSxw6dCibarv0O+l3z5TS37s95n326MvL8X80L+ZcXRtP3DElJn5iaszbPCmmX5PNPEGj/mhBLLptYrz30zkxdfLkmHr70njvsuQC8N62X9xCx1Eak/7siVh697QYW708Fj+yKBY98kSsHTol5i55Iu45jjsjx371gVjw+QlRt3JRzL1lXpRdPqfw0r4TlvaRePecmDz4jVh03/1R1sYrzJbKgp7X3Znk20nRc92ymP+NObGkbnrMuaF9cuyEr98Tk9fMi1m3zI4Fv4iYdNuimP/54u05Pa+eG49+Z1r0Xzk/Zlw3MaZ8ZX6U9Z0WCx6+tY39PtKZjPrygsLLkAt56dtzY+63n4iyuDKmJSewC77cvEnlxph7W49YeuesmHX34qg8f2pyXMxpubExO47GrnsoZt0wNW6+++mouzapdx6YXmyo6TMlbk1fprduQdw8eWJM/NKyGDt1WuG7jRrz59an5sfsW5I8sP3mmP172cxjKH8qLRPS4emoKJ0YMx9YHk/cPSmr78bH9D+bE5P2PhFzkuN74u/Pi+qrpzcLnCQn8l9N1m3XEzHvllmx8IUa+YJ8afn/0LJ49GuTo9frTxSPwceXx9aLZ8SCHyxs0/sLGrV73VQ6Ke5M39mzfUUsuK/Z030tSfLnDf8pzTGj44bPpK0oLegzKeY+vCCm9S2L+V9JzlmvmxHzV/aPad95NG4trGtyUf3FJK8NLYuHvjEr7vpJ20JvuWVHjI2Z31kQU8dvjWXfnh2z7lwS1TfNTkonzjrly7Ky/MiwoqJtJ1ZtvZ461vlQc66nOBv1vO7WQn2z9sGbY/InJsb0fxwbU2/KZraqZ0z55qKYc+178eQtaR6bEjP+oSIm3rY45p/gtUpa9i9eNCemDK6O1StXRuWY2XHnFz8Y2jts6NSYv2heTBuzNZY/OLeQh+c9tjZ6XTszHv1+47npB+uh/O1tqe5qrHfqouyRZFn3lcWE22ZFscf6VPvvDzqYg+Xx7M8qIwbfGNc1f4nymMkxJa1ffr4slm8sHsstnsf8f1OjWLt88DqjuWJ9Mznq/u+8uDn5jVnfXRtjb1oQj35zUnK0wbmny6ETafHPHDhwIBtr2ZYtW6Jbt27Rp89x9XMSe/fujYMHD8bw4cOzlI6jrqYm6kpKj+qv+qQdrIuatP/Znu38u9AGaX473jzaFnU7krzimD4hhXIm3Xctnpkk5cWOpLzo1rPw9AUdy6nIT4W8lJymlg764P932X3jYsZjM2LxG/fEpEJdEi1+7oOy46i1PJrVSz0HlbZ+gry3Jmrq2/s4LK5Xz9Jkua31wZ1+Jt3Oo5abbY98cdY4NXVTdpz0aa18PbsU6pKDSTZvJR+n7z5ofOdK22X78Bj1e6HMOkf2cWdxqs71TlRbr6eOfT7UjOspToPTnpdO9Fwr/V4hOxzrfKpt0nyYrMDheqQqOe+cfN/amLlkdcxt3ojbVLYOx6pzP1APtWF7T6juasf9Qfs5M3VT3nlMWpc0v85oprG+ca5DB9K9e/ds7PQ5pQGFurq62Lx5c/Tr1y969+6d+9RBuir79u2L3bt3x4gRI6JnsxdsAe2vo11kQmd2uvPTUQGFLA3OBuomaD/yE7SPcy0vVadP/tyxIoZ9aU7cfu2oiO1lsfAvF0X5ebfG0qdafhoW2krdBO3nrAsopNKgws6dOwuBgrxFpQGHNPAwcOBAwQQ4TVTk0H5Od34qe/DGuP+5a+POn8wRUOCsom6C9iM/Qfs49/JSTax77P645/tPR3lVTcTg0XHl1TfH7LtujcleQstJUjdB+zkrAwpAx6Yih/YjP0H7kJeg/chP0D7kJWg/8hO0nzMRUDilL2UGAAAAAADODgIKcI7r2lUxAO1FfoL2IS9B+5GfoH3IS9B+5Cfo3HR5BAAAAAAAnYwujwAAAAAAgA5JQAEAAAAAAMgloAAAAAAAAOQSUAAAAAAAAHIJKAAAAAAAALkEFAAAAAAAgFwCCgAAAAAAQC4BBQAAAAAAIJeAAgAAAAAAkEtAAQAAAAAAyCWgAAAAAAAA5BJQAAAAAAAAcgkoAAAAAAAAuQQUAAAAAACAXAIKAAAAAABAri6HEtn4cXv//fezMQAAAAAA4HQZMGBANnb6nFRAAQAAAAAAODfo8ggAAAAAAMgloAAAAAAAAOQSUAAAAAAAAHIJKAAAAAAAALkEFAAAAAAAgFwCCgAAAAAAQC4BBQAAAAAAIJeAAgAAAAAAkEtAAQAAAAAAyCWgAAAAAAAA5BJQAAAAAAAAcgkoAAAAAAAAuQQUAAAAAACAXAIKAAAAAABALgEFAAAAAAAgl4ACAAAAAACQS0ABAAAAAADIJaAAAAAAAADkElAAAAAAAAByCSgAAAAAAAC5BBQAAAAAAIBcAgoAAAAAAEAuAQUAAAAAACCXgAIAAAAAAJBLQAEAAAAAAMgloAAAAAAAAOQSUAAAAAAAAHIJKAAAAAAAALkEFAAAAAAAgFwCCgAAAAAAQC4BBQAAAAAAIJeAAgAAAAAAkEtAAQAAAAAAyCWgAAAAAAAA5BJQAAAAAAAAcgkoAAAAAAAAuQQUAAAAAACAXAIKAAAAAABALgEFAAAAAAAgl4ACAAAAAACQS0ABAAAAAADIJaAAAAAAAADkElAAAAAAAAByCSgAAAAAAAC5BBQAAAAAAIBcAgoAAAAAAEAuAQUAAAAAACBXl0OJbBwAAOjEdu3aFfv378+m2lePHj2if//+2RQAAHAuElAAAICzwJYtW6K+vj569+6dpbSvffv2RUlJSQwfPjxLAQAAzjUCCgAA0Mlt3749amtrY8SIEdGlS5cstX2llw2bN2+OXr16xeDBg7NUAADgXOIdCgAA0InV1NQUhmHDhp2yYEIq/e10GY3LAwAAzj0CCgAA0Ent2bMnqqurC08mpN0RnWrpMtJlpctMlw0AAJxbBBQAAKATSrs4SrsgOv/886Nnz55Z6qmXLitdZrrsdB0AAIBzh4ACAAB0MgcOHIh333230AVR3759s9TTJ11muux0HdJ1AQAAzg0CCgAA0ImkL0dOG/IHDBgQpaWlWerply47XYd0XdJ1AgAAzn4CCgAA0ImkXQ316tUrBg0alKWcOek6pOuSrhMAAHD2E1AAAIBOYsuWLdG1a9cYOnRolnLmpeuSrlO6bgAAwNlNQAEAADqBbdu2RX19feGFyB1Nuk7puqXrCAAAnL0EFAAAoIPbuXNn7Nmzp0MGExql65auY7quAADA2UlAAQAAOrBdu3bF9u3bCw323bp1y1I7nnTd0nVM1zVdZwAA4OzT5VAiGwcAADqYDRs2FP6m7ynIc/DgwSgtLY3zzjsvS2kf7733XtTU1LQpoNHQ0FD4e+GFFxb+AgAAZw8BBQAA6MDWr18fI0aMaFNAIX2PQdrtUElJSbu9uHnr1q2FQEXfvn0Lv5snDShs3rw5LrrooiwFAAA4W+jyCAAAOrju3bu3aejdu3cMHjw43n///UIQ4GSlv5E+mZD+ZvrbLS2zpQEAADg7CSgAAMBZJH2SIe2aqEuXLlnKiUt/I/2ttjwdAQAAnP1cGQAAwFkm7ZqotrY2mzpx6W944gAAAGgkoAAAAGeZ9H0H6YuUd+/eHQcOHDihIf1u+ht9+vTJfhUAADjXeSkzAAB0YOlLmT/0oQ8dd7dD6bsPdu3aFSd6up92d9S/f/8oLS3NUtomfSnz22+/7aXMAABwFhJQAACADuxEAwpnioACAACcvXR5BAAAAAAA5BJQAACADizteqiz6YzrDAAA5BNQAACADkxAAQAA6CgEFAAAAAAAgFwCCgAAAAAAQC4BBQAAAAAAIJeAAgAAAAAAkEtAAQAAOqCGhoaor6/PpjqfdN3TbQAAAM4eAgoAANBBpA3wBw4ciLq6uqitrY39+/dnczqfdN3TbUi3Jd0mwQUAAOj8BBQAAOAMO3jwYKEBvrHxPZ0+W6Tb0hgkSbfxbNo2AAA41wgoAADAGZR2DZQ2tKd/Dx06lKUekaa1lN5Rtba+aVq6jWlgoTN35QQAAOcyAQUAADhD0rv1WwskNOrevXunaoBP1zVd52NJP+NJBQAA6HwEFAAA4AzKe/qgV69eUVNTk011fOm6put8LHnbDAAAdExdkpN5Z/MAAHCGNHZ3dCzvvfdedOvWrTD07NkzS+1Y0q6M0qcO0uG8887LUltWUlISPXr0yKYAAIDOQkABAADOoPR0vLELoIaGhiz1g3bv3p37mTOpa9euhYBHv379spQPavxMGlDo0qVLlgoAAHQWAgoAANABpKflacAgDS501KDBiUoDCWkQIQ0mCCQAAEDnJaAAAAAdTBpQaD50JmkAofkAAAB0fgIKAADQwaUBhfS0vTG40DjeEaTBgvSpg8bAQeM4AABw9hFQAACATig9jW86NE9rnG76N9V0vKmmXRE1jjf92zg0n25MAwAAzn4CCgAAAAAAQC7PIgMAAAAAALkEFAAAAAAAgFwCCgAAAAAAQC4BBQAAAAAAIJeAAgAAAAAAkEtAAQAAAAAAyCWgAAAAAAAA5BJQAAAAAAAAcgkoAAAAAAAAuQQUAAAAAACAXAIKAAAAAABALgEFAAAAAAAgl4ACAAB0QA0H6qP+QEM21VRDkp7Ma2nWSWioT37zYDYBAADQAgEFAADocGpj87rn4/kX1sSmfVnSYe/Hhheejw3vZ5Pt5P0Nz8fad2uzqRwHa2PHtt2xP5sEAADODQIKAADQQfXqvS/Wv74pag9lCR3F/m3x9prNsSebBAAAzg0CCgAA0EH1HnVhjNm/IdZvzntyoCFqt1XG+rUvxUtr10fl1r1Rn81pWdPPV8TmXR/8dP2eLVH5+tp46d/XxGsbNkfNgWxGkl7x9vbYF7vi3YqKqNiyt5jeUBs7Nm2I19asKq7DttpkKQAAwNlEQAEAADqsATF67PDYs6EitrTav1BD7KhYHave3B29ho2KUcN6xe63V8fq9TtaDSrUblobq17bHl2HJJ8/v0/srXg1qrK4QKp+x/pY/euNsbv3sBj14Qui9ODmePnFDVGTPinRvW8MLO0VJdEz+gwcGAP7lkQcqo1Nr6yKtVsbovSCC4vr8OaqeLX1lQYAADohAQUAAOjASgZfGGOH7Ij1b1a3HCDYtzneruweF156SYweOiSGDB0dl1w+Nvpu2hCbW+qT6GB1bHxrTwy/5LIYe37y+SEjYuyl50eP3dn8RNf+I+NjV308Lhk9NJk/JEaMHRPD92yJbbuSmT36xZCBfaJ79IjSZN6Qfj3SxBj6kY/HVclyR6RpyTpceEH/qH6v9aAGAADQ+QgoAABAh1YSQz9yUQza9lpUVH+web5h9+7YMfC8GNI7S0j1GBQDB9fEzvdb6Cpp397YdWBIDB7Y5FKgJPn8wGw80bWkT5T27hp7a7bFtncro2L9O7EjaqP+YPaB5rp0jR79+kTJgWRdtlXHpg0VsWHrroj6egEFAAA4iwgoAABAR9djeIy9cEBUv7khtjVrod9/YH9El2zisB7Ro0dEQ0svc66vjzTM0PWo75RESfdsNFG79dVYtfJX8ZvK7bFzX9coHTow+mfzWnSwJja+uDJWvrghtu6siYbeA2Nw6TG/AQAAdEICCgAA0An0uuCiuLD3lqio3JmlFPXq1y967d4b+44KHuyO3e+XRK+eaXdEzfTqFQNib+zdl00XJJ9PuzMqqI1tm7dE34s+GRMnXBRjLxwZQwf2iZJsbotqtsSGgyPj4//PZfHRsWNj9PlDYkCvbB4AAHDWEFAAAIBOoVeMvOjC6Llxc1T3zJJS/YfGiN6b4u23a6I+DSocaojdmzbGpq4jY8SQFk73ew2NYUN3ReXGLVHbkCY0xN5NG2LT4d6RSqKkJGLfvtpkTiqZ/847saUw3lR97G98WqJbSfSqrY09jdMHtkXlOzuyCQAA4GzR5VAiGwcAADqE2tj00sp477yr44qRR9/qv/vt1bHqzZoYecXkuGhQlli3LSpefS0qd+4vTPYoHRFjL/loDG/6XoWm6mti4yuvxIbC50ui36gJMfrQS/Fun2x5+zbFmvL1sa3wcz1i0EdGRK83N0bXw8usjx1vvBhrq3ZH/QWXxeSLBxyZTn+x3/AYPWB/bNh7Xlx9xcjwsAIAAJwdBBQAAOAs0VBfHw3RNUpK2vYgcuHzXUqipFuWcJSGqD/QkL6huZX5LThYH/XpV7qXeBQaAADOQgIKAAAAAABALjcOAQAAAAAAuQQUAAAAAACAXAIKAAAAAABALgEFAAAAAAAgl4ACAAAAAACQS0ABAAAAAADIJaAAAAAAAADkElAAAAAAAAByCSgAAAAAAAC5BBQAAAAAAIBcAgoAAAAAAEAuAQUAAAAAACCXgAIAAAAAAJBLQAEAAAAAAMgloAAAAAAAAOQSUAAAAAAAAHIJKAAAAAAAALkEFAAAAAAAgFwCCgAAAAAAQC4BBQAAAAAAIJeAAgAAAAAAkEtAAQAAAAAAyCWgAAAAAAAA5BJQAAAAAAAAcgkoAAAAAAAAuQQUAAAAAACAXAIKAAAAAABALgEFAAAAAAAgl4ACAAAAAACQS0ABAAAAAADIJaAAAAAAAADkElAAAAAAAAByCSgAAAAAAAC5BBQAAAAAAIBcAgoAAAAAAEAuAQUAAAAAACCXgAIAAAAAAJBLQAEAAAAAAMgloAAAAAAAAOQSUAAAAAAAAHIJKAAAAAAAALkEFAAAAAAAgFwCCgAAAAAAQC4BBQAAAAAAIJeAAgAAAAAAkEtAAQAAAAAAyCWgAAAAAAAA5BJQAAAAAAAAcgkoAAAAAAAAuQQUAAAAAACAXAIKAAAAAABALgEFAAAAAAAgV5dDiWz8uL3//vvZGAAAAAAAcLoMGDAgGzt9TiqgAAAAAAAAnBt0eQQAAAAAAOQSUAAAAAAAAHIJKAAAAAAAALkEFAAAAAAAgFwCCgAAAAAAQC4BBQAAAAAAIJeAAgAAAAAAkEtAAQAAAAAAyCWgAAAAAAAA5BJQAAAAAAAAcgkoAAAAAAAAuQQUAAAAAACAXAIKAAAAAABALgEFAAAAAAAgl4ACAAAAAACQS0ABAAAAAADIJaAAAAAAAADkElAAAAAAAAByCSgAAAAAAAC5BBQAAAAAAIBcAgoAAAAAAEAuAQUAAAAAACCXgAIAAAAAAJBLQAEAAAAAAMgloAAAAAAAAOQSUAAAAAAAAHJE/P/Hw7VRUnUEGAAAAABJRU5ErkJggg==;" parent="1" vertex="1">
          <mxGeometry x="4634.82" y="1620" width="720.37" height="150" as="geometry" />
        </mxCell>
        <mxCell id="-EcStznWqKrgsKQWKyy--2" value="&lt;pre style=&quot;box-sizing: border-box; max-height: 400px; min-height: 6em; overflow: auto; background: rgb(51, 51, 51); border-radius: 4px; hyphens: auto; margin-top: 0px; margin-bottom: 0px; padding: 0.5em; text-wrap-mode: wrap; word-break: break-word; overflow-wrap: break-word; color: white; font-weight: 600; text-align: start;&quot; class=&quot;example microlight&quot;&gt;&lt;code style=&quot;box-sizing: border-box; font-family: Consolas, monaco, monospace; font-size: 1em; word-break: break-all; text-wrap-mode: nowrap;&quot; class=&quot;language-json&quot;&gt;&lt;span style=&quot;box-sizing: inherit;&quot;&gt; &lt;/span&gt;&lt;span style=&quot;box-sizing: inherit;&quot; class=&quot;hljs-attr&quot;&gt;&quot;id&quot;&lt;/span&gt;&lt;span style=&quot;box-sizing: inherit;&quot;&gt;: &lt;/span&gt;&lt;span style=&quot;box-sizing: inherit; color: rgb(211, 99, 99);&quot;&gt;0&lt;/span&gt;&lt;span style=&quot;box-sizing: inherit;&quot;&gt;,&lt;br/&gt;&lt;/span&gt;&lt;span style=&quot;box-sizing: inherit;&quot;&gt;    &lt;/span&gt;&lt;span style=&quot;box-sizing: inherit;&quot; class=&quot;hljs-attr&quot;&gt;&quot;knowledge_base&quot;&lt;/span&gt;&lt;span style=&quot;box-sizing: inherit;&quot;&gt;: &lt;/span&gt;&lt;span style=&quot;box-sizing: inherit; color: rgb(211, 99, 99);&quot;&gt;0&lt;/span&gt;&lt;span style=&quot;box-sizing: inherit;&quot;&gt;,&lt;br/&gt;&lt;/span&gt;&lt;span style=&quot;box-sizing: inherit;&quot;&gt;    &lt;/span&gt;&lt;span style=&quot;box-sizing: inherit;&quot; class=&quot;hljs-attr&quot;&gt;&quot;name&quot;&lt;/span&gt;&lt;span style=&quot;box-sizing: inherit;&quot;&gt;: &lt;/span&gt;&lt;span style=&quot;box-sizing: inherit; color: rgb(162, 252, 162);&quot;&gt;&quot;string&quot;&lt;/span&gt;&lt;span style=&quot;box-sizing: inherit;&quot;&gt;,&lt;br/&gt;&lt;/span&gt;&lt;span style=&quot;box-sizing: inherit;&quot;&gt;    &lt;/span&gt;&lt;span style=&quot;box-sizing: inherit;&quot; class=&quot;hljs-attr&quot;&gt;&quot;source_type&quot;&lt;/span&gt;&lt;span style=&quot;box-sizing: inherit;&quot;&gt;: &lt;/span&gt;&lt;span style=&quot;box-sizing: inherit; color: rgb(162, 252, 162);&quot;&gt;&quot;document&quot;&lt;/span&gt;&lt;span style=&quot;box-sizing: inherit;&quot;&gt;,&lt;br/&gt;&lt;/span&gt;&lt;span style=&quot;box-sizing: inherit;&quot;&gt;    &lt;/span&gt;&lt;span style=&quot;box-sizing: inherit;&quot; class=&quot;hljs-attr&quot;&gt;&quot;num_characters&quot;&lt;/span&gt;&lt;span style=&quot;box-sizing: inherit;&quot;&gt;: &lt;/span&gt;&lt;span style=&quot;box-sizing: inherit; color: rgb(211, 99, 99);&quot;&gt;2147483647&lt;/span&gt;&lt;span style=&quot;box-sizing: inherit;&quot;&gt;,&lt;br/&gt;&lt;/span&gt;&lt;span style=&quot;box-sizing: inherit;&quot;&gt;    &lt;/span&gt;&lt;span style=&quot;box-sizing: inherit;&quot; class=&quot;hljs-attr&quot;&gt;&quot;num_tokens&quot;&lt;/span&gt;&lt;span style=&quot;box-sizing: inherit;&quot;&gt;: &lt;/span&gt;&lt;span style=&quot;box-sizing: inherit; color: rgb(211, 99, 99);&quot;&gt;2147483647&lt;/span&gt;&lt;span style=&quot;box-sizing: inherit;&quot;&gt;,&lt;br/&gt;&lt;/span&gt;&lt;span style=&quot;box-sizing: inherit;&quot;&gt;    &lt;/span&gt;&lt;span style=&quot;box-sizing: inherit;&quot; class=&quot;hljs-attr&quot;&gt;&quot;num_chunks&quot;&lt;/span&gt;&lt;span style=&quot;box-sizing: inherit;&quot;&gt;: &lt;/span&gt;&lt;span style=&quot;box-sizing: inherit; color: rgb(211, 99, 99);&quot;&gt;2147483647&lt;/span&gt;&lt;span style=&quot;box-sizing: inherit;&quot;&gt;,&lt;br/&gt;&lt;/span&gt;&lt;span style=&quot;box-sizing: inherit;&quot;&gt;    &lt;/span&gt;&lt;span style=&quot;box-sizing: inherit;&quot; class=&quot;hljs-attr&quot;&gt;&quot;status&quot;&lt;/span&gt;&lt;span style=&quot;box-sizing: inherit;&quot;&gt;: &lt;/span&gt;&lt;span style=&quot;box-sizing: inherit; color: rgb(162, 252, 162);&quot;&gt;&quot;in_queue&quot;&lt;/span&gt;&lt;span style=&quot;box-sizing: inherit;&quot;&gt;,&lt;br/&gt;&lt;/span&gt;&lt;span style=&quot;box-sizing: inherit;&quot;&gt;    &lt;/span&gt;&lt;span style=&quot;box-sizing: inherit;&quot; class=&quot;hljs-attr&quot;&gt;&quot;progress&quot;&lt;/span&gt;&lt;span style=&quot;box-sizing: inherit;&quot;&gt;: &lt;/span&gt;&lt;span style=&quot;box-sizing: inherit; color: rgb(211, 99, 99);&quot;&gt;32767&lt;/span&gt;&lt;span style=&quot;box-sizing: inherit;&quot;&gt;,&lt;br/&gt;&lt;/span&gt;&lt;span style=&quot;box-sizing: inherit;&quot;&gt;    &lt;/span&gt;&lt;span style=&quot;box-sizing: inherit;&quot; class=&quot;hljs-attr&quot;&gt;&quot;created_at&quot;&lt;/span&gt;&lt;span style=&quot;box-sizing: inherit;&quot;&gt;: &lt;/span&gt;&lt;span style=&quot;box-sizing: inherit; color: rgb(162, 252, 162);&quot;&gt;&quot;2025-03-02T05:45:12.732Z&quot;&lt;/span&gt;&lt;span style=&quot;box-sizing: inherit;&quot;&gt;,&lt;br/&gt;&lt;/span&gt;&lt;span style=&quot;box-sizing: inherit;&quot;&gt;    &lt;/span&gt;&lt;span style=&quot;box-sizing: inherit;&quot; class=&quot;hljs-attr&quot;&gt;&quot;modified_at&quot;&lt;/span&gt;&lt;span style=&quot;box-sizing: inherit;&quot;&gt;: &lt;/span&gt;&lt;span style=&quot;box-sizing: inherit; color: rgb(162, 252, 162);&quot;&gt;&quot;2025-03-02T05:45:12.732Z&quot;&lt;/span&gt;&lt;span style=&quot;box-sizing: inherit;&quot;&gt;,&lt;br/&gt;&lt;/span&gt;&lt;span style=&quot;box-sizing: inherit;&quot;&gt;    &lt;/span&gt;&lt;span style=&quot;box-sizing: inherit;&quot; class=&quot;hljs-attr&quot;&gt;&quot;file_type&quot;&lt;/span&gt;&lt;span style=&quot;box-sizing: inherit;&quot;&gt;: &lt;/span&gt;&lt;span style=&quot;box-sizing: inherit; color: rgb(162, 252, 162);&quot;&gt;&quot;string&quot;&lt;/span&gt;&lt;span style=&quot;box-sizing: inherit;&quot;&gt;,&lt;br/&gt;&lt;/span&gt;&lt;span style=&quot;box-sizing: inherit;&quot;&gt;    &lt;/span&gt;&lt;span style=&quot;box-sizing: inherit;&quot; class=&quot;hljs-attr&quot;&gt;&quot;file_download_url&quot;&lt;/span&gt;&lt;span style=&quot;box-sizing: inherit;&quot;&gt;: &lt;/span&gt;&lt;span style=&quot;box-sizing: inherit; color: rgb(162, 252, 162);&quot;&gt;&quot;string&quot;&lt;/span&gt;&lt;/code&gt;&lt;/pre&gt;" style="rounded=0;whiteSpace=wrap;html=1;" parent="1" vertex="1">
          <mxGeometry x="4790" y="820" width="265" height="130" as="geometry" />
        </mxCell>
        <mxCell id="-EcStznWqKrgsKQWKyy--14" value="" style="group" parent="1" vertex="1" connectable="0">
          <mxGeometry x="3440" y="1230" width="960" height="220" as="geometry" />
        </mxCell>
        <mxCell id="-EcStznWqKrgsKQWKyy--1" value="" style="rounded=0;whiteSpace=wrap;html=1;" parent="-EcStznWqKrgsKQWKyy--14" vertex="1">
          <mxGeometry width="960" height="220" as="geometry" />
        </mxCell>
        <mxCell id="-EcStznWqKrgsKQWKyy--3" value="ds.name" style="rounded=0;whiteSpace=wrap;html=1;" parent="-EcStznWqKrgsKQWKyy--14" vertex="1">
          <mxGeometry x="9.094947017729282e-13" width="120" height="60" as="geometry" />
        </mxCell>
        <mxCell id="-EcStznWqKrgsKQWKyy--4" value="ds.num_chunks&lt;div&gt;(Chunk Number)&lt;/div&gt;" style="rounded=0;whiteSpace=wrap;html=1;" parent="-EcStznWqKrgsKQWKyy--14" vertex="1">
          <mxGeometry x="120" width="190" height="60" as="geometry" />
        </mxCell>
        <mxCell id="-EcStznWqKrgsKQWKyy--5" value="ds.num_characters" style="rounded=0;whiteSpace=wrap;html=1;" parent="-EcStznWqKrgsKQWKyy--14" vertex="1">
          <mxGeometry x="310" width="130" height="60" as="geometry" />
        </mxCell>
        <mxCell id="-EcStznWqKrgsKQWKyy--6" value="ds.created_at" style="rounded=0;whiteSpace=wrap;html=1;" parent="-EcStznWqKrgsKQWKyy--14" vertex="1">
          <mxGeometry x="440" width="130" height="60" as="geometry" />
        </mxCell>
        <mxCell id="-EcStznWqKrgsKQWKyy--7" value="ds.status" style="rounded=0;whiteSpace=wrap;html=1;" parent="-EcStznWqKrgsKQWKyy--14" vertex="1">
          <mxGeometry x="570" width="130" height="60" as="geometry" />
        </mxCell>
        <mxCell id="-EcStznWqKrgsKQWKyy--8" value="ds.progress" style="rounded=0;whiteSpace=wrap;html=1;" parent="-EcStznWqKrgsKQWKyy--14" vertex="1">
          <mxGeometry x="700" width="130" height="60" as="geometry" />
        </mxCell>
        <mxCell id="-EcStznWqKrgsKQWKyy--9" value="action" style="rounded=0;whiteSpace=wrap;html=1;" parent="-EcStznWqKrgsKQWKyy--14" vertex="1">
          <mxGeometry x="830" width="130" height="60" as="geometry" />
        </mxCell>
        <mxCell id="-EcStznWqKrgsKQWKyy--10" value="delete" style="ellipse;whiteSpace=wrap;html=1;aspect=fixed;" parent="-EcStznWqKrgsKQWKyy--14" vertex="1">
          <mxGeometry x="910" y="70" width="30" height="30" as="geometry" />
        </mxCell>
        <mxCell id="-EcStznWqKrgsKQWKyy--11" value="edit" style="ellipse;whiteSpace=wrap;html=1;aspect=fixed;" parent="-EcStznWqKrgsKQWKyy--14" vertex="1">
          <mxGeometry x="850" y="70" width="30" height="30" as="geometry" />
        </mxCell>
        <mxCell id="-EcStznWqKrgsKQWKyy--12" value="delete" style="ellipse;whiteSpace=wrap;html=1;aspect=fixed;" parent="-EcStznWqKrgsKQWKyy--14" vertex="1">
          <mxGeometry x="910" y="120" width="30" height="30" as="geometry" />
        </mxCell>
        <mxCell id="-EcStznWqKrgsKQWKyy--13" value="edit" style="ellipse;whiteSpace=wrap;html=1;aspect=fixed;" parent="-EcStznWqKrgsKQWKyy--14" vertex="1">
          <mxGeometry x="850" y="120" width="30" height="30" as="geometry" />
        </mxCell>
        <mxCell id="-EcStznWqKrgsKQWKyy--15" value="Add File" style="rounded=0;whiteSpace=wrap;html=1;" parent="1" vertex="1">
          <mxGeometry x="4154.000000000001" y="1162.5" width="120" height="60" as="geometry" />
        </mxCell>
        <mxCell id="-EcStznWqKrgsKQWKyy--17" value="&lt;span style=&quot;color: rgba(0, 0, 0, 0); font-family: monospace; font-size: 0px; text-align: start; text-wrap-mode: nowrap;&quot;&gt;%3CmxGraphModel%3E%3Croot%3E%3CmxCell%20id%3D%220%22%2F%3E%3CmxCell%20id%3D%221%22%20parent%3D%220%22%2F%3E%3CmxCell%20id%3D%222%22%20value%3D%22Configuration%22%20style%3D%22rounded%3D0%3BwhiteSpace%3Dwrap%3Bhtml%3D1%3B%22%20vertex%3D%221%22%20parent%3D%221%22%3E%3CmxGeometry%20x%3D%224161.4400000000005%22%20y%3D%221100%22%20width%3D%22120%22%20height%3D%2260%22%20as%3D%22geometry%22%2F%3E%3C%2FmxCell%3E%3C%2Froot%3E%3C%2FmxGraphModel%3E&lt;/span&gt;" style="rounded=0;whiteSpace=wrap;html=1;" parent="1" vertex="1">
          <mxGeometry x="4750" y="1100" width="570" height="320" as="geometry" />
        </mxCell>
        <mxCell id="-EcStznWqKrgsKQWKyy--18" value="" style="endArrow=classic;html=1;rounded=0;exitX=1;exitY=0.5;exitDx=0;exitDy=0;entryX=0;entryY=0.5;entryDx=0;entryDy=0;" parent="1" source="-EcStznWqKrgsKQWKyy--15" target="-EcStznWqKrgsKQWKyy--17" edge="1">
          <mxGeometry width="50" height="50" relative="1" as="geometry">
            <mxPoint x="4250" y="1370" as="sourcePoint" />
            <mxPoint x="4300" y="1320" as="targetPoint" />
          </mxGeometry>
        </mxCell>
        <mxCell id="-EcStznWqKrgsKQWKyy--20" value="Add Plain Text" style="rounded=0;whiteSpace=wrap;html=1;" parent="1" vertex="1">
          <mxGeometry x="4020.000000000001" y="1162.5" width="120" height="60" as="geometry" />
        </mxCell>
        <mxCell id="-EcStznWqKrgsKQWKyy--21" value="&lt;span style=&quot;color: rgba(0, 0, 0, 0); font-family: monospace; font-size: 0px; text-align: start; text-wrap-mode: nowrap;&quot;&gt;%3CmxGraphModel%3E%3Croot%3E%3CmxCell%20id%3D%220%22%2F%3E%3CmxCell%20id%3D%221%22%20parent%3D%220%22%2F%3E%3CmxCell%20id%3D%222%22%20value%3D%22Configuration%22%20style%3D%22rounded%3D0%3BwhiteSpace%3Dwrap%3Bhtml%3D1%3B%22%20vertex%3D%221%22%20parent%3D%221%22%3E%3CmxGeometry%20x%3D%224161.4400000000005%22%20y%3D%221100%22%20width%3D%22120%22%20height%3D%2260%22%20as%3D%22geometry%22%2F%3E%3C%2FmxCell%3E%3C%2Froot%3E%3C%2FmxGraphModel%3E&lt;/span&gt;" style="rounded=0;whiteSpace=wrap;html=1;" parent="1" vertex="1">
          <mxGeometry x="3890" y="1640" width="570" height="320" as="geometry" />
        </mxCell>
        <mxCell id="-EcStznWqKrgsKQWKyy--22" value="" style="endArrow=classic;html=1;rounded=0;exitX=0.5;exitY=1;exitDx=0;exitDy=0;entryX=0.5;entryY=0;entryDx=0;entryDy=0;" parent="1" source="-EcStznWqKrgsKQWKyy--20" target="-EcStznWqKrgsKQWKyy--21" edge="1">
          <mxGeometry width="50" height="50" relative="1" as="geometry">
            <mxPoint x="4350" y="1530" as="sourcePoint" />
            <mxPoint x="4826" y="1597" as="targetPoint" />
          </mxGeometry>
        </mxCell>
        <mxCell id="-EcStznWqKrgsKQWKyy--23" value="&lt;div style=&quot;text-align: left;&quot;&gt;&lt;span style=&quot;background-color: transparent; color: light-dark(rgb(0, 0, 0), rgb(255, 255, 255));&quot;&gt;Upload .txt, .docx, .doc&lt;/span&gt;&lt;span style=&quot;background-color: transparent; color: light-dark(rgb(0, 0, 0), rgb(255, 255, 255));&quot;&gt;, .pdf (1 MB maximum)&lt;/span&gt;&lt;/div&gt;" style="rounded=0;whiteSpace=wrap;html=1;" parent="1" vertex="1">
          <mxGeometry x="4835" y="1162.5" width="400" height="235" as="geometry" />
        </mxCell>
        <mxCell id="-EcStznWqKrgsKQWKyy--24" value="&lt;div style=&quot;text-align: left;&quot;&gt;name&lt;/div&gt;" style="rounded=0;whiteSpace=wrap;html=1;" parent="1" vertex="1">
          <mxGeometry x="3950" y="1660" width="467.12" height="50" as="geometry" />
        </mxCell>
        <mxCell id="-EcStznWqKrgsKQWKyy--25" value="&lt;div style=&quot;text-align: left;&quot;&gt;name&lt;/div&gt;" style="rounded=0;whiteSpace=wrap;html=1;" parent="1" vertex="1">
          <mxGeometry x="4975" y="1107.5" width="260" height="45" as="geometry" />
        </mxCell>
        <mxCell id="-EcStznWqKrgsKQWKyy--27" value="&lt;div style=&quot;text-align: left;&quot;&gt;text (1 - 15000)&lt;/div&gt;" style="rounded=0;whiteSpace=wrap;html=1;" parent="1" vertex="1">
          <mxGeometry x="3950" y="1720" width="467.12" height="200" as="geometry" />
        </mxCell>
      </root>
    </mxGraphModel>
  </diagram>
</mxfile>
